{"glyphs":{"0":{"ha":926,"x_min":0,"x_max":0,"o":"m 231 0 b 154 77 189 0 154 35 b 231 154 154 120 189 154 b 308 77 274 154 308 119 b 231 0 308 35 274 0 z m 386 0 b 308 77 343 0 308 35 b 386 154 308 120 343 154 b 463 77 428 154 463 119 b 386 0 463 35 428 0 z m 540 0 b 463 77 497 0 463 35 b 540 154 463 120 497 154 b 617 77 583 154 617 119 b 540 0 617 35 583 0 z m 77 154 b 0 231 35 154 0 189 b 77 308 0 274 35 308 b 154 231 120 308 154 274 b 77 154 154 189 119 154 z m 694 154 b 617 231 652 154 617 189 b 694 308 617 274 652 308 b 772 231 737 308 772 274 b 694 154 772 189 737 154 z m 77 308 b 0 386 35 308 0 343 b 77 463 0 428 35 463 b 154 386 120 463 154 428 b 77 308 154 343 119 308 z m 694 308 b 617 386 652 308 617 343 b 694 463 617 428 652 463 b 772 386 737 463 772 428 b 694 308 772 343 737 308 z m 77 463 b 0 540 35 463 0 497 b 77 617 0 583 35 617 b 154 540 120 617 154 583 b 77 463 154 497 119 463 z m 694 463 b 617 540 652 463 617 497 b 694 617 617 583 652 617 b 772 540 737 617 772 583 b 694 463 772 497 737 463 z m 77 617 b 0 694 35 617 0 652 b 77 772 0 737 35 772 b 154 694 120 772 154 737 b 77 617 154 652 119 617 z m 694 617 b 617 694 652 617 617 652 b 694 772 617 737 652 772 b 772 694 737 772 772 737 b 694 617 772 652 737 617 z m 77 772 b 0 849 35 772 0 806 b 77 926 0 892 35 926 b 154 849 120 926 154 892 b 77 772 154 806 119 772 z m 694 772 b 617 849 652 772 617 806 b 694 926 617 892 652 926 b 772 849 737 926 772 892 b 694 772 772 806 737 772 z m 231 926 b 154 1003 189 926 154 960 b 231 1081 154 1046 189 1081 b 308 1003 274 1081 308 1046 b 231 926 308 960 274 926 z m 386 926 b 308 1003 343 926 308 960 b 386 1081 308 1046 343 1081 b 463 1003 428 1081 463 1046 b 386 926 463 960 428 926 z m 540 926 b 463 1003 497 926 463 960 b 540 1081 463 1046 497 1081 b 617 1003 583 1081 617 1046 b 540 926 617 960 583 926 z "},"1":{"ha":617,"x_min":0,"x_max":0,"o":"m 77 0 b 0 77 35 0 0 35 b 77 154 0 120 35 154 b 154 77 120 154 154 119 b 77 0 154 35 119 0 z m 231 0 b 154 77 189 0 154 35 b 231 154 154 120 189 154 b 308 77 274 154 308 119 b 231 0 308 35 274 0 z m 386 0 b 308 77 343 0 308 35 b 386 154 308 120 343 154 b 463 77 428 154 463 119 b 386 0 463 35 428 0 z m 231 154 b 154 231 189 154 154 189 b 231 308 154 274 189 308 b 308 231 274 308 308 274 b 231 154 308 189 274 154 z m 231 308 b 154 386 189 308 154 343 b 231 463 154 428 189 463 b 308 386 274 463 308 428 b 231 308 308 343 274 308 z m 231 463 b 154 540 189 463 154 497 b 231 617 154 583 189 617 b 308 540 274 617 308 583 b 231 463 308 497 274 463 z m 231 617 b 154 694 189 617 154 652 b 231 772 154 737 189 772 b 308 694 274 772 308 737 b 231 617 308 652 274 617 z m 77 772 b 0 849 35 772 0 806 b 77 926 0 892 35 926 b 154 849 120 926 154 892 b 77 772 154 806 119 772 z m 231 772 b 154 849 189 772 154 806 b 231 926 154 892 189 926 b 308 849 274 926 308 892 b 231 772 308 806 274 772 z m 231 926 b 154 1003 189 926 154 960 b 231 1081 154 1046 189 1081 b 308 1003 274 1081 308 1046 b 231 926 308 960 274 926 z "},"2":{"ha":926,"x_min":0,"x_max":0,"o":"m 77 0 b 0 77 35 0 0 35 b 77 154 0 120 35 154 b 154 77 120 154 154 119 b 77 0 154 35 119 0 z m 231 0 b 154 77 189 0 154 35 b 231 154 154 120 189 154 b 308 77 274 154 308 119 b 231 0 308 35 274 0 z m 386 0 b 308 77 343 0 308 35 b 386 154 308 120 343 154 b 463 77 428 154 463 119 b 386 0 463 35 428 0 z m 540 0 b 463 77 497 0 463 35 b 540 154 463 120 497 154 b 617 77 583 154 617 119 b 540 0 617 35 583 0 z m 694 0 b 617 77 652 0 617 35 b 694 154 617 120 652 154 b 772 77 737 154 772 119 b 694 0 772 35 737 0 z m 231 154 b 154 231 189 154 154 189 b 231 308 154 274 189 308 b 308 231 274 308 308 274 b 231 154 308 189 274 154 z m 386 308 b 308 386 343 308 308 343 b 386 463 308 428 343 463 b 463 386 428 463 463 428 b 386 308 463 343 428 308 z m 540 463 b 463 540 497 463 463 497 b 540 617 463 583 497 617 b 617 540 583 617 617 583 b 540 463 617 497 583 463 z m 694 617 b 617 694 652 617 617 652 b 694 772 617 737 652 772 b 772 694 737 772 772 737 b 694 617 772 652 737 617 z m 77 772 b 0 849 35 772 0 806 b 77 926 0 892 35 926 b 154 849 120 926 154 892 b 77 772 154 806 119 772 z m 694 772 b 617 849 652 772 617 806 b 694 926 617 892 652 926 b 772 849 737 926 772 892 b 694 772 772 806 737 772 z m 231 926 b 154 1003 189 926 154 960 b 231 1081 154 1046 189 1081 b 308 1003 274 1081 308 1046 b 231 926 308 960 274 926 z m 386 926 b 308 1003 343 926 308 960 b 386 1081 308 1046 343 1081 b 463 1003 428 1081 463 1046 b 386 926 463 960 428 926 z m 540 926 b 463 1003 497 926 463 960 b 540 1081 463 1046 497 1081 b 617 1003 583 1081 617 1046 b 540 926 617 960 583 926 z "},"3":{"ha":926,"x_min":0,"x_max":0,"o":"m 231 0 b 154 77 189 0 154 35 b 231 154 154 120 189 154 b 308 77 274 154 308 119 b 231 0 308 35 274 0 z m 386 0 b 308 77 343 0 308 35 b 386 154 308 120 343 154 b 463 77 428 154 463 119 b 386 0 463 35 428 0 z m 540 0 b 463 77 497 0 463 35 b 540 154 463 120 497 154 b 617 77 583 154 617 119 b 540 0 617 35 583 0 z m 77 154 b 0 231 35 154 0 189 b 77 308 0 274 35 308 b 154 231 120 308 154 274 b 77 154 154 189 119 154 z m 694 154 b 617 231 652 154 617 189 b 694 308 617 274 652 308 b 772 231 737 308 772 274 b 694 154 772 189 737 154 z m 694 308 b 617 386 652 308 617 343 b 694 463 617 428 652 463 b 772 386 737 463 772 428 b 694 308 772 343 737 308 z m 386 463 b 308 540 343 463 308 497 b 386 617 308 583 343 617 b 463 540 428 617 463 583 b 386 463 463 497 428 463 z m 540 463 b 463 540 497 463 463 497 b 540 617 463 583 497 617 b 617 540 583 617 617 583 b 540 463 617 497 583 463 z m 694 617 b 617 694 652 617 617 652 b 694 772 617 737 652 772 b 772 694 737 772 772 737 b 694 617 772 652 737 617 z m 77 772 b 0 849 35 772 0 806 b 77 926 0 892 35 926 b 154 849 120 926 154 892 b 77 772 154 806 119 772 z m 694 772 b 617 849 652 772 617 806 b 694 926 617 892 652 926 b 772 849 737 926 772 892 b 694 772 772 806 737 772 z m 231 926 b 154 1003 189 926 154 960 b 231 1081 154 1046 189 1081 b 308 1003 274 1081 308 1046 b 231 926 308 960 274 926 z m 386 926 b 308 1003 343 926 308 960 b 386 1081 308 1046 343 1081 b 463 1003 428 1081 463 1046 b 386 926 463 960 428 926 z m 540 926 b 463 1003 497 926 463 960 b 540 1081 463 1046 497 1081 b 617 1003 583 1081 617 1046 b 540 926 617 960 583 926 z "},"4":{"ha":926,"x_min":0,"x_max":0,"o":"m 540 0 b 463 77 497 0 463 35 b 540 154 463 120 497 154 b 617 77 583 154 617 119 b 540 0 617 35 583 0 z m 540 154 b 463 231 497 154 463 189 b 540 308 463 274 497 308 b 617 231 583 308 617 274 b 540 154 617 189 583 154 z m 77 308 b 0 386 35 308 0 343 b 77 463 0 428 35 463 b 154 386 120 463 154 428 b 77 308 154 343 119 308 z m 231 308 b 154 386 189 308 154 343 b 231 463 154 428 189 463 b 308 386 274 463 308 428 b 231 308 308 343 274 308 z m 386 308 b 308 386 343 308 308 343 b 386 463 308 428 343 463 b 463 386 428 463 463 428 b 386 308 463 343 428 308 z m 540 308 b 463 386 497 308 463 343 b 540 463 463 428 497 463 b 617 386 583 463 617 428 b 540 308 617 343 583 308 z m 694 308 b 617 386 652 308 617 343 b 694 463 617 428 652 463 b 772 386 737 463 772 428 b 694 308 772 343 737 308 z m 77 463 b 0 540 35 463 0 497 b 77 617 0 583 35 617 b 154 540 120 617 154 583 b 77 463 154 497 119 463 z m 540 463 b 463 540 497 463 463 497 b 540 617 463 583 497 617 b 617 540 583 617 617 583 b 540 463 617 497 583 463 z m 231 617 b 154 694 189 617 154 652 b 231 772 154 737 189 772 b 308 694 274 772 308 737 b 231 617 308 652 274 617 z m 540 617 b 463 694 497 617 463 652 b 540 772 463 737 497 772 b 617 694 583 772 617 737 b 540 617 617 652 583 617 z m 386 772 b 308 849 343 772 308 806 b 386 926 308 892 343 926 b 463 849 428 926 463 892 b 386 772 463 806 428 772 z m 540 772 b 463 849 497 772 463 806 b 540 926 463 892 497 926 b 617 849 583 926 617 892 b 540 772 617 806 583 772 z m 540 926 b 463 1003 497 926 463 960 b 540 1081 463 1046 497 1081 b 617 1003 583 1081 617 1046 b 540 926 617 960 583 926 z "},"5":{"ha":926,"x_min":0,"x_max":0,"o":"m 231 0 b 154 77 189 0 154 35 b 231 154 154 120 189 154 b 308 77 274 154 308 119 b 231 0 308 35 274 0 z m 386 0 b 308 77 343 0 308 35 b 386 154 308 120 343 154 b 463 77 428 154 463 119 b 386 0 463 35 428 0 z m 540 0 b 463 77 497 0 463 35 b 540 154 463 120 497 154 b 617 77 583 154 617 119 b 540 0 617 35 583 0 z m 77 154 b 0 231 35 154 0 189 b 77 308 0 274 35 308 b 154 231 120 308 154 274 b 77 154 154 189 119 154 z m 694 154 b 617 231 652 154 617 189 b 694 308 617 274 652 308 b 772 231 737 308 772 274 b 694 154 772 189 737 154 z m 694 308 b 617 386 652 308 617 343 b 694 463 617 428 652 463 b 772 386 737 463 772 428 b 694 308 772 343 737 308 z m 77 463 b 0 540 35 463 0 497 b 77 617 0 583 35 617 b 154 540 120 617 154 583 b 77 463 154 497 119 463 z m 231 463 b 154 540 189 463 154 497 b 231 617 154 583 189 617 b 308 540 274 617 308 583 b 231 463 308 497 274 463 z m 386 463 b 308 540 343 463 308 497 b 386 617 308 583 343 617 b 463 540 428 617 463 583 b 386 463 463 497 428 463 z m 540 463 b 463 540 497 463 463 497 b 540 617 463 583 497 617 b 617 540 583 617 617 583 b 540 463 617 497 583 463 z m 77 617 b 0 694 35 617 0 652 b 77 772 0 737 35 772 b 154 694 120 772 154 737 b 77 617 154 652 119 617 z m 77 772 b 0 849 35 772 0 806 b 77 926 0 892 35 926 b 154 849 120 926 154 892 b 77 772 154 806 119 772 z m 77 926 b 0 1003 35 926 0 960 b 77 1081 0 1046 35 1081 b 154 1003 120 1081 154 1046 b 77 926 154 960 119 926 z m 231 926 b 154 1003 189 926 154 960 b 231 1081 154 1046 189 1081 b 308 1003 274 1081 308 1046 b 231 926 308 960 274 926 z m 386 926 b 308 1003 343 926 308 960 b 386 1081 308 1046 343 1081 b 463 1003 428 1081 463 1046 b 386 926 463 960 428 926 z m 540 926 b 463 1003 497 926 463 960 b 540 1081 463 1046 497 1081 b 617 1003 583 1081 617 1046 b 540 926 617 960 583 926 z m 694 926 b 617 1003 652 926 617 960 b 694 1081 617 1046 652 1081 b 772 1003 737 1081 772 1046 b 694 926 772 960 737 926 z "},"6":{"ha":926,"x_min":0,"x_max":0,"o":"m 231 0 b 154 77 189 0 154 35 b 231 154 154 120 189 154 b 308 77 274 154 308 119 b 231 0 308 35 274 0 z m 386 0 b 308 77 343 0 308 35 b 386 154 308 120 343 154 b 463 77 428 154 463 119 b 386 0 463 35 428 0 z m 540 0 b 463 77 497 0 463 35 b 540 154 463 120 497 154 b 617 77 583 154 617 119 b 540 0 617 35 583 0 z m 77 154 b 0 231 35 154 0 189 b 77 308 0 274 35 308 b 154 231 120 308 154 274 b 77 154 154 189 119 154 z m 694 154 b 617 231 652 154 617 189 b 694 308 617 274 652 308 b 772 231 737 308 772 274 b 694 154 772 189 737 154 z m 77 308 b 0 386 35 308 0 343 b 77 463 0 428 35 463 b 154 386 120 463 154 428 b 77 308 154 343 119 308 z m 694 308 b 617 386 652 308 617 343 b 694 463 617 428 652 463 b 772 386 737 463 772 428 b 694 308 772 343 737 308 z m 77 463 b 0 540 35 463 0 497 b 77 617 0 583 35 617 b 154 540 120 617 154 583 b 77 463 154 497 119 463 z m 231 463 b 154 540 189 463 154 497 b 231 617 154 583 189 617 b 308 540 274 617 308 583 b 231 463 308 497 274 463 z m 386 463 b 308 540 343 463 308 497 b 386 617 308 583 343 617 b 463 540 428 617 463 583 b 386 463 463 497 428 463 z m 540 463 b 463 540 497 463 463 497 b 540 617 463 583 497 617 b 617 540 583 617 617 583 b 540 463 617 497 583 463 z m 77 617 b 0 694 35 617 0 652 b 77 772 0 737 35 772 b 154 694 120 772 154 737 b 77 617 154 652 119 617 z m 231 772 b 154 849 189 772 154 806 b 231 926 154 892 189 926 b 308 849 274 926 308 892 b 231 772 308 806 274 772 z m 386 926 b 308 1003 343 926 308 960 b 386 1081 308 1046 343 1081 b 463 1003 428 1081 463 1046 b 386 926 463 960 428 926 z m 540 926 b 463 1003 497 926 463 960 b 540 1081 463 1046 497 1081 b 617 1003 583 1081 617 1046 b 540 926 617 960 583 926 z m 694 926 b 617 1003 652 926 617 960 b 694 1081 617 1046 652 1081 b 772 1003 737 1081 772 1046 b 694 926 772 960 737 926 z "},"7":{"ha":926,"x_min":0,"x_max":0,"o":"m 231 0 b 154 77 189 0 154 35 b 231 154 154 120 189 154 b 308 77 274 154 308 119 b 231 0 308 35 274 0 z m 231 154 b 154 231 189 154 154 189 b 231 308 154 274 189 308 b 308 231 274 308 308 274 b 231 154 308 189 274 154 z m 231 308 b 154 386 189 308 154 343 b 231 463 154 428 189 463 b 308 386 274 463 308 428 b 231 308 308 343 274 308 z m 386 463 b 308 540 343 463 308 497 b 386 617 308 583 343 617 b 463 540 428 617 463 583 b 386 463 463 497 428 463 z m 540 617 b 463 694 497 617 463 652 b 540 772 463 737 497 772 b 617 694 583 772 617 737 b 540 617 617 652 583 617 z m 694 772 b 617 849 652 772 617 806 b 694 926 617 892 652 926 b 772 849 737 926 772 892 b 694 772 772 806 737 772 z m 77 926 b 0 1003 35 926 0 960 b 77 1081 0 1046 35 1081 b 154 1003 120 1081 154 1046 b 77 926 154 960 119 926 z m 231 926 b 154 1003 189 926 154 960 b 231 1081 154 1046 189 1081 b 308 1003 274 1081 308 1046 b 231 926 308 960 274 926 z m 386 926 b 308 1003 343 926 308 960 b 386 1081 308 1046 343 1081 b 463 1003 428 1081 463 1046 b 386 926 463 960 428 926 z m 540 926 b 463 1003 497 926 463 960 b 540 1081 463 1046 497 1081 b 617 1003 583 1081 617 1046 b 540 926 617 960 583 926 z m 694 926 b 617 1003 652 926 617 960 b 694 1081 617 1046 652 1081 b 772 1003 737 1081 772 1046 b 694 926 772 960 737 926 z "},"8":{"ha":926,"x_min":0,"x_max":0,"o":"m 231 0 b 154 77 189 0 154 35 b 231 154 154 120 189 154 b 308 77 274 154 308 119 b 231 0 308 35 274 0 z m 386 0 b 308 77 343 0 308 35 b 386 154 308 120 343 154 b 463 77 428 154 463 119 b 386 0 463 35 428 0 z m 540 0 b 463 77 497 0 463 35 b 540 154 463 120 497 154 b 617 77 583 154 617 119 b 540 0 617 35 583 0 z m 77 154 b 0 231 35 154 0 189 b 77 308 0 274 35 308 b 154 231 120 308 154 274 b 77 154 154 189 119 154 z m 694 154 b 617 231 652 154 617 189 b 694 308 617 274 652 308 b 772 231 737 308 772 274 b 694 154 772 189 737 154 z m 77 308 b 0 386 35 308 0 343 b 77 463 0 428 35 463 b 154 386 120 463 154 428 b 77 308 154 343 119 308 z m 694 308 b 617 386 652 308 617 343 b 694 463 617 428 652 463 b 772 386 737 463 772 428 b 694 308 772 343 737 308 z m 231 463 b 154 540 189 463 154 497 b 231 617 154 583 189 617 b 308 540 274 617 308 583 b 231 463 308 497 274 463 z m 386 463 b 308 540 343 463 308 497 b 386 617 308 583 343 617 b 463 540 428 617 463 583 b 386 463 463 497 428 463 z m 540 463 b 463 540 497 463 463 497 b 540 617 463 583 497 617 b 617 540 583 617 617 583 b 540 463 617 497 583 463 z m 77 617 b 0 694 35 617 0 652 b 77 772 0 737 35 772 b 154 694 120 772 154 737 b 77 617 154 652 119 617 z m 694 617 b 617 694 652 617 617 652 b 694 772 617 737 652 772 b 772 694 737 772 772 737 b 694 617 772 652 737 617 z m 77 772 b 0 849 35 772 0 806 b 77 926 0 892 35 926 b 154 849 120 926 154 892 b 77 772 154 806 119 772 z m 694 772 b 617 849 652 772 617 806 b 694 926 617 892 652 926 b 772 849 737 926 772 892 b 694 772 772 806 737 772 z m 231 926 b 154 1003 189 926 154 960 b 231 1081 154 1046 189 1081 b 308 1003 274 1081 308 1046 b 231 926 308 960 274 926 z m 386 926 b 308 1003 343 926 308 960 b 386 1081 308 1046 343 1081 b 463 1003 428 1081 463 1046 b 386 926 463 960 428 926 z m 540 926 b 463 1003 497 926 463 960 b 540 1081 463 1046 497 1081 b 617 1003 583 1081 617 1046 b 540 926 617 960 583 926 z "},"9":{"ha":926,"x_min":0,"x_max":0,"o":"m 231 0 b 154 77 189 0 154 35 b 231 154 154 120 189 154 b 308 77 274 154 308 119 b 231 0 308 35 274 0 z m 386 0 b 308 77 343 0 308 35 b 386 154 308 120 343 154 b 463 77 428 154 463 119 b 386 0 463 35 428 0 z m 540 154 b 463 231 497 154 463 189 b 540 308 463 274 497 308 b 617 231 583 308 617 274 b 540 154 617 189 583 154 z m 694 308 b 617 386 652 308 617 343 b 694 463 617 428 652 463 b 772 386 737 463 772 428 b 694 308 772 343 737 308 z m 231 463 b 154 540 189 463 154 497 b 231 617 154 583 189 617 b 308 540 274 617 308 583 b 231 463 308 497 274 463 z m 386 463 b 308 540 343 463 308 497 b 386 617 308 583 343 617 b 463 540 428 617 463 583 b 386 463 463 497 428 463 z m 540 463 b 463 540 497 463 463 497 b 540 617 463 583 497 617 b 617 540 583 617 617 583 b 540 463 617 497 583 463 z m 694 463 b 617 540 652 463 617 497 b 694 617 617 583 652 617 b 772 540 737 617 772 583 b 694 463 772 497 737 463 z m 77 617 b 0 694 35 617 0 652 b 77 772 0 737 35 772 b 154 694 120 772 154 737 b 77 617 154 652 119 617 z m 694 617 b 617 694 652 617 617 652 b 694 772 617 737 652 772 b 772 694 737 772 772 737 b 694 617 772 652 737 617 z m 77 772 b 0 849 35 772 0 806 b 77 926 0 892 35 926 b 154 849 120 926 154 892 b 77 772 154 806 119 772 z m 694 772 b 617 849 652 772 617 806 b 694 926 617 892 652 926 b 772 849 737 926 772 892 b 694 772 772 806 737 772 z m 231 926 b 154 1003 189 926 154 960 b 231 1081 154 1046 189 1081 b 308 1003 274 1081 308 1046 b 231 926 308 960 274 926 z m 386 926 b 308 1003 343 926 308 960 b 386 1081 308 1046 343 1081 b 463 1003 428 1081 463 1046 b 386 926 463 960 428 926 z m 540 926 b 463 1003 497 926 463 960 b 540 1081 463 1046 497 1081 b 617 1003 583 1081 617 1046 b 540 926 617 960 583 926 z "}," ":{"ha":694,"x_min":0,"x_max":0,"o":""},"!":{"ha":463,"x_min":0,"x_max":0,"o":"m 231 0 b 154 77 189 0 154 35 b 231 154 154 120 189 154 b 308 77 274 154 308 119 b 231 0 308 35 274 0 z m 231 154 b 154 231 189 154 154 189 b 231 308 154 274 189 308 b 308 231 274 308 308 274 b 231 154 308 189 274 154 z m 231 463 b 154 540 189 463 154 497 b 231 617 154 583 189 617 b 308 540 274 617 308 583 b 231 463 308 497 274 463 z m 231 617 b 154 694 189 617 154 652 b 231 772 154 737 189 772 b 308 694 274 772 308 737 b 231 617 308 652 274 617 z m 231 772 b 154 849 189 772 154 806 b 231 926 154 892 189 926 b 308 849 274 926 308 892 b 231 772 308 806 274 772 z m 231 926 b 154 1003 189 926 154 960 b 231 1081 154 1046 189 1081 b 308 1003 274 1081 308 1046 b 231 926 308 960 274 926 z "},"\"":{"ha":463,"x_min":0,"x_max":0,"o":"m 77 772 b 0 849 35 772 0 806 b 77 926 0 892 35 926 b 154 849 120 926 154 892 b 77 772 154 806 119 772 z m 231 772 b 154 849 189 772 154 806 b 231 926 154 892 189 926 b 308 849 274 926 308 892 b 231 772 308 806 274 772 z m 77 926 b 0 1003 35 926 0 960 b 77 1081 0 1046 35 1081 b 154 1003 120 1081 154 1046 b 77 926 154 960 119 926 z m 231 926 b 154 1003 189 926 154 960 b 231 1081 154 1046 189 1081 b 308 1003 274 1081 308 1046 b 231 926 308 960 274 926 z m 77 1081 b 0 1158 35 1081 0 1115 b 77 1235 0 1200 35 1235 b 154 1158 120 1235 154 1200 b 77 1081 154 1115 119 1081 z m 231 1081 b 154 1158 189 1081 154 1115 b 231 1235 154 1200 189 1235 b 308 1158 274 1235 308 1200 b 231 1081 308 1115 274 1081 z "},"#":{"ha":926,"x_min":0,"x_max":0,"o":"m 231 0 b 154 77 189 0 154 35 b 231 154 154 120 189 154 b 308 77 274 154 308 119 b 231 0 308 35 274 0 z m 540 0 b 463 77 497 0 463 35 b 540 154 463 120 497 154 b 617 77 583 154 617 119 b 540 0 617 35 583 0 z m 231 154 b 154 231 189 154 154 189 b 231 308 154 274 189 308 b 308 231 274 308 308 274 b 231 154 308 189 274 154 z m 540 154 b 463 231 497 154 463 189 b 540 308 463 274 497 308 b 617 231 583 308 617 274 b 540 154 617 189 583 154 z m 77 308 b 0 386 35 308 0 343 b 77 463 0 428 35 463 b 154 386 120 463 154 428 b 77 308 154 343 119 308 z m 231 308 b 154 386 189 308 154 343 b 231 463 154 428 189 463 b 308 386 274 463 308 428 b 231 308 308 343 274 308 z m 386 308 b 308 386 343 308 308 343 b 386 463 308 428 343 463 b 463 386 428 463 463 428 b 386 308 463 343 428 308 z m 540 308 b 463 386 497 308 463 343 b 540 463 463 428 497 463 b 617 386 583 463 617 428 b 540 308 617 343 583 308 z m 694 308 b 617 386 652 308 617 343 b 694 463 617 428 652 463 b 772 386 737 463 772 428 b 694 308 772 343 737 308 z m 231 463 b 154 540 189 463 154 497 b 231 617 154 583 189 617 b 308 540 274 617 308 583 b 231 463 308 497 274 463 z m 540 463 b 463 540 497 463 463 497 b 540 617 463 583 497 617 b 617 540 583 617 617 583 b 540 463 617 497 583 463 z m 77 617 b 0 694 35 617 0 652 b 77 772 0 737 35 772 b 154 694 120 772 154 737 b 77 617 154 652 119 617 z m 231 617 b 154 694 189 617 154 652 b 231 772 154 737 189 772 b 308 694 274 772 308 737 b 231 617 308 652 274 617 z m 386 617 b 308 694 343 617 308 652 b 386 772 308 737 343 772 b 463 694 428 772 463 737 b 386 617 463 652 428 617 z m 540 617 b 463 694 497 617 463 652 b 540 772 463 737 497 772 b 617 694 583 772 617 737 b 540 617 617 652 583 617 z m 694 617 b 617 694 652 617 617 652 b 694 772 617 737 652 772 b 772 694 737 772 772 737 b 694 617 772 652 737 617 z m 231 772 b 154 849 189 772 154 806 b 231 926 154 892 189 926 b 308 849 274 926 308 892 b 231 772 308 806 274 772 z m 540 772 b 463 849 497 772 463 806 b 540 926 463 892 497 926 b 617 849 583 926 617 892 b 540 772 617 806 583 772 z m 231 926 b 154 1003 189 926 154 960 b 231 1081 154 1046 189 1081 b 308 1003 274 1081 308 1046 b 231 926 308 960 274 926 z m 540 926 b 463 1003 497 926 463 960 b 540 1081 463 1046 497 1081 b 617 1003 583 1081 617 1046 b 540 926 617 960 583 926 z "},"$":{"ha":926,"x_min":0,"x_max":0,"o":"m 386 -154 b 308 -77 343 -154 308 -119 b 386 0 308 -35 343 0 b 463 -77 428 0 463 -35 b 386 -154 463 -120 428 -154 z m 231 0 b 154 77 189 0 154 35 b 231 154 154 120 189 154 b 308 77 274 154 308 119 b 231 0 308 35 274 0 z m 386 0 b 308 77 343 0 308 35 b 386 154 308 120 343 154 b 463 77 428 154 463 119 b 386 0 463 35 428 0 z m 540 0 b 463 77 497 0 463 35 b 540 154 463 120 497 154 b 617 77 583 154 617 119 b 540 0 617 35 583 0 z m 77 77 b 0 154 35 77 0 112 b 77 231 0 197 35 231 b 154 154 120 231 154 197 b 77 77 154 112 119 77 z m 386 154 b 308 231 343 154 308 189 b 386 308 308 274 343 308 b 463 231 428 308 463 274 b 386 154 463 189 428 154 z m 694 154 b 617 231 652 154 617 189 b 694 308 617 274 652 308 b 772 231 737 308 772 274 b 694 154 772 189 737 154 z m 386 308 b 308 386 343 308 308 343 b 386 463 308 428 343 463 b 463 386 428 463 463 428 b 386 308 463 343 428 308 z m 694 308 b 617 386 652 308 617 343 b 694 463 617 428 652 463 b 772 386 737 463 772 428 b 694 308 772 343 737 308 z m 231 463 b 154 540 189 463 154 497 b 231 617 154 583 189 617 b 308 540 274 617 308 583 b 231 463 308 497 274 463 z m 386 463 b 308 540 343 463 308 497 b 386 617 308 583 343 617 b 463 540 428 617 463 583 b 386 463 463 497 428 463 z m 540 463 b 463 540 497 463 463 497 b 540 617 463 583 497 617 b 617 540 583 617 617 583 b 540 463 617 497 583 463 z m 77 617 b 0 694 35 617 0 652 b 77 772 0 737 35 772 b 154 694 120 772 154 737 b 77 617 154 652 119 617 z m 386 617 b 308 694 343 617 308 652 b 386 772 308 737 343 772 b 463 694 428 772 463 737 b 386 617 463 652 428 617 z m 77 772 b 0 849 35 772 0 806 b 77 926 0 892 35 926 b 154 849 120 926 154 892 b 77 772 154 806 119 772 z m 386 772 b 308 849 343 772 308 806 b 386 926 308 892 343 926 b 463 849 428 926 463 892 b 386 772 463 806 428 772 z m 694 772 b 617 849 652 772 617 806 b 694 926 617 892 652 926 b 772 849 737 926 772 892 b 694 772 772 806 737 772 z m 231 926 b 154 1003 189 926 154 960 b 231 1081 154 1046 189 1081 b 308 1003 274 1081 308 1046 b 231 926 308 960 274 926 z m 386 926 b 308 1003 343 926 308 960 b 386 1081 308 1046 343 1081 b 463 1003 428 1081 463 1046 b 386 926 463 960 428 926 z m 540 926 b 463 1003 497 926 463 960 b 540 1081 463 1046 497 1081 b 617 1003 583 1081 617 1046 b 540 926 617 960 583 926 z m 386 1081 b 308 1158 343 1081 308 1115 b 386 1235 308 1200 343 1235 b 463 1158 428 1235 463 1200 b 386 1081 463 1115 428 1081 z "},"%":{"ha":1543,"x_min":0,"x_max":0,"o":"m 231 0 b 154 77 189 0 154 35 b 231 154 154 120 189 154 b 308 77 274 154 308 119 b 231 0 308 35 274 0 z m 1003 0 b 926 77 960 0 926 35 b 1003 154 926 120 960 154 b 1081 77 1046 154 1081 119 b 1003 0 1081 35 1046 0 z m 1158 0 b 1081 77 1115 0 1081 35 b 1158 154 1081 120 1115 154 b 1235 77 1200 154 1235 119 b 1158 0 1235 35 1200 0 z m 386 154 b 308 231 343 154 308 189 b 386 308 308 274 343 308 b 463 231 428 308 463 274 b 386 154 463 189 428 154 z m 849 154 b 772 231 806 154 772 189 b 849 308 772 274 806 308 b 926 231 892 308 926 274 b 849 154 926 189 892 154 z m 1312 154 b 1235 231 1269 154 1235 189 b 1312 308 1235 274 1269 308 b 1389 231 1354 308 1389 274 b 1312 154 1389 189 1354 154 z m 540 308 b 463 386 497 308 463 343 b 540 463 463 428 497 463 b 617 386 583 463 617 428 b 540 308 617 343 583 308 z m 849 308 b 772 386 806 308 772 343 b 849 463 772 428 806 463 b 926 386 892 463 926 428 b 849 308 926 343 892 308 z m 1312 308 b 1235 386 1269 308 1235 343 b 1312 463 1235 428 1269 463 b 1389 386 1354 463 1389 428 b 1312 308 1389 343 1354 308 z m 231 463 b 154 540 189 463 154 497 b 231 617 154 583 189 617 b 308 540 274 617 308 583 b 231 463 308 497 274 463 z m 386 463 b 308 540 343 463 308 497 b 386 617 308 583 343 617 b 463 540 428 617 463 583 b 386 463 463 497 428 463 z m 694 463 b 617 540 652 463 617 497 b 694 617 617 583 652 617 b 772 540 737 617 772 583 b 694 463 772 497 737 463 z m 1003 463 b 926 540 960 463 926 497 b 1003 617 926 583 960 617 b 1081 540 1046 617 1081 583 b 1003 463 1081 497 1046 463 z m 1158 463 b 1081 540 1115 463 1081 497 b 1158 617 1081 583 1115 617 b 1235 540 1200 617 1235 583 b 1158 463 1235 497 1200 463 z m 77 617 b 0 694 35 617 0 652 b 77 772 0 737 35 772 b 154 694 120 772 154 737 b 77 617 154 652 119 617 z m 540 617 b 463 694 497 617 463 652 b 540 772 463 737 497 772 b 617 694 583 772 617 737 b 540 617 617 652 583 617 z m 849 617 b 772 694 806 617 772 652 b 849 772 772 737 806 772 b 926 694 892 772 926 737 b 849 617 926 652 892 617 z m 77 772 b 0 849 35 772 0 806 b 77 926 0 892 35 926 b 154 849 120 926 154 892 b 77 772 154 806 119 772 z m 540 772 b 463 849 497 772 463 806 b 540 926 463 892 497 926 b 617 849 583 926 617 892 b 540 772 617 806 583 772 z m 1003 772 b 926 849 960 772 926 806 b 1003 926 926 892 960 926 b 1081 849 1046 926 1081 892 b 1003 772 1081 806 1046 772 z m 231 926 b 154 1003 189 926 154 960 b 231 1081 154 1046 189 1081 b 308 1003 274 1081 308 1046 b 231 926 308 960 274 926 z m 386 926 b 308 1003 343 926 308 960 b 386 1081 308 1046 343 1081 b 463 1003 428 1081 463 1046 b 386 926 463 960 428 926 z m 1158 926 b 1081 1003 1115 926 1081 960 b 1158 1081 1081 1046 1115 1081 b 1235 1003 1200 1081 1235 1046 b 1158 926 1235 960 1200 926 z "},"&":{"ha":1080,"x_min":0,"x_max":0,"o":"m 231 0 b 154 77 189 0 154 35 b 231 154 154 120 189 154 b 308 77 274 154 308 119 b 231 0 308 35 274 0 z m 386 0 b 308 77 343 0 308 35 b 386 154 308 120 343 154 b 463 77 428 154 463 119 b 386 0 463 35 428 0 z m 540 0 b 463 77 497 0 463 35 b 540 154 463 120 497 154 b 617 77 583 154 617 119 b 540 0 617 35 583 0 z m 849 0 b 772 77 806 0 772 35 b 849 154 772 120 806 154 b 926 77 892 154 926 119 b 849 0 926 35 892 0 z m 77 154 b 0 231 35 154 0 189 b 77 308 0 274 35 308 b 154 231 120 308 154 274 b 77 154 154 189 119 154 z m 694 154 b 617 231 652 154 617 189 b 694 308 617 274 652 308 b 772 231 737 308 772 274 b 694 154 772 189 737 154 z m 77 308 b 0 386 35 308 0 343 b 77 463 0 428 35 463 b 154 386 120 463 154 428 b 77 308 154 343 119 308 z m 540 308 b 463 386 497 308 463 343 b 540 463 463 428 497 463 b 617 386 583 463 617 428 b 540 308 617 343 583 308 z m 849 308 b 772 386 806 308 772 343 b 849 463 772 428 806 463 b 926 386 892 463 926 428 b 849 308 926 343 892 308 z m 231 463 b 154 540 189 463 154 497 b 231 617 154 583 189 617 b 308 540 274 617 308 583 b 231 463 308 497 274 463 z m 386 463 b 308 540 343 463 308 497 b 386 617 308 583 343 617 b 463 540 428 617 463 583 b 386 463 463 497 428 463 z m 77 617 b 0 694 35 617 0 652 b 77 772 0 737 35 772 b 154 694 120 772 154 737 b 77 617 154 652 119 617 z m 540 617 b 463 694 497 617 463 652 b 540 772 463 737 497 772 b 617 694 583 772 617 737 b 540 617 617 652 583 617 z m 77 772 b 0 849 35 772 0 806 b 77 926 0 892 35 926 b 154 849 120 926 154 892 b 77 772 154 806 119 772 z m 540 772 b 463 849 497 772 463 806 b 540 926 463 892 497 926 b 617 849 583 926 617 892 b 540 772 617 806 583 772 z m 231 926 b 154 1003 189 926 154 960 b 231 1081 154 1046 189 1081 b 308 1003 274 1081 308 1046 b 231 926 308 960 274 926 z m 386 926 b 308 1003 343 926 308 960 b 386 1081 308 1046 343 1081 b 463 1003 428 1081 463 1046 b 386 926 463 960 428 926 z "},"'":{"ha":463,"x_min":0,"x_max":0,"o":"m 77 772 b 0 849 35 772 0 806 b 77 926 0 892 35 926 b 154 849 120 926 154 892 b 77 772 154 806 119 772 z m 231 926 b 154 1003 189 926 154 960 b 231 1081 154 1046 189 1081 b 308 1003 274 1081 308 1046 b 231 926 308 960 274 926 z m 231 1081 b 154 1158 189 1081 154 1115 b 231 1235 154 1200 189 1235 b 308 1158 274 1235 308 1200 b 231 1081 308 1115 274 1081 z "},"(":{"ha":617,"x_min":0,"x_max":0,"o":"m 231 0 b 154 77 189 0 154 35 b 231 154 154 120 189 154 b 308 77 274 154 308 119 b 231 0 308 35 274 0 z m 386 0 b 308 77 343 0 308 35 b 386 154 308 120 343 154 b 463 77 428 154 463 119 b 386 0 463 35 428 0 z m 77 154 b 0 231 35 154 0 189 b 77 308 0 274 35 308 b 154 231 120 308 154 274 b 77 154 154 189 119 154 z m 77 308 b 0 386 35 308 0 343 b 77 463 0 428 35 463 b 154 386 120 463 154 428 b 77 308 154 343 119 308 z m 77 463 b 0 540 35 463 0 497 b 77 617 0 583 35 617 b 154 540 120 617 154 583 b 77 463 154 497 119 463 z m 77 617 b 0 694 35 617 0 652 b 77 772 0 737 35 772 b 154 694 120 772 154 737 b 77 617 154 652 119 617 z m 77 772 b 0 849 35 772 0 806 b 77 926 0 892 35 926 b 154 849 120 926 154 892 b 77 772 154 806 119 772 z m 231 926 b 154 1003 189 926 154 960 b 231 1081 154 1046 189 1081 b 308 1003 274 1081 308 1046 b 231 926 308 960 274 926 z m 386 926 b 308 1003 343 926 308 960 b 386 1081 308 1046 343 1081 b 463 1003 428 1081 463 1046 b 386 926 463 960 428 926 z "},")":{"ha":617,"x_min":0,"x_max":0,"o":"m 77 0 b 0 77 35 0 0 35 b 77 154 0 120 35 154 b 154 77 120 154 154 119 b 77 0 154 35 119 0 z m 231 0 b 154 77 189 0 154 35 b 231 154 154 120 189 154 b 308 77 274 154 308 119 b 231 0 308 35 274 0 z m 386 154 b 308 231 343 154 308 189 b 386 308 308 274 343 308 b 463 231 428 308 463 274 b 386 154 463 189 428 154 z m 386 308 b 308 386 343 308 308 343 b 386 463 308 428 343 463 b 463 386 428 463 463 428 b 386 308 463 343 428 308 z m 386 463 b 308 540 343 463 308 497 b 386 617 308 583 343 617 b 463 540 428 617 463 583 b 386 463 463 497 428 463 z m 386 617 b 308 694 343 617 308 652 b 386 772 308 737 343 772 b 463 694 428 772 463 737 b 386 617 463 652 428 617 z m 386 772 b 308 849 343 772 308 806 b 386 926 308 892 343 926 b 463 849 428 926 463 892 b 386 772 463 806 428 772 z m 77 926 b 0 1003 35 926 0 960 b 77 1081 0 1046 35 1081 b 154 1003 120 1081 154 1046 b 77 926 154 960 119 926 z m 231 926 b 154 1003 189 926 154 960 b 231 1081 154 1046 189 1081 b 308 1003 274 1081 308 1046 b 231 926 308 960 274 926 z "},"*":{"ha":617,"x_min":0,"x_max":0,"o":"m 231 617 b 154 694 189 617 154 652 b 231 772 154 737 189 772 b 308 694 274 772 308 737 b 231 617 308 652 274 617 z m 77 772 b 0 849 35 772 0 806 b 77 926 0 892 35 926 b 154 849 120 926 154 892 b 77 772 154 806 119 772 z m 231 772 b 154 849 189 772 154 806 b 231 926 154 892 189 926 b 308 849 274 926 308 892 b 231 772 308 806 274 772 z m 386 772 b 308 849 343 772 308 806 b 386 926 308 892 343 926 b 463 849 428 926 463 892 b 386 772 463 806 428 772 z m 231 926 b 154 1003 189 926 154 960 b 231 1081 154 1046 189 1081 b 308 1003 274 1081 308 1046 b 231 926 308 960 274 926 z "},"+":{"ha":926,"x_min":0,"x_max":0,"o":"m 386 154 b 308 231 343 154 308 189 b 386 308 308 274 343 308 b 463 231 428 308 463 274 b 386 154 463 189 428 154 z m 386 308 b 308 386 343 308 308 343 b 386 463 308 428 343 463 b 463 386 428 463 463 428 b 386 308 463 343 428 308 z m 77 463 b 0 540 35 463 0 497 b 77 617 0 583 35 617 b 154 540 120 617 154 583 b 77 463 154 497 119 463 z m 231 463 b 154 540 189 463 154 497 b 231 617 154 583 189 617 b 308 540 274 617 308 583 b 231 463 308 497 274 463 z m 386 463 b 308 540 343 463 308 497 b 386 617 308 583 343 617 b 463 540 428 617 463 583 b 386 463 463 497 428 463 z m 540 463 b 463 540 497 463 463 497 b 540 617 463 583 497 617 b 617 540 583 617 617 583 b 540 463 617 497 583 463 z m 694 463 b 617 540 652 463 617 497 b 694 617 617 583 652 617 b 772 540 737 617 772 583 b 694 463 772 497 737 463 z m 386 617 b 308 694 343 617 308 652 b 386 772 308 737 343 772 b 463 694 428 772 463 737 b 386 617 463 652 428 617 z m 386 772 b 308 849 343 772 308 806 b 386 926 308 892 343 926 b 463 849 428 926 463 892 b 386 772 463 806 428 772 z "},",":{"ha":463,"x_min":0,"x_max":0,"o":"m 77 -154 b 0 -77 35 -154 0 -119 b 77 0 0 -35 35 0 b 154 -77 120 0 154 -35 b 77 -154 154 -120 119 -154 z m 231 0 b 154 77 189 0 154 35 b 231 154 154 120 189 154 b 308 77 274 154 308 119 b 231 0 308 35 274 0 z "},"-":{"ha":617,"x_min":0,"x_max":0,"o":"m 77 463 b 0 540 35 463 0 497 b 77 617 0 583 35 617 b 154 540 120 617 154 583 b 77 463 154 497 119 463 z m 231 463 b 154 540 189 463 154 497 b 231 617 154 583 189 617 b 308 540 274 617 308 583 b 231 463 308 497 274 463 z m 386 463 b 308 540 343 463 308 497 b 386 617 308 583 343 617 b 463 540 428 617 463 583 b 386 463 463 497 428 463 z "},".":{"ha":463,"x_min":0,"x_max":0,"o":"m 77 0 b 0 77 35 0 0 35 b 77 154 0 120 35 154 b 154 77 120 154 154 119 b 77 0 154 35 119 0 z m 231 0 b 154 77 189 0 154 35 b 231 154 154 120 189 154 b 308 77 274 154 308 119 b 231 0 308 35 274 0 z m 77 154 b 0 231 35 154 0 189 b 77 308 0 274 35 308 b 154 231 120 308 154 274 b 77 154 154 189 119 154 z m 231 154 b 154 231 189 154 154 189 b 231 308 154 274 189 308 b 308 231 274 308 308 274 b 231 154 308 189 274 154 z "},"/":{"ha":926,"x_min":0,"x_max":0,"o":"m 77 0 b 0 77 35 0 0 35 b 77 154 0 120 35 154 b 154 77 120 154 154 119 b 77 0 154 35 119 0 z m 231 231 b 154 308 189 231 154 266 b 231 386 154 351 189 386 b 308 308 274 386 308 351 b 231 231 308 266 274 231 z m 386 463 b 308 540 343 463 308 497 b 386 617 308 583 343 617 b 463 540 428 617 463 583 b 386 463 463 497 428 463 z m 540 694 b 463 772 497 694 463 729 b 540 849 463 815 497 849 b 617 772 583 849 617 814 b 540 694 617 729 583 694 z m 694 926 b 617 1003 652 926 617 960 b 694 1081 617 1046 652 1081 b 772 1003 737 1081 772 1046 b 694 926 772 960 737 926 z "},":":{"ha":308,"x_min":0,"x_max":0,"o":"m 77 0 b 0 77 35 0 0 35 b 77 154 0 120 35 154 b 154 77 120 154 154 119 b 77 0 154 35 119 0 z m 77 154 b 0 231 35 154 0 189 b 77 308 0 274 35 308 b 154 231 120 308 154 274 b 77 154 154 189 119 154 z m 77 463 b 0 540 35 463 0 497 b 77 617 0 583 35 617 b 154 540 120 617 154 583 b 77 463 154 497 119 463 z m 77 617 b 0 694 35 617 0 652 b 77 772 0 737 35 772 b 154 694 120 772 154 737 b 77 617 154 652 119 617 z "},";":{"ha":463,"x_min":0,"x_max":0,"o":"m 77 -154 b 0 -77 35 -154 0 -119 b 77 0 0 -35 35 0 b 154 -77 120 0 154 -35 b 77 -154 154 -120 119 -154 z m 231 0 b 154 77 189 0 154 35 b 231 154 154 120 189 154 b 308 77 274 154 308 119 b 231 0 308 35 274 0 z m 231 154 b 154 231 189 154 154 189 b 231 308 154 274 189 308 b 308 231 274 308 308 274 b 231 154 308 189 274 154 z m 231 463 b 154 540 189 463 154 497 b 231 617 154 583 189 617 b 308 540 274 617 308 583 b 231 463 308 497 274 463 z m 231 617 b 154 694 189 617 154 652 b 231 772 154 737 189 772 b 308 694 274 772 308 737 b 231 617 308 652 274 617 z "},"<":{"ha":617,"x_min":0,"x_max":0,"o":"m 386 154 b 308 231 343 154 308 189 b 386 308 308 274 343 308 b 463 231 428 308 463 274 b 386 154 463 189 428 154 z m 231 308 b 154 386 189 308 154 343 b 231 463 154 428 189 463 b 308 386 274 463 308 428 b 231 308 308 343 274 308 z m 77 463 b 0 540 35 463 0 497 b 77 617 0 583 35 617 b 154 540 120 617 154 583 b 77 463 154 497 119 463 z m 231 617 b 154 694 189 617 154 652 b 231 772 154 737 189 772 b 308 694 274 772 308 737 b 231 617 308 652 274 617 z m 386 772 b 308 849 343 772 308 806 b 386 926 308 892 343 926 b 463 849 428 926 463 892 b 386 772 463 806 428 772 z "},"=":{"ha":926,"x_min":0,"x_max":0,"o":"m 77 308 b 0 386 35 308 0 343 b 77 463 0 428 35 463 b 154 386 120 463 154 428 b 77 308 154 343 119 308 z m 231 308 b 154 386 189 308 154 343 b 231 463 154 428 189 463 b 308 386 274 463 308 428 b 231 308 308 343 274 308 z m 386 308 b 308 386 343 308 308 343 b 386 463 308 428 343 463 b 463 386 428 463 463 428 b 386 308 463 343 428 308 z m 540 308 b 463 386 497 308 463 343 b 540 463 463 428 497 463 b 617 386 583 463 617 428 b 540 308 617 343 583 308 z m 694 308 b 617 386 652 308 617 343 b 694 463 617 428 652 463 b 772 386 737 463 772 428 b 694 308 772 343 737 308 z m 77 617 b 0 694 35 617 0 652 b 77 772 0 737 35 772 b 154 694 120 772 154 737 b 77 617 154 652 119 617 z m 231 617 b 154 694 189 617 154 652 b 231 772 154 737 189 772 b 308 694 274 772 308 737 b 231 617 308 652 274 617 z m 386 617 b 308 694 343 617 308 652 b 386 772 308 737 343 772 b 463 694 428 772 463 737 b 386 617 463 652 428 617 z m 540 617 b 463 694 497 617 463 652 b 540 772 463 737 497 772 b 617 694 583 772 617 737 b 540 617 617 652 583 617 z m 694 617 b 617 694 652 617 617 652 b 694 772 617 737 652 772 b 772 694 737 772 772 737 b 694 617 772 652 737 617 z "},">":{"ha":617,"x_min":0,"x_max":0,"o":"m 77 154 b 0 231 35 154 0 189 b 77 308 0 274 35 308 b 154 231 120 308 154 274 b 77 154 154 189 119 154 z m 231 308 b 154 386 189 308 154 343 b 231 463 154 428 189 463 b 308 386 274 463 308 428 b 231 308 308 343 274 308 z m 386 463 b 308 540 343 463 308 497 b 386 617 308 583 343 617 b 463 540 428 617 463 583 b 386 463 463 497 428 463 z m 231 617 b 154 694 189 617 154 652 b 231 772 154 737 189 772 b 308 694 274 772 308 737 b 231 617 308 652 274 617 z m 77 772 b 0 849 35 772 0 806 b 77 926 0 892 35 926 b 154 849 120 926 154 892 b 77 772 154 806 119 772 z "},"?":{"ha":926,"x_min":0,"x_max":0,"o":"m 386 0 b 308 77 343 0 308 35 b 386 154 308 120 343 154 b 463 77 428 154 463 119 b 386 0 463 35 428 0 z m 386 154 b 308 231 343 154 308 189 b 386 308 308 274 343 308 b 463 231 428 308 463 274 b 386 154 463 189 428 154 z m 540 463 b 463 540 497 463 463 497 b 540 617 463 583 497 617 b 617 540 583 617 617 583 b 540 463 617 497 583 463 z m 694 617 b 617 694 652 617 617 652 b 694 772 617 737 652 772 b 772 694 737 772 772 737 b 694 617 772 652 737 617 z m 77 772 b 0 849 35 772 0 806 b 77 926 0 892 35 926 b 154 849 120 926 154 892 b 77 772 154 806 119 772 z m 694 772 b 617 849 652 772 617 806 b 694 926 617 892 652 926 b 772 849 737 926 772 892 b 694 772 772 806 737 772 z m 231 926 b 154 1003 189 926 154 960 b 231 1081 154 1046 189 1081 b 308 1003 274 1081 308 1046 b 231 926 308 960 274 926 z m 386 926 b 308 1003 343 926 308 960 b 386 1081 308 1046 343 1081 b 463 1003 428 1081 463 1046 b 386 926 463 960 428 926 z m 540 926 b 463 1003 497 926 463 960 b 540 1081 463 1046 497 1081 b 617 1003 583 1081 617 1046 b 540 926 617 960 583 926 z "},"@":{"ha":926,"x_min":0,"x_max":0,"o":"m 231 -154 b 154 -77 189 -154 154 -119 b 231 0 154 -35 189 0 b 308 -77 274 0 308 -35 b 231 -154 308 -120 274 -154 z m 386 -154 b 308 -77 343 -154 308 -119 b 386 0 308 -35 343 0 b 463 -77 428 0 463 -35 b 386 -154 463 -120 428 -154 z m 540 -154 b 463 -77 497 -154 463 -119 b 540 0 463 -35 497 0 b 617 -77 583 0 617 -35 b 540 -154 617 -120 583 -154 z m 77 0 b 0 77 35 0 0 35 b 77 154 0 120 35 154 b 154 77 120 154 154 119 b 77 0 154 35 119 0 z m 77 154 b 0 231 35 154 0 189 b 77 308 0 274 35 308 b 154 231 120 308 154 274 b 77 154 154 189 119 154 z m 386 154 b 308 231 343 154 308 189 b 386 308 308 274 343 308 b 463 231 428 308 463 274 b 386 154 463 189 428 154 z m 540 154 b 463 231 497 154 463 189 b 540 308 463 274 497 308 b 617 231 583 308 617 274 b 540 154 617 189 583 154 z m 694 154 b 617 231 652 154 617 189 b 694 308 617 274 652 308 b 772 231 737 308 772 274 b 694 154 772 189 737 154 z m 77 308 b 0 386 35 308 0 343 b 77 463 0 428 35 463 b 154 386 120 463 154 428 b 77 308 154 343 119 308 z m 386 308 b 308 386 343 308 308 343 b 386 463 308 428 343 463 b 463 386 428 463 463 428 b 386 308 463 343 428 308 z m 694 308 b 617 386 652 308 617 343 b 694 463 617 428 652 463 b 772 386 737 463 772 428 b 694 308 772 343 737 308 z m 77 463 b 0 540 35 463 0 497 b 77 617 0 583 35 617 b 154 540 120 617 154 583 b 77 463 154 497 119 463 z m 386 463 b 308 540 343 463 308 497 b 386 617 308 583 343 617 b 463 540 428 617 463 583 b 386 463 463 497 428 463 z m 694 463 b 617 540 652 463 617 497 b 694 617 617 583 652 617 b 772 540 737 617 772 583 b 694 463 772 497 737 463 z m 77 617 b 0 694 35 617 0 652 b 77 772 0 737 35 772 b 154 694 120 772 154 737 b 77 617 154 652 119 617 z m 694 617 b 617 694 652 617 617 652 b 694 772 617 737 652 772 b 772 694 737 772 772 737 b 694 617 772 652 737 617 z m 231 772 b 154 849 189 772 154 806 b 231 926 154 892 189 926 b 308 849 274 926 308 892 b 231 772 308 806 274 772 z m 386 772 b 308 849 343 772 308 806 b 386 926 308 892 343 926 b 463 849 428 926 463 892 b 386 772 463 806 428 772 z m 540 772 b 463 849 497 772 463 806 b 540 926 463 892 497 926 b 617 849 583 926 617 892 b 540 772 617 806 583 772 z "},"A":{"ha":926,"x_min":0,"x_max":0,"o":"m 77 0 b 0 77 35 0 0 35 b 77 154 0 120 35 154 b 154 77 120 154 154 119 b 77 0 154 35 119 0 z m 694 0 b 617 77 652 0 617 35 b 694 154 617 120 652 154 b 772 77 737 154 772 119 b 694 0 772 35 737 0 z m 77 154 b 0 231 35 154 0 189 b 77 308 0 274 35 308 b 154 231 120 308 154 274 b 77 154 154 189 119 154 z m 694 154 b 617 231 652 154 617 189 b 694 308 617 274 652 308 b 772 231 737 308 772 274 b 694 154 772 189 737 154 z m 77 308 b 0 386 35 308 0 343 b 77 463 0 428 35 463 b 154 386 120 463 154 428 b 77 308 154 343 119 308 z m 231 308 b 154 386 189 308 154 343 b 231 463 154 428 189 463 b 308 386 274 463 308 428 b 231 308 308 343 274 308 z m 386 308 b 308 386 343 308 308 343 b 386 463 308 428 343 463 b 463 386 428 463 463 428 b 386 308 463 343 428 308 z m 540 308 b 463 386 497 308 463 343 b 540 463 463 428 497 463 b 617 386 583 463 617 428 b 540 308 617 343 583 308 z m 694 308 b 617 386 652 308 617 343 b 694 463 617 428 652 463 b 772 386 737 463 772 428 b 694 308 772 343 737 308 z m 77 463 b 0 540 35 463 0 497 b 77 617 0 583 35 617 b 154 540 120 617 154 583 b 77 463 154 497 119 463 z m 694 463 b 617 540 652 463 617 497 b 694 617 617 583 652 617 b 772 540 737 617 772 583 b 694 463 772 497 737 463 z m 77 617 b 0 694 35 617 0 652 b 77 772 0 737 35 772 b 154 694 120 772 154 737 b 77 617 154 652 119 617 z m 694 617 b 617 694 652 617 617 652 b 694 772 617 737 652 772 b 772 694 737 772 772 737 b 694 617 772 652 737 617 z m 231 772 b 154 849 189 772 154 806 b 231 926 154 892 189 926 b 308 849 274 926 308 892 b 231 772 308 806 274 772 z m 540 772 b 463 849 497 772 463 806 b 540 926 463 892 497 926 b 617 849 583 926 617 892 b 540 772 617 806 583 772 z m 386 926 b 308 1003 343 926 308 960 b 386 1081 308 1046 343 1081 b 463 1003 428 1081 463 1046 b 386 926 463 960 428 926 z "},"B":{"ha":926,"x_min":0,"x_max":0,"o":"m 77 0 b 0 77 35 0 0 35 b 77 154 0 120 35 154 b 154 77 120 154 154 119 b 77 0 154 35 119 0 z m 231 0 b 154 77 189 0 154 35 b 231 154 154 120 189 154 b 308 77 274 154 308 119 b 231 0 308 35 274 0 z m 386 0 b 308 77 343 0 308 35 b 386 154 308 120 343 154 b 463 77 428 154 463 119 b 386 0 463 35 428 0 z m 540 0 b 463 77 497 0 463 35 b 540 154 463 120 497 154 b 617 77 583 154 617 119 b 540 0 617 35 583 0 z m 77 154 b 0 231 35 154 0 189 b 77 308 0 274 35 308 b 154 231 120 308 154 274 b 77 154 154 189 119 154 z m 694 154 b 617 231 652 154 617 189 b 694 308 617 274 652 308 b 772 231 737 308 772 274 b 694 154 772 189 737 154 z m 77 308 b 0 386 35 308 0 343 b 77 463 0 428 35 463 b 154 386 120 463 154 428 b 77 308 154 343 119 308 z m 694 308 b 617 386 652 308 617 343 b 694 463 617 428 652 463 b 772 386 737 463 772 428 b 694 308 772 343 737 308 z m 77 463 b 0 540 35 463 0 497 b 77 617 0 583 35 617 b 154 540 120 617 154 583 b 77 463 154 497 119 463 z m 231 463 b 154 540 189 463 154 497 b 231 617 154 583 189 617 b 308 540 274 617 308 583 b 231 463 308 497 274 463 z m 386 463 b 308 540 343 463 308 497 b 386 617 308 583 343 617 b 463 540 428 617 463 583 b 386 463 463 497 428 463 z m 540 463 b 463 540 497 463 463 497 b 540 617 463 583 497 617 b 617 540 583 617 617 583 b 540 463 617 497 583 463 z m 77 617 b 0 694 35 617 0 652 b 77 772 0 737 35 772 b 154 694 120 772 154 737 b 77 617 154 652 119 617 z m 694 617 b 617 694 652 617 617 652 b 694 772 617 737 652 772 b 772 694 737 772 772 737 b 694 617 772 652 737 617 z m 77 772 b 0 849 35 772 0 806 b 77 926 0 892 35 926 b 154 849 120 926 154 892 b 77 772 154 806 119 772 z m 694 772 b 617 849 652 772 617 806 b 694 926 617 892 652 926 b 772 849 737 926 772 892 b 694 772 772 806 737 772 z m 77 926 b 0 1003 35 926 0 960 b 77 1081 0 1046 35 1081 b 154 1003 120 1081 154 1046 b 77 926 154 960 119 926 z m 231 926 b 154 1003 189 926 154 960 b 231 1081 154 1046 189 1081 b 308 1003 274 1081 308 1046 b 231 926 308 960 274 926 z m 386 926 b 308 1003 343 926 308 960 b 386 1081 308 1046 343 1081 b 463 1003 428 1081 463 1046 b 386 926 463 960 428 926 z m 540 926 b 463 1003 497 926 463 960 b 540 1081 463 1046 497 1081 b 617 1003 583 1081 617 1046 b 540 926 617 960 583 926 z "},"C":{"ha":926,"x_min":0,"x_max":0,"o":"m 231 0 b 154 77 189 0 154 35 b 231 154 154 120 189 154 b 308 77 274 154 308 119 b 231 0 308 35 274 0 z m 386 0 b 308 77 343 0 308 35 b 386 154 308 120 343 154 b 463 77 428 154 463 119 b 386 0 463 35 428 0 z m 540 0 b 463 77 497 0 463 35 b 540 154 463 120 497 154 b 617 77 583 154 617 119 b 540 0 617 35 583 0 z m 77 154 b 0 231 35 154 0 189 b 77 308 0 274 35 308 b 154 231 120 308 154 274 b 77 154 154 189 119 154 z m 694 154 b 617 231 652 154 617 189 b 694 308 617 274 652 308 b 772 231 737 308 772 274 b 694 154 772 189 737 154 z m 77 308 b 0 386 35 308 0 343 b 77 463 0 428 35 463 b 154 386 120 463 154 428 b 77 308 154 343 119 308 z m 77 463 b 0 540 35 463 0 497 b 77 617 0 583 35 617 b 154 540 120 617 154 583 b 77 463 154 497 119 463 z m 77 617 b 0 694 35 617 0 652 b 77 772 0 737 35 772 b 154 694 120 772 154 737 b 77 617 154 652 119 617 z m 77 772 b 0 849 35 772 0 806 b 77 926 0 892 35 926 b 154 849 120 926 154 892 b 77 772 154 806 119 772 z m 694 772 b 617 849 652 772 617 806 b 694 926 617 892 652 926 b 772 849 737 926 772 892 b 694 772 772 806 737 772 z m 231 926 b 154 1003 189 926 154 960 b 231 1081 154 1046 189 1081 b 308 1003 274 1081 308 1046 b 231 926 308 960 274 926 z m 386 926 b 308 1003 343 926 308 960 b 386 1081 308 1046 343 1081 b 463 1003 428 1081 463 1046 b 386 926 463 960 428 926 z m 540 926 b 463 1003 497 926 463 960 b 540 1081 463 1046 497 1081 b 617 1003 583 1081 617 1046 b 540 926 617 960 583 926 z "},"D":{"ha":926,"x_min":0,"x_max":0,"o":"m 77 0 b 0 77 35 0 0 35 b 77 154 0 120 35 154 b 154 77 120 154 154 119 b 77 0 154 35 119 0 z m 231 0 b 154 77 189 0 154 35 b 231 154 154 120 189 154 b 308 77 274 154 308 119 b 231 0 308 35 274 0 z m 386 0 b 308 77 343 0 308 35 b 386 154 308 120 343 154 b 463 77 428 154 463 119 b 386 0 463 35 428 0 z m 540 0 b 463 77 497 0 463 35 b 540 154 463 120 497 154 b 617 77 583 154 617 119 b 540 0 617 35 583 0 z m 77 154 b 0 231 35 154 0 189 b 77 308 0 274 35 308 b 154 231 120 308 154 274 b 77 154 154 189 119 154 z m 694 154 b 617 231 652 154 617 189 b 694 308 617 274 652 308 b 772 231 737 308 772 274 b 694 154 772 189 737 154 z m 77 308 b 0 386 35 308 0 343 b 77 463 0 428 35 463 b 154 386 120 463 154 428 b 77 308 154 343 119 308 z m 694 308 b 617 386 652 308 617 343 b 694 463 617 428 652 463 b 772 386 737 463 772 428 b 694 308 772 343 737 308 z m 77 463 b 0 540 35 463 0 497 b 77 617 0 583 35 617 b 154 540 120 617 154 583 b 77 463 154 497 119 463 z m 694 463 b 617 540 652 463 617 497 b 694 617 617 583 652 617 b 772 540 737 617 772 583 b 694 463 772 497 737 463 z m 77 617 b 0 694 35 617 0 652 b 77 772 0 737 35 772 b 154 694 120 772 154 737 b 77 617 154 652 119 617 z m 694 617 b 617 694 652 617 617 652 b 694 772 617 737 652 772 b 772 694 737 772 772 737 b 694 617 772 652 737 617 z m 77 772 b 0 849 35 772 0 806 b 77 926 0 892 35 926 b 154 849 120 926 154 892 b 77 772 154 806 119 772 z m 694 772 b 617 849 652 772 617 806 b 694 926 617 892 652 926 b 772 849 737 926 772 892 b 694 772 772 806 737 772 z m 77 926 b 0 1003 35 926 0 960 b 77 1081 0 1046 35 1081 b 154 1003 120 1081 154 1046 b 77 926 154 960 119 926 z m 231 926 b 154 1003 189 926 154 960 b 231 1081 154 1046 189 1081 b 308 1003 274 1081 308 1046 b 231 926 308 960 274 926 z m 386 926 b 308 1003 343 926 308 960 b 386 1081 308 1046 343 1081 b 463 1003 428 1081 463 1046 b 386 926 463 960 428 926 z m 540 926 b 463 1003 497 926 463 960 b 540 1081 463 1046 497 1081 b 617 1003 583 1081 617 1046 b 540 926 617 960 583 926 z "},"E":{"ha":926,"x_min":0,"x_max":0,"o":"m 77 0 b 0 77 35 0 0 35 b 77 154 0 120 35 154 b 154 77 120 154 154 119 b 77 0 154 35 119 0 z m 231 0 b 154 77 189 0 154 35 b 231 154 154 120 189 154 b 308 77 274 154 308 119 b 231 0 308 35 274 0 z m 386 0 b 308 77 343 0 308 35 b 386 154 308 120 343 154 b 463 77 428 154 463 119 b 386 0 463 35 428 0 z m 540 0 b 463 77 497 0 463 35 b 540 154 463 120 497 154 b 617 77 583 154 617 119 b 540 0 617 35 583 0 z m 694 0 b 617 77 652 0 617 35 b 694 154 617 120 652 154 b 772 77 737 154 772 119 b 694 0 772 35 737 0 z m 77 154 b 0 231 35 154 0 189 b 77 308 0 274 35 308 b 154 231 120 308 154 274 b 77 154 154 189 119 154 z m 77 308 b 0 386 35 308 0 343 b 77 463 0 428 35 463 b 154 386 120 463 154 428 b 77 308 154 343 119 308 z m 77 463 b 0 540 35 463 0 497 b 77 617 0 583 35 617 b 154 540 120 617 154 583 b 77 463 154 497 119 463 z m 231 463 b 154 540 189 463 154 497 b 231 617 154 583 189 617 b 308 540 274 617 308 583 b 231 463 308 497 274 463 z m 386 463 b 308 540 343 463 308 497 b 386 617 308 583 343 617 b 463 540 428 617 463 583 b 386 463 463 497 428 463 z m 540 463 b 463 540 497 463 463 497 b 540 617 463 583 497 617 b 617 540 583 617 617 583 b 540 463 617 497 583 463 z m 77 617 b 0 694 35 617 0 652 b 77 772 0 737 35 772 b 154 694 120 772 154 737 b 77 617 154 652 119 617 z m 77 772 b 0 849 35 772 0 806 b 77 926 0 892 35 926 b 154 849 120 926 154 892 b 77 772 154 806 119 772 z m 77 926 b 0 1003 35 926 0 960 b 77 1081 0 1046 35 1081 b 154 1003 120 1081 154 1046 b 77 926 154 960 119 926 z m 231 926 b 154 1003 189 926 154 960 b 231 1081 154 1046 189 1081 b 308 1003 274 1081 308 1046 b 231 926 308 960 274 926 z m 386 926 b 308 1003 343 926 308 960 b 386 1081 308 1046 343 1081 b 463 1003 428 1081 463 1046 b 386 926 463 960 428 926 z m 540 926 b 463 1003 497 926 463 960 b 540 1081 463 1046 497 1081 b 617 1003 583 1081 617 1046 b 540 926 617 960 583 926 z m 694 926 b 617 1003 652 926 617 960 b 694 1081 617 1046 652 1081 b 772 1003 737 1081 772 1046 b 694 926 772 960 737 926 z "},"F":{"ha":926,"x_min":0,"x_max":0,"o":"m 77 0 b 0 77 35 0 0 35 b 77 154 0 120 35 154 b 154 77 120 154 154 119 b 77 0 154 35 119 0 z m 77 154 b 0 231 35 154 0 189 b 77 308 0 274 35 308 b 154 231 120 308 154 274 b 77 154 154 189 119 154 z m 77 308 b 0 386 35 308 0 343 b 77 463 0 428 35 463 b 154 386 120 463 154 428 b 77 308 154 343 119 308 z m 77 463 b 0 540 35 463 0 497 b 77 617 0 583 35 617 b 154 540 120 617 154 583 b 77 463 154 497 119 463 z m 231 463 b 154 540 189 463 154 497 b 231 617 154 583 189 617 b 308 540 274 617 308 583 b 231 463 308 497 274 463 z m 386 463 b 308 540 343 463 308 497 b 386 617 308 583 343 617 b 463 540 428 617 463 583 b 386 463 463 497 428 463 z m 540 463 b 463 540 497 463 463 497 b 540 617 463 583 497 617 b 617 540 583 617 617 583 b 540 463 617 497 583 463 z m 77 617 b 0 694 35 617 0 652 b 77 772 0 737 35 772 b 154 694 120 772 154 737 b 77 617 154 652 119 617 z m 77 772 b 0 849 35 772 0 806 b 77 926 0 892 35 926 b 154 849 120 926 154 892 b 77 772 154 806 119 772 z m 77 926 b 0 1003 35 926 0 960 b 77 1081 0 1046 35 1081 b 154 1003 120 1081 154 1046 b 77 926 154 960 119 926 z m 231 926 b 154 1003 189 926 154 960 b 231 1081 154 1046 189 1081 b 308 1003 274 1081 308 1046 b 231 926 308 960 274 926 z m 386 926 b 308 1003 343 926 308 960 b 386 1081 308 1046 343 1081 b 463 1003 428 1081 463 1046 b 386 926 463 960 428 926 z m 540 926 b 463 1003 497 926 463 960 b 540 1081 463 1046 497 1081 b 617 1003 583 1081 617 1046 b 540 926 617 960 583 926 z m 694 926 b 617 1003 652 926 617 960 b 694 1081 617 1046 652 1081 b 772 1003 737 1081 772 1046 b 694 926 772 960 737 926 z "},"G":{"ha":926,"x_min":0,"x_max":0,"o":"m 231 0 b 154 77 189 0 154 35 b 231 154 154 120 189 154 b 308 77 274 154 308 119 b 231 0 308 35 274 0 z m 386 0 b 308 77 343 0 308 35 b 386 154 308 120 343 154 b 463 77 428 154 463 119 b 386 0 463 35 428 0 z m 540 0 b 463 77 497 0 463 35 b 540 154 463 120 497 154 b 617 77 583 154 617 119 b 540 0 617 35 583 0 z m 77 154 b 0 231 35 154 0 189 b 77 308 0 274 35 308 b 154 231 120 308 154 274 b 77 154 154 189 119 154 z m 694 154 b 617 231 652 154 617 189 b 694 308 617 274 652 308 b 772 231 737 308 772 274 b 694 154 772 189 737 154 z m 77 308 b 0 386 35 308 0 343 b 77 463 0 428 35 463 b 154 386 120 463 154 428 b 77 308 154 343 119 308 z m 694 308 b 617 386 652 308 617 343 b 694 463 617 428 652 463 b 772 386 737 463 772 428 b 694 308 772 343 737 308 z m 77 463 b 0 540 35 463 0 497 b 77 617 0 583 35 617 b 154 540 120 617 154 583 b 77 463 154 497 119 463 z m 386 463 b 308 540 343 463 308 497 b 386 617 308 583 343 617 b 463 540 428 617 463 583 b 386 463 463 497 428 463 z m 540 463 b 463 540 497 463 463 497 b 540 617 463 583 497 617 b 617 540 583 617 617 583 b 540 463 617 497 583 463 z m 694 463 b 617 540 652 463 617 497 b 694 617 617 583 652 617 b 772 540 737 617 772 583 b 694 463 772 497 737 463 z m 77 617 b 0 694 35 617 0 652 b 77 772 0 737 35 772 b 154 694 120 772 154 737 b 77 617 154 652 119 617 z m 77 772 b 0 849 35 772 0 806 b 77 926 0 892 35 926 b 154 849 120 926 154 892 b 77 772 154 806 119 772 z m 694 772 b 617 849 652 772 617 806 b 694 926 617 892 652 926 b 772 849 737 926 772 892 b 694 772 772 806 737 772 z m 231 926 b 154 1003 189 926 154 960 b 231 1081 154 1046 189 1081 b 308 1003 274 1081 308 1046 b 231 926 308 960 274 926 z m 386 926 b 308 1003 343 926 308 960 b 386 1081 308 1046 343 1081 b 463 1003 428 1081 463 1046 b 386 926 463 960 428 926 z m 540 926 b 463 1003 497 926 463 960 b 540 1081 463 1046 497 1081 b 617 1003 583 1081 617 1046 b 540 926 617 960 583 926 z "},"H":{"ha":926,"x_min":0,"x_max":0,"o":"m 77 0 b 0 77 35 0 0 35 b 77 154 0 120 35 154 b 154 77 120 154 154 119 b 77 0 154 35 119 0 z m 694 0 b 617 77 652 0 617 35 b 694 154 617 120 652 154 b 772 77 737 154 772 119 b 694 0 772 35 737 0 z m 77 154 b 0 231 35 154 0 189 b 77 308 0 274 35 308 b 154 231 120 308 154 274 b 77 154 154 189 119 154 z m 694 154 b 617 231 652 154 617 189 b 694 308 617 274 652 308 b 772 231 737 308 772 274 b 694 154 772 189 737 154 z m 77 308 b 0 386 35 308 0 343 b 77 463 0 428 35 463 b 154 386 120 463 154 428 b 77 308 154 343 119 308 z m 694 308 b 617 386 652 308 617 343 b 694 463 617 428 652 463 b 772 386 737 463 772 428 b 694 308 772 343 737 308 z m 77 463 b 0 540 35 463 0 497 b 77 617 0 583 35 617 b 154 540 120 617 154 583 b 77 463 154 497 119 463 z m 231 463 b 154 540 189 463 154 497 b 231 617 154 583 189 617 b 308 540 274 617 308 583 b 231 463 308 497 274 463 z m 386 463 b 308 540 343 463 308 497 b 386 617 308 583 343 617 b 463 540 428 617 463 583 b 386 463 463 497 428 463 z m 540 463 b 463 540 497 463 463 497 b 540 617 463 583 497 617 b 617 540 583 617 617 583 b 540 463 617 497 583 463 z m 694 463 b 617 540 652 463 617 497 b 694 617 617 583 652 617 b 772 540 737 617 772 583 b 694 463 772 497 737 463 z m 77 617 b 0 694 35 617 0 652 b 77 772 0 737 35 772 b 154 694 120 772 154 737 b 77 617 154 652 119 617 z m 694 617 b 617 694 652 617 617 652 b 694 772 617 737 652 772 b 772 694 737 772 772 737 b 694 617 772 652 737 617 z m 77 772 b 0 849 35 772 0 806 b 77 926 0 892 35 926 b 154 849 120 926 154 892 b 77 772 154 806 119 772 z m 694 772 b 617 849 652 772 617 806 b 694 926 617 892 652 926 b 772 849 737 926 772 892 b 694 772 772 806 737 772 z m 77 926 b 0 1003 35 926 0 960 b 77 1081 0 1046 35 1081 b 154 1003 120 1081 154 1046 b 77 926 154 960 119 926 z m 694 926 b 617 1003 652 926 617 960 b 694 1081 617 1046 652 1081 b 772 1003 737 1081 772 1046 b 694 926 772 960 737 926 z "},"I":{"ha":617,"x_min":0,"x_max":0,"o":"m 77 0 b 0 77 35 0 0 35 b 77 154 0 120 35 154 b 154 77 120 154 154 119 b 77 0 154 35 119 0 z m 231 0 b 154 77 189 0 154 35 b 231 154 154 120 189 154 b 308 77 274 154 308 119 b 231 0 308 35 274 0 z m 386 0 b 308 77 343 0 308 35 b 386 154 308 120 343 154 b 463 77 428 154 463 119 b 386 0 463 35 428 0 z m 231 154 b 154 231 189 154 154 189 b 231 308 154 274 189 308 b 308 231 274 308 308 274 b 231 154 308 189 274 154 z m 231 308 b 154 386 189 308 154 343 b 231 463 154 428 189 463 b 308 386 274 463 308 428 b 231 308 308 343 274 308 z m 231 463 b 154 540 189 463 154 497 b 231 617 154 583 189 617 b 308 540 274 617 308 583 b 231 463 308 497 274 463 z m 231 617 b 154 694 189 617 154 652 b 231 772 154 737 189 772 b 308 694 274 772 308 737 b 231 617 308 652 274 617 z m 231 772 b 154 849 189 772 154 806 b 231 926 154 892 189 926 b 308 849 274 926 308 892 b 231 772 308 806 274 772 z m 77 926 b 0 1003 35 926 0 960 b 77 1081 0 1046 35 1081 b 154 1003 120 1081 154 1046 b 77 926 154 960 119 926 z m 231 926 b 154 1003 189 926 154 960 b 231 1081 154 1046 189 1081 b 308 1003 274 1081 308 1046 b 231 926 308 960 274 926 z m 386 926 b 308 1003 343 926 308 960 b 386 1081 308 1046 343 1081 b 463 1003 428 1081 463 1046 b 386 926 463 960 428 926 z "},"J":{"ha":926,"x_min":0,"x_max":0,"o":"m 231 0 b 154 77 189 0 154 35 b 231 154 154 120 189 154 b 308 77 274 154 308 119 b 231 0 308 35 274 0 z m 386 0 b 308 77 343 0 308 35 b 386 154 308 120 343 154 b 463 77 428 154 463 119 b 386 0 463 35 428 0 z m 77 154 b 0 231 35 154 0 189 b 77 308 0 274 35 308 b 154 231 120 308 154 274 b 77 154 154 189 119 154 z m 540 154 b 463 231 497 154 463 189 b 540 308 463 274 497 308 b 617 231 583 308 617 274 b 540 154 617 189 583 154 z m 540 308 b 463 386 497 308 463 343 b 540 463 463 428 497 463 b 617 386 583 463 617 428 b 540 308 617 343 583 308 z m 540 463 b 463 540 497 463 463 497 b 540 617 463 583 497 617 b 617 540 583 617 617 583 b 540 463 617 497 583 463 z m 540 617 b 463 694 497 617 463 652 b 540 772 463 737 497 772 b 617 694 583 772 617 737 b 540 617 617 652 583 617 z m 540 772 b 463 849 497 772 463 806 b 540 926 463 892 497 926 b 617 849 583 926 617 892 b 540 772 617 806 583 772 z m 386 926 b 308 1003 343 926 308 960 b 386 1081 308 1046 343 1081 b 463 1003 428 1081 463 1046 b 386 926 463 960 428 926 z m 540 926 b 463 1003 497 926 463 960 b 540 1081 463 1046 497 1081 b 617 1003 583 1081 617 1046 b 540 926 617 960 583 926 z m 694 926 b 617 1003 652 926 617 960 b 694 1081 617 1046 652 1081 b 772 1003 737 1081 772 1046 b 694 926 772 960 737 926 z "},"K":{"ha":926,"x_min":0,"x_max":0,"o":"m 77 0 b 0 77 35 0 0 35 b 77 154 0 120 35 154 b 154 77 120 154 154 119 b 77 0 154 35 119 0 z m 694 0 b 617 77 652 0 617 35 b 694 154 617 120 652 154 b 772 77 737 154 772 119 b 694 0 772 35 737 0 z m 77 154 b 0 231 35 154 0 189 b 77 308 0 274 35 308 b 154 231 120 308 154 274 b 77 154 154 189 119 154 z m 540 154 b 463 231 497 154 463 189 b 540 308 463 274 497 308 b 617 231 583 308 617 274 b 540 154 617 189 583 154 z m 77 308 b 0 386 35 308 0 343 b 77 463 0 428 35 463 b 154 386 120 463 154 428 b 77 308 154 343 119 308 z m 386 308 b 308 386 343 308 308 343 b 386 463 308 428 343 463 b 463 386 428 463 463 428 b 386 308 463 343 428 308 z m 77 463 b 0 540 35 463 0 497 b 77 617 0 583 35 617 b 154 540 120 617 154 583 b 77 463 154 497 119 463 z m 231 463 b 154 540 189 463 154 497 b 231 617 154 583 189 617 b 308 540 274 617 308 583 b 231 463 308 497 274 463 z m 77 617 b 0 694 35 617 0 652 b 77 772 0 737 35 772 b 154 694 120 772 154 737 b 77 617 154 652 119 617 z m 386 617 b 308 694 343 617 308 652 b 386 772 308 737 343 772 b 463 694 428 772 463 737 b 386 617 463 652 428 617 z m 77 772 b 0 849 35 772 0 806 b 77 926 0 892 35 926 b 154 849 120 926 154 892 b 77 772 154 806 119 772 z m 540 772 b 463 849 497 772 463 806 b 540 926 463 892 497 926 b 617 849 583 926 617 892 b 540 772 617 806 583 772 z m 77 926 b 0 1003 35 926 0 960 b 77 1081 0 1046 35 1081 b 154 1003 120 1081 154 1046 b 77 926 154 960 119 926 z m 694 926 b 617 1003 652 926 617 960 b 694 1081 617 1046 652 1081 b 772 1003 737 1081 772 1046 b 694 926 772 960 737 926 z "},"L":{"ha":926,"x_min":0,"x_max":0,"o":"m 77 0 b 0 77 35 0 0 35 b 77 154 0 120 35 154 b 154 77 120 154 154 119 b 77 0 154 35 119 0 z m 231 0 b 154 77 189 0 154 35 b 231 154 154 120 189 154 b 308 77 274 154 308 119 b 231 0 308 35 274 0 z m 386 0 b 308 77 343 0 308 35 b 386 154 308 120 343 154 b 463 77 428 154 463 119 b 386 0 463 35 428 0 z m 540 0 b 463 77 497 0 463 35 b 540 154 463 120 497 154 b 617 77 583 154 617 119 b 540 0 617 35 583 0 z m 694 0 b 617 77 652 0 617 35 b 694 154 617 120 652 154 b 772 77 737 154 772 119 b 694 0 772 35 737 0 z m 77 154 b 0 231 35 154 0 189 b 77 308 0 274 35 308 b 154 231 120 308 154 274 b 77 154 154 189 119 154 z m 77 308 b 0 386 35 308 0 343 b 77 463 0 428 35 463 b 154 386 120 463 154 428 b 77 308 154 343 119 308 z m 77 463 b 0 540 35 463 0 497 b 77 617 0 583 35 617 b 154 540 120 617 154 583 b 77 463 154 497 119 463 z m 77 617 b 0 694 35 617 0 652 b 77 772 0 737 35 772 b 154 694 120 772 154 737 b 77 617 154 652 119 617 z m 77 772 b 0 849 35 772 0 806 b 77 926 0 892 35 926 b 154 849 120 926 154 892 b 77 772 154 806 119 772 z m 77 926 b 0 1003 35 926 0 960 b 77 1081 0 1046 35 1081 b 154 1003 120 1081 154 1046 b 77 926 154 960 119 926 z "},"M":{"ha":926,"x_min":0,"x_max":0,"o":"m 77 0 b 0 77 35 0 0 35 b 77 154 0 120 35 154 b 154 77 120 154 154 119 b 77 0 154 35 119 0 z m 694 0 b 617 77 652 0 617 35 b 694 154 617 120 652 154 b 772 77 737 154 772 119 b 694 0 772 35 737 0 z m 77 154 b 0 231 35 154 0 189 b 77 308 0 274 35 308 b 154 231 120 308 154 274 b 77 154 154 189 119 154 z m 694 154 b 617 231 652 154 617 189 b 694 308 617 274 652 308 b 772 231 737 308 772 274 b 694 154 772 189 737 154 z m 77 308 b 0 386 35 308 0 343 b 77 463 0 428 35 463 b 154 386 120 463 154 428 b 77 308 154 343 119 308 z m 694 308 b 617 386 652 308 617 343 b 694 463 617 428 652 463 b 772 386 737 463 772 428 b 694 308 772 343 737 308 z m 77 463 b 0 540 35 463 0 497 b 77 617 0 583 35 617 b 154 540 120 617 154 583 b 77 463 154 497 119 463 z m 386 463 b 308 540 343 463 308 497 b 386 617 308 583 343 617 b 463 540 428 617 463 583 b 386 463 463 497 428 463 z m 694 463 b 617 540 652 463 617 497 b 694 617 617 583 652 617 b 772 540 737 617 772 583 b 694 463 772 497 737 463 z m 77 617 b 0 694 35 617 0 652 b 77 772 0 737 35 772 b 154 694 120 772 154 737 b 77 617 154 652 119 617 z m 386 617 b 308 694 343 617 308 652 b 386 772 308 737 343 772 b 463 694 428 772 463 737 b 386 617 463 652 428 617 z m 694 617 b 617 694 652 617 617 652 b 694 772 617 737 652 772 b 772 694 737 772 772 737 b 694 617 772 652 737 617 z m 77 772 b 0 849 35 772 0 806 b 77 926 0 892 35 926 b 154 849 120 926 154 892 b 77 772 154 806 119 772 z m 231 772 b 154 849 189 772 154 806 b 231 926 154 892 189 926 b 308 849 274 926 308 892 b 231 772 308 806 274 772 z m 540 772 b 463 849 497 772 463 806 b 540 926 463 892 497 926 b 617 849 583 926 617 892 b 540 772 617 806 583 772 z m 694 772 b 617 849 652 772 617 806 b 694 926 617 892 652 926 b 772 849 737 926 772 892 b 694 772 772 806 737 772 z m 77 926 b 0 1003 35 926 0 960 b 77 1081 0 1046 35 1081 b 154 1003 120 1081 154 1046 b 77 926 154 960 119 926 z m 694 926 b 617 1003 652 926 617 960 b 694 1081 617 1046 652 1081 b 772 1003 737 1081 772 1046 b 694 926 772 960 737 926 z "},"N":{"ha":926,"x_min":0,"x_max":0,"o":"m 77 0 b 0 77 35 0 0 35 b 77 154 0 120 35 154 b 154 77 120 154 154 119 b 77 0 154 35 119 0 z m 694 0 b 617 77 652 0 617 35 b 694 154 617 120 652 154 b 772 77 737 154 772 119 b 694 0 772 35 737 0 z m 77 154 b 0 231 35 154 0 189 b 77 308 0 274 35 308 b 154 231 120 308 154 274 b 77 154 154 189 119 154 z m 694 154 b 617 231 652 154 617 189 b 694 308 617 274 652 308 b 772 231 737 308 772 274 b 694 154 772 189 737 154 z m 77 308 b 0 386 35 308 0 343 b 77 463 0 428 35 463 b 154 386 120 463 154 428 b 77 308 154 343 119 308 z m 540 308 b 463 386 497 308 463 343 b 540 463 463 428 497 463 b 617 386 583 463 617 428 b 540 308 617 343 583 308 z m 694 308 b 617 386 652 308 617 343 b 694 463 617 428 652 463 b 772 386 737 463 772 428 b 694 308 772 343 737 308 z m 77 463 b 0 540 35 463 0 497 b 77 617 0 583 35 617 b 154 540 120 617 154 583 b 77 463 154 497 119 463 z m 386 463 b 308 540 343 463 308 497 b 386 617 308 583 343 617 b 463 540 428 617 463 583 b 386 463 463 497 428 463 z m 694 463 b 617 540 652 463 617 497 b 694 617 617 583 652 617 b 772 540 737 617 772 583 b 694 463 772 497 737 463 z m 77 617 b 0 694 35 617 0 652 b 77 772 0 737 35 772 b 154 694 120 772 154 737 b 77 617 154 652 119 617 z m 231 617 b 154 694 189 617 154 652 b 231 772 154 737 189 772 b 308 694 274 772 308 737 b 231 617 308 652 274 617 z m 694 617 b 617 694 652 617 617 652 b 694 772 617 737 652 772 b 772 694 737 772 772 737 b 694 617 772 652 737 617 z m 77 772 b 0 849 35 772 0 806 b 77 926 0 892 35 926 b 154 849 120 926 154 892 b 77 772 154 806 119 772 z m 694 772 b 617 849 652 772 617 806 b 694 926 617 892 652 926 b 772 849 737 926 772 892 b 694 772 772 806 737 772 z m 77 926 b 0 1003 35 926 0 960 b 77 1081 0 1046 35 1081 b 154 1003 120 1081 154 1046 b 77 926 154 960 119 926 z m 694 926 b 617 1003 652 926 617 960 b 694 1081 617 1046 652 1081 b 772 1003 737 1081 772 1046 b 694 926 772 960 737 926 z "},"O":{"ha":926,"x_min":0,"x_max":0,"o":"m 231 0 b 154 77 189 0 154 35 b 231 154 154 120 189 154 b 308 77 274 154 308 119 b 231 0 308 35 274 0 z m 386 0 b 308 77 343 0 308 35 b 386 154 308 120 343 154 b 463 77 428 154 463 119 b 386 0 463 35 428 0 z m 540 0 b 463 77 497 0 463 35 b 540 154 463 120 497 154 b 617 77 583 154 617 119 b 540 0 617 35 583 0 z m 77 154 b 0 231 35 154 0 189 b 77 308 0 274 35 308 b 154 231 120 308 154 274 b 77 154 154 189 119 154 z m 694 154 b 617 231 652 154 617 189 b 694 308 617 274 652 308 b 772 231 737 308 772 274 b 694 154 772 189 737 154 z m 77 308 b 0 386 35 308 0 343 b 77 463 0 428 35 463 b 154 386 120 463 154 428 b 77 308 154 343 119 308 z m 694 308 b 617 386 652 308 617 343 b 694 463 617 428 652 463 b 772 386 737 463 772 428 b 694 308 772 343 737 308 z m 77 463 b 0 540 35 463 0 497 b 77 617 0 583 35 617 b 154 540 120 617 154 583 b 77 463 154 497 119 463 z m 694 463 b 617 540 652 463 617 497 b 694 617 617 583 652 617 b 772 540 737 617 772 583 b 694 463 772 497 737 463 z m 77 617 b 0 694 35 617 0 652 b 77 772 0 737 35 772 b 154 694 120 772 154 737 b 77 617 154 652 119 617 z m 694 617 b 617 694 652 617 617 652 b 694 772 617 737 652 772 b 772 694 737 772 772 737 b 694 617 772 652 737 617 z m 77 772 b 0 849 35 772 0 806 b 77 926 0 892 35 926 b 154 849 120 926 154 892 b 77 772 154 806 119 772 z m 694 772 b 617 849 652 772 617 806 b 694 926 617 892 652 926 b 772 849 737 926 772 892 b 694 772 772 806 737 772 z m 231 926 b 154 1003 189 926 154 960 b 231 1081 154 1046 189 1081 b 308 1003 274 1081 308 1046 b 231 926 308 960 274 926 z m 386 926 b 308 1003 343 926 308 960 b 386 1081 308 1046 343 1081 b 463 1003 428 1081 463 1046 b 386 926 463 960 428 926 z m 540 926 b 463 1003 497 926 463 960 b 540 1081 463 1046 497 1081 b 617 1003 583 1081 617 1046 b 540 926 617 960 583 926 z "},"P":{"ha":926,"x_min":0,"x_max":0,"o":"m 77 0 b 0 77 35 0 0 35 b 77 154 0 120 35 154 b 154 77 120 154 154 119 b 77 0 154 35 119 0 z m 77 154 b 0 231 35 154 0 189 b 77 308 0 274 35 308 b 154 231 120 308 154 274 b 77 154 154 189 119 154 z m 77 308 b 0 386 35 308 0 343 b 77 463 0 428 35 463 b 154 386 120 463 154 428 b 77 308 154 343 119 308 z m 77 463 b 0 540 35 463 0 497 b 77 617 0 583 35 617 b 154 540 120 617 154 583 b 77 463 154 497 119 463 z m 231 463 b 154 540 189 463 154 497 b 231 617 154 583 189 617 b 308 540 274 617 308 583 b 231 463 308 497 274 463 z m 386 463 b 308 540 343 463 308 497 b 386 617 308 583 343 617 b 463 540 428 617 463 583 b 386 463 463 497 428 463 z m 540 463 b 463 540 497 463 463 497 b 540 617 463 583 497 617 b 617 540 583 617 617 583 b 540 463 617 497 583 463 z m 77 617 b 0 694 35 617 0 652 b 77 772 0 737 35 772 b 154 694 120 772 154 737 b 77 617 154 652 119 617 z m 694 617 b 617 694 652 617 617 652 b 694 772 617 737 652 772 b 772 694 737 772 772 737 b 694 617 772 652 737 617 z m 77 772 b 0 849 35 772 0 806 b 77 926 0 892 35 926 b 154 849 120 926 154 892 b 77 772 154 806 119 772 z m 694 772 b 617 849 652 772 617 806 b 694 926 617 892 652 926 b 772 849 737 926 772 892 b 694 772 772 806 737 772 z m 77 926 b 0 1003 35 926 0 960 b 77 1081 0 1046 35 1081 b 154 1003 120 1081 154 1046 b 77 926 154 960 119 926 z m 231 926 b 154 1003 189 926 154 960 b 231 1081 154 1046 189 1081 b 308 1003 274 1081 308 1046 b 231 926 308 960 274 926 z m 386 926 b 308 1003 343 926 308 960 b 386 1081 308 1046 343 1081 b 463 1003 428 1081 463 1046 b 386 926 463 960 428 926 z m 540 926 b 463 1003 497 926 463 960 b 540 1081 463 1046 497 1081 b 617 1003 583 1081 617 1046 b 540 926 617 960 583 926 z "},"Q":{"ha":926,"x_min":0,"x_max":0,"o":"m 231 0 b 154 77 189 0 154 35 b 231 154 154 120 189 154 b 308 77 274 154 308 119 b 231 0 308 35 274 0 z m 386 0 b 308 77 343 0 308 35 b 386 154 308 120 343 154 b 463 77 428 154 463 119 b 386 0 463 35 428 0 z m 694 0 b 617 77 652 0 617 35 b 694 154 617 120 652 154 b 772 77 737 154 772 119 b 694 0 772 35 737 0 z m 77 154 b 0 231 35 154 0 189 b 77 308 0 274 35 308 b 154 231 120 308 154 274 b 77 154 154 189 119 154 z m 540 154 b 463 231 497 154 463 189 b 540 308 463 274 497 308 b 617 231 583 308 617 274 b 540 154 617 189 583 154 z m 386 231 b 308 308 343 231 308 266 b 386 386 308 351 343 386 b 463 308 428 386 463 351 b 386 231 463 266 428 231 z m 77 308 b 0 386 35 308 0 343 b 77 463 0 428 35 463 b 154 386 120 463 154 428 b 77 308 154 343 119 308 z m 694 308 b 617 386 652 308 617 343 b 694 463 617 428 652 463 b 772 386 737 463 772 428 b 694 308 772 343 737 308 z m 77 463 b 0 540 35 463 0 497 b 77 617 0 583 35 617 b 154 540 120 617 154 583 b 77 463 154 497 119 463 z m 694 463 b 617 540 652 463 617 497 b 694 617 617 583 652 617 b 772 540 737 617 772 583 b 694 463 772 497 737 463 z m 77 617 b 0 694 35 617 0 652 b 77 772 0 737 35 772 b 154 694 120 772 154 737 b 77 617 154 652 119 617 z m 694 617 b 617 694 652 617 617 652 b 694 772 617 737 652 772 b 772 694 737 772 772 737 b 694 617 772 652 737 617 z m 77 772 b 0 849 35 772 0 806 b 77 926 0 892 35 926 b 154 849 120 926 154 892 b 77 772 154 806 119 772 z m 694 772 b 617 849 652 772 617 806 b 694 926 617 892 652 926 b 772 849 737 926 772 892 b 694 772 772 806 737 772 z m 231 926 b 154 1003 189 926 154 960 b 231 1081 154 1046 189 1081 b 308 1003 274 1081 308 1046 b 231 926 308 960 274 926 z m 386 926 b 308 1003 343 926 308 960 b 386 1081 308 1046 343 1081 b 463 1003 428 1081 463 1046 b 386 926 463 960 428 926 z m 540 926 b 463 1003 497 926 463 960 b 540 1081 463 1046 497 1081 b 617 1003 583 1081 617 1046 b 540 926 617 960 583 926 z "},"R":{"ha":926,"x_min":0,"x_max":0,"o":"m 77 0 b 0 77 35 0 0 35 b 77 154 0 120 35 154 b 154 77 120 154 154 119 b 77 0 154 35 119 0 z m 694 0 b 617 77 652 0 617 35 b 694 154 617 120 652 154 b 772 77 737 154 772 119 b 694 0 772 35 737 0 z m 77 154 b 0 231 35 154 0 189 b 77 308 0 274 35 308 b 154 231 120 308 154 274 b 77 154 154 189 119 154 z m 540 154 b 463 231 497 154 463 189 b 540 308 463 274 497 308 b 617 231 583 308 617 274 b 540 154 617 189 583 154 z m 77 308 b 0 386 35 308 0 343 b 77 463 0 428 35 463 b 154 386 120 463 154 428 b 77 308 154 343 119 308 z m 386 308 b 308 386 343 308 308 343 b 386 463 308 428 343 463 b 463 386 428 463 463 428 b 386 308 463 343 428 308 z m 77 463 b 0 540 35 463 0 497 b 77 617 0 583 35 617 b 154 540 120 617 154 583 b 77 463 154 497 119 463 z m 231 463 b 154 540 189 463 154 497 b 231 617 154 583 189 617 b 308 540 274 617 308 583 b 231 463 308 497 274 463 z m 386 463 b 308 540 343 463 308 497 b 386 617 308 583 343 617 b 463 540 428 617 463 583 b 386 463 463 497 428 463 z m 540 463 b 463 540 497 463 463 497 b 540 617 463 583 497 617 b 617 540 583 617 617 583 b 540 463 617 497 583 463 z m 77 617 b 0 694 35 617 0 652 b 77 772 0 737 35 772 b 154 694 120 772 154 737 b 77 617 154 652 119 617 z m 694 617 b 617 694 652 617 617 652 b 694 772 617 737 652 772 b 772 694 737 772 772 737 b 694 617 772 652 737 617 z m 77 772 b 0 849 35 772 0 806 b 77 926 0 892 35 926 b 154 849 120 926 154 892 b 77 772 154 806 119 772 z m 694 772 b 617 849 652 772 617 806 b 694 926 617 892 652 926 b 772 849 737 926 772 892 b 694 772 772 806 737 772 z m 77 926 b 0 1003 35 926 0 960 b 77 1081 0 1046 35 1081 b 154 1003 120 1081 154 1046 b 77 926 154 960 119 926 z m 231 926 b 154 1003 189 926 154 960 b 231 1081 154 1046 189 1081 b 308 1003 274 1081 308 1046 b 231 926 308 960 274 926 z m 386 926 b 308 1003 343 926 308 960 b 386 1081 308 1046 343 1081 b 463 1003 428 1081 463 1046 b 386 926 463 960 428 926 z m 540 926 b 463 1003 497 926 463 960 b 540 1081 463 1046 497 1081 b 617 1003 583 1081 617 1046 b 540 926 617 960 583 926 z "},"S":{"ha":926,"x_min":0,"x_max":0,"o":"m 231 0 b 154 77 189 0 154 35 b 231 154 154 120 189 154 b 308 77 274 154 308 119 b 231 0 308 35 274 0 z m 386 0 b 308 77 343 0 308 35 b 386 154 308 120 343 154 b 463 77 428 154 463 119 b 386 0 463 35 428 0 z m 540 0 b 463 77 497 0 463 35 b 540 154 463 120 497 154 b 617 77 583 154 617 119 b 540 0 617 35 583 0 z m 77 154 b 0 231 35 154 0 189 b 77 308 0 274 35 308 b 154 231 120 308 154 274 b 77 154 154 189 119 154 z m 694 154 b 617 231 652 154 617 189 b 694 308 617 274 652 308 b 772 231 737 308 772 274 b 694 154 772 189 737 154 z m 694 308 b 617 386 652 308 617 343 b 694 463 617 428 652 463 b 772 386 737 463 772 428 b 694 308 772 343 737 308 z m 231 463 b 154 540 189 463 154 497 b 231 617 154 583 189 617 b 308 540 274 617 308 583 b 231 463 308 497 274 463 z m 386 463 b 308 540 343 463 308 497 b 386 617 308 583 343 617 b 463 540 428 617 463 583 b 386 463 463 497 428 463 z m 540 463 b 463 540 497 463 463 497 b 540 617 463 583 497 617 b 617 540 583 617 617 583 b 540 463 617 497 583 463 z m 77 617 b 0 694 35 617 0 652 b 77 772 0 737 35 772 b 154 694 120 772 154 737 b 77 617 154 652 119 617 z m 77 772 b 0 849 35 772 0 806 b 77 926 0 892 35 926 b 154 849 120 926 154 892 b 77 772 154 806 119 772 z m 694 772 b 617 849 652 772 617 806 b 694 926 617 892 652 926 b 772 849 737 926 772 892 b 694 772 772 806 737 772 z m 231 926 b 154 1003 189 926 154 960 b 231 1081 154 1046 189 1081 b 308 1003 274 1081 308 1046 b 231 926 308 960 274 926 z m 386 926 b 308 1003 343 926 308 960 b 386 1081 308 1046 343 1081 b 463 1003 428 1081 463 1046 b 386 926 463 960 428 926 z m 540 926 b 463 1003 497 926 463 960 b 540 1081 463 1046 497 1081 b 617 1003 583 1081 617 1046 b 540 926 617 960 583 926 z "},"T":{"ha":926,"x_min":0,"x_max":0,"o":"m 386 0 b 308 77 343 0 308 35 b 386 154 308 120 343 154 b 463 77 428 154 463 119 b 386 0 463 35 428 0 z m 386 154 b 308 231 343 154 308 189 b 386 308 308 274 343 308 b 463 231 428 308 463 274 b 386 154 463 189 428 154 z m 386 308 b 308 386 343 308 308 343 b 386 463 308 428 343 463 b 463 386 428 463 463 428 b 386 308 463 343 428 308 z m 386 463 b 308 540 343 463 308 497 b 386 617 308 583 343 617 b 463 540 428 617 463 583 b 386 463 463 497 428 463 z m 386 617 b 308 694 343 617 308 652 b 386 772 308 737 343 772 b 463 694 428 772 463 737 b 386 617 463 652 428 617 z m 386 772 b 308 849 343 772 308 806 b 386 926 308 892 343 926 b 463 849 428 926 463 892 b 386 772 463 806 428 772 z m 77 926 b 0 1003 35 926 0 960 b 77 1081 0 1046 35 1081 b 154 1003 120 1081 154 1046 b 77 926 154 960 119 926 z m 231 926 b 154 1003 189 926 154 960 b 231 1081 154 1046 189 1081 b 308 1003 274 1081 308 1046 b 231 926 308 960 274 926 z m 386 926 b 308 1003 343 926 308 960 b 386 1081 308 1046 343 1081 b 463 1003 428 1081 463 1046 b 386 926 463 960 428 926 z m 540 926 b 463 1003 497 926 463 960 b 540 1081 463 1046 497 1081 b 617 1003 583 1081 617 1046 b 540 926 617 960 583 926 z m 694 926 b 617 1003 652 926 617 960 b 694 1081 617 1046 652 1081 b 772 1003 737 1081 772 1046 b 694 926 772 960 737 926 z "},"U":{"ha":926,"x_min":0,"x_max":0,"o":"m 231 0 b 154 77 189 0 154 35 b 231 154 154 120 189 154 b 308 77 274 154 308 119 b 231 0 308 35 274 0 z m 386 0 b 308 77 343 0 308 35 b 386 154 308 120 343 154 b 463 77 428 154 463 119 b 386 0 463 35 428 0 z m 540 0 b 463 77 497 0 463 35 b 540 154 463 120 497 154 b 617 77 583 154 617 119 b 540 0 617 35 583 0 z m 77 154 b 0 231 35 154 0 189 b 77 308 0 274 35 308 b 154 231 120 308 154 274 b 77 154 154 189 119 154 z m 694 154 b 617 231 652 154 617 189 b 694 308 617 274 652 308 b 772 231 737 308 772 274 b 694 154 772 189 737 154 z m 77 308 b 0 386 35 308 0 343 b 77 463 0 428 35 463 b 154 386 120 463 154 428 b 77 308 154 343 119 308 z m 694 308 b 617 386 652 308 617 343 b 694 463 617 428 652 463 b 772 386 737 463 772 428 b 694 308 772 343 737 308 z m 77 463 b 0 540 35 463 0 497 b 77 617 0 583 35 617 b 154 540 120 617 154 583 b 77 463 154 497 119 463 z m 694 463 b 617 540 652 463 617 497 b 694 617 617 583 652 617 b 772 540 737 617 772 583 b 694 463 772 497 737 463 z m 77 617 b 0 694 35 617 0 652 b 77 772 0 737 35 772 b 154 694 120 772 154 737 b 77 617 154 652 119 617 z m 694 617 b 617 694 652 617 617 652 b 694 772 617 737 652 772 b 772 694 737 772 772 737 b 694 617 772 652 737 617 z m 77 772 b 0 849 35 772 0 806 b 77 926 0 892 35 926 b 154 849 120 926 154 892 b 77 772 154 806 119 772 z m 694 772 b 617 849 652 772 617 806 b 694 926 617 892 652 926 b 772 849 737 926 772 892 b 694 772 772 806 737 772 z m 77 926 b 0 1003 35 926 0 960 b 77 1081 0 1046 35 1081 b 154 1003 120 1081 154 1046 b 77 926 154 960 119 926 z m 694 926 b 617 1003 652 926 617 960 b 694 1081 617 1046 652 1081 b 772 1003 737 1081 772 1046 b 694 926 772 960 737 926 z "},"V":{"ha":926,"x_min":0,"x_max":0,"o":"m 386 0 b 308 77 343 0 308 35 b 386 154 308 120 343 154 b 463 77 428 154 463 119 b 386 0 463 35 428 0 z m 231 154 b 154 231 189 154 154 189 b 231 308 154 274 189 308 b 308 231 274 308 308 274 b 231 154 308 189 274 154 z m 540 154 b 463 231 497 154 463 189 b 540 308 463 274 497 308 b 617 231 583 308 617 274 b 540 154 617 189 583 154 z m 77 308 b 0 386 35 308 0 343 b 77 463 0 428 35 463 b 154 386 120 463 154 428 b 77 308 154 343 119 308 z m 694 308 b 617 386 652 308 617 343 b 694 463 617 428 652 463 b 772 386 737 463 772 428 b 694 308 772 343 737 308 z m 77 463 b 0 540 35 463 0 497 b 77 617 0 583 35 617 b 154 540 120 617 154 583 b 77 463 154 497 119 463 z m 694 463 b 617 540 652 463 617 497 b 694 617 617 583 652 617 b 772 540 737 617 772 583 b 694 463 772 497 737 463 z m 77 617 b 0 694 35 617 0 652 b 77 772 0 737 35 772 b 154 694 120 772 154 737 b 77 617 154 652 119 617 z m 694 617 b 617 694 652 617 617 652 b 694 772 617 737 652 772 b 772 694 737 772 772 737 b 694 617 772 652 737 617 z m 77 772 b 0 849 35 772 0 806 b 77 926 0 892 35 926 b 154 849 120 926 154 892 b 77 772 154 806 119 772 z m 694 772 b 617 849 652 772 617 806 b 694 926 617 892 652 926 b 772 849 737 926 772 892 b 694 772 772 806 737 772 z m 77 926 b 0 1003 35 926 0 960 b 77 1081 0 1046 35 1081 b 154 1003 120 1081 154 1046 b 77 926 154 960 119 926 z m 694 926 b 617 1003 652 926 617 960 b 694 1081 617 1046 652 1081 b 772 1003 737 1081 772 1046 b 694 926 772 960 737 926 z "},"W":{"ha":926,"x_min":0,"x_max":0,"o":"m 231 0 b 154 77 189 0 154 35 b 231 154 154 120 189 154 b 308 77 274 154 308 119 b 231 0 308 35 274 0 z m 540 0 b 463 77 497 0 463 35 b 540 154 463 120 497 154 b 617 77 583 154 617 119 b 540 0 617 35 583 0 z m 77 154 b 0 231 35 154 0 189 b 77 308 0 274 35 308 b 154 231 120 308 154 274 b 77 154 154 189 119 154 z m 386 154 b 308 231 343 154 308 189 b 386 308 308 274 343 308 b 463 231 428 308 463 274 b 386 154 463 189 428 154 z m 694 154 b 617 231 652 154 617 189 b 694 308 617 274 652 308 b 772 231 737 308 772 274 b 694 154 772 189 737 154 z m 77 308 b 0 386 35 308 0 343 b 77 463 0 428 35 463 b 154 386 120 463 154 428 b 77 308 154 343 119 308 z m 386 308 b 308 386 343 308 308 343 b 386 463 308 428 343 463 b 463 386 428 463 463 428 b 386 308 463 343 428 308 z m 694 308 b 617 386 652 308 617 343 b 694 463 617 428 652 463 b 772 386 737 463 772 428 b 694 308 772 343 737 308 z m 77 463 b 0 540 35 463 0 497 b 77 617 0 583 35 617 b 154 540 120 617 154 583 b 77 463 154 497 119 463 z m 386 463 b 308 540 343 463 308 497 b 386 617 308 583 343 617 b 463 540 428 617 463 583 b 386 463 463 497 428 463 z m 694 463 b 617 540 652 463 617 497 b 694 617 617 583 652 617 b 772 540 737 617 772 583 b 694 463 772 497 737 463 z m 77 617 b 0 694 35 617 0 652 b 77 772 0 737 35 772 b 154 694 120 772 154 737 b 77 617 154 652 119 617 z m 694 617 b 617 694 652 617 617 652 b 694 772 617 737 652 772 b 772 694 737 772 772 737 b 694 617 772 652 737 617 z m 77 772 b 0 849 35 772 0 806 b 77 926 0 892 35 926 b 154 849 120 926 154 892 b 77 772 154 806 119 772 z m 694 772 b 617 849 652 772 617 806 b 694 926 617 892 652 926 b 772 849 737 926 772 892 b 694 772 772 806 737 772 z m 77 926 b 0 1003 35 926 0 960 b 77 1081 0 1046 35 1081 b 154 1003 120 1081 154 1046 b 77 926 154 960 119 926 z m 694 926 b 617 1003 652 926 617 960 b 694 1081 617 1046 652 1081 b 772 1003 737 1081 772 1046 b 694 926 772 960 737 926 z "},"X":{"ha":926,"x_min":0,"x_max":0,"o":"m 77 0 b 0 77 35 0 0 35 b 77 154 0 120 35 154 b 154 77 120 154 154 119 b 77 0 154 35 119 0 z m 694 0 b 617 77 652 0 617 35 b 694 154 617 120 652 154 b 772 77 737 154 772 119 b 694 0 772 35 737 0 z m 77 154 b 0 231 35 154 0 189 b 77 308 0 274 35 308 b 154 231 120 308 154 274 b 77 154 154 189 119 154 z m 694 154 b 617 231 652 154 617 189 b 694 308 617 274 652 308 b 772 231 737 308 772 274 b 694 154 772 189 737 154 z m 231 308 b 154 386 189 308 154 343 b 231 463 154 428 189 463 b 308 386 274 463 308 428 b 231 308 308 343 274 308 z m 540 308 b 463 386 497 308 463 343 b 540 463 463 428 497 463 b 617 386 583 463 617 428 b 540 308 617 343 583 308 z m 386 463 b 308 540 343 463 308 497 b 386 617 308 583 343 617 b 463 540 428 617 463 583 b 386 463 463 497 428 463 z m 231 617 b 154 694 189 617 154 652 b 231 772 154 737 189 772 b 308 694 274 772 308 737 b 231 617 308 652 274 617 z m 540 617 b 463 694 497 617 463 652 b 540 772 463 737 497 772 b 617 694 583 772 617 737 b 540 617 617 652 583 617 z m 77 772 b 0 849 35 772 0 806 b 77 926 0 892 35 926 b 154 849 120 926 154 892 b 77 772 154 806 119 772 z m 694 772 b 617 849 652 772 617 806 b 694 926 617 892 652 926 b 772 849 737 926 772 892 b 694 772 772 806 737 772 z m 77 926 b 0 1003 35 926 0 960 b 77 1081 0 1046 35 1081 b 154 1003 120 1081 154 1046 b 77 926 154 960 119 926 z m 694 926 b 617 1003 652 926 617 960 b 694 1081 617 1046 652 1081 b 772 1003 737 1081 772 1046 b 694 926 772 960 737 926 z "},"Y":{"ha":926,"x_min":0,"x_max":0,"o":"m 386 0 b 308 77 343 0 308 35 b 386 154 308 120 343 154 b 463 77 428 154 463 119 b 386 0 463 35 428 0 z m 386 154 b 308 231 343 154 308 189 b 386 308 308 274 343 308 b 463 231 428 308 463 274 b 386 154 463 189 428 154 z m 386 308 b 308 386 343 308 308 343 b 386 463 308 428 343 463 b 463 386 428 463 463 428 b 386 308 463 343 428 308 z m 386 463 b 308 540 343 463 308 497 b 386 617 308 583 343 617 b 463 540 428 617 463 583 b 386 463 463 497 428 463 z m 231 617 b 154 694 189 617 154 652 b 231 772 154 737 189 772 b 308 694 274 772 308 737 b 231 617 308 652 274 617 z m 540 617 b 463 694 497 617 463 652 b 540 772 463 737 497 772 b 617 694 583 772 617 737 b 540 617 617 652 583 617 z m 77 772 b 0 849 35 772 0 806 b 77 926 0 892 35 926 b 154 849 120 926 154 892 b 77 772 154 806 119 772 z m 694 772 b 617 849 652 772 617 806 b 694 926 617 892 652 926 b 772 849 737 926 772 892 b 694 772 772 806 737 772 z m 77 926 b 0 1003 35 926 0 960 b 77 1081 0 1046 35 1081 b 154 1003 120 1081 154 1046 b 77 926 154 960 119 926 z m 694 926 b 617 1003 652 926 617 960 b 694 1081 617 1046 652 1081 b 772 1003 737 1081 772 1046 b 694 926 772 960 737 926 z "},"Z":{"ha":926,"x_min":0,"x_max":0,"o":"m 77 0 b 0 77 35 0 0 35 b 77 154 0 120 35 154 b 154 77 120 154 154 119 b 77 0 154 35 119 0 z m 231 0 b 154 77 189 0 154 35 b 231 154 154 120 189 154 b 308 77 274 154 308 119 b 231 0 308 35 274 0 z m 386 0 b 308 77 343 0 308 35 b 386 154 308 120 343 154 b 463 77 428 154 463 119 b 386 0 463 35 428 0 z m 540 0 b 463 77 497 0 463 35 b 540 154 463 120 497 154 b 617 77 583 154 617 119 b 540 0 617 35 583 0 z m 694 0 b 617 77 652 0 617 35 b 694 154 617 120 652 154 b 772 77 737 154 772 119 b 694 0 772 35 737 0 z m 77 154 b 0 231 35 154 0 189 b 77 308 0 274 35 308 b 154 231 120 308 154 274 b 77 154 154 189 119 154 z m 231 308 b 154 386 189 308 154 343 b 231 463 154 428 189 463 b 308 386 274 463 308 428 b 231 308 308 343 274 308 z m 386 463 b 308 540 343 463 308 497 b 386 617 308 583 343 617 b 463 540 428 617 463 583 b 386 463 463 497 428 463 z m 540 617 b 463 694 497 617 463 652 b 540 772 463 737 497 772 b 617 694 583 772 617 737 b 540 617 617 652 583 617 z m 694 772 b 617 849 652 772 617 806 b 694 926 617 892 652 926 b 772 849 737 926 772 892 b 694 772 772 806 737 772 z m 77 926 b 0 1003 35 926 0 960 b 77 1081 0 1046 35 1081 b 154 1003 120 1081 154 1046 b 77 926 154 960 119 926 z m 231 926 b 154 1003 189 926 154 960 b 231 1081 154 1046 189 1081 b 308 1003 274 1081 308 1046 b 231 926 308 960 274 926 z m 386 926 b 308 1003 343 926 308 960 b 386 1081 308 1046 343 1081 b 463 1003 428 1081 463 1046 b 386 926 463 960 428 926 z m 540 926 b 463 1003 497 926 463 960 b 540 1081 463 1046 497 1081 b 617 1003 583 1081 617 1046 b 540 926 617 960 583 926 z m 694 926 b 617 1003 652 926 617 960 b 694 1081 617 1046 652 1081 b 772 1003 737 1081 772 1046 b 694 926 772 960 737 926 z "},"[":{"ha":617,"x_min":0,"x_max":0,"o":"m 77 0 b 0 77 35 0 0 35 b 77 154 0 120 35 154 b 154 77 120 154 154 119 b 77 0 154 35 119 0 z m 231 0 b 154 77 189 0 154 35 b 231 154 154 120 189 154 b 308 77 274 154 308 119 b 231 0 308 35 274 0 z m 386 0 b 308 77 343 0 308 35 b 386 154 308 120 343 154 b 463 77 428 154 463 119 b 386 0 463 35 428 0 z m 77 154 b 0 231 35 154 0 189 b 77 308 0 274 35 308 b 154 231 120 308 154 274 b 77 154 154 189 119 154 z m 77 308 b 0 386 35 308 0 343 b 77 463 0 428 35 463 b 154 386 120 463 154 428 b 77 308 154 343 119 308 z m 77 463 b 0 540 35 463 0 497 b 77 617 0 583 35 617 b 154 540 120 617 154 583 b 77 463 154 497 119 463 z m 77 617 b 0 694 35 617 0 652 b 77 772 0 737 35 772 b 154 694 120 772 154 737 b 77 617 154 652 119 617 z m 77 772 b 0 849 35 772 0 806 b 77 926 0 892 35 926 b 154 849 120 926 154 892 b 77 772 154 806 119 772 z m 77 926 b 0 1003 35 926 0 960 b 77 1081 0 1046 35 1081 b 154 1003 120 1081 154 1046 b 77 926 154 960 119 926 z m 231 926 b 154 1003 189 926 154 960 b 231 1081 154 1046 189 1081 b 308 1003 274 1081 308 1046 b 231 926 308 960 274 926 z m 386 926 b 308 1003 343 926 308 960 b 386 1081 308 1046 343 1081 b 463 1003 428 1081 463 1046 b 386 926 463 960 428 926 z "},"\\":{"ha":926,"x_min":0,"x_max":0,"o":"m 694 154 b 617 231 652 154 617 189 b 694 308 617 274 652 308 b 772 231 737 308 772 274 b 694 154 772 189 737 154 z m 540 308 b 463 386 497 308 463 343 b 540 463 463 428 497 463 b 617 386 583 463 617 428 b 540 308 617 343 583 308 z m 386 463 b 308 540 343 463 308 497 b 386 617 308 583 343 617 b 463 540 428 617 463 583 b 386 463 463 497 428 463 z m 231 617 b 154 694 189 617 154 652 b 231 772 154 737 189 772 b 308 694 274 772 308 737 b 231 617 308 652 274 617 z m 77 772 b 0 849 35 772 0 806 b 77 926 0 892 35 926 b 154 849 120 926 154 892 b 77 772 154 806 119 772 z "},"]":{"ha":617,"x_min":0,"x_max":0,"o":"m 77 0 b 0 77 35 0 0 35 b 77 154 0 120 35 154 b 154 77 120 154 154 119 b 77 0 154 35 119 0 z m 231 0 b 154 77 189 0 154 35 b 231 154 154 120 189 154 b 308 77 274 154 308 119 b 231 0 308 35 274 0 z m 386 0 b 308 77 343 0 308 35 b 386 154 308 120 343 154 b 463 77 428 154 463 119 b 386 0 463 35 428 0 z m 386 154 b 308 231 343 154 308 189 b 386 308 308 274 343 308 b 463 231 428 308 463 274 b 386 154 463 189 428 154 z m 386 308 b 308 386 343 308 308 343 b 386 463 308 428 343 463 b 463 386 428 463 463 428 b 386 308 463 343 428 308 z m 386 463 b 308 540 343 463 308 497 b 386 617 308 583 343 617 b 463 540 428 617 463 583 b 386 463 463 497 428 463 z m 386 617 b 308 694 343 617 308 652 b 386 772 308 737 343 772 b 463 694 428 772 463 737 b 386 617 463 652 428 617 z m 386 772 b 308 849 343 772 308 806 b 386 926 308 892 343 926 b 463 849 428 926 463 892 b 386 772 463 806 428 772 z m 77 926 b 0 1003 35 926 0 960 b 77 1081 0 1046 35 1081 b 154 1003 120 1081 154 1046 b 77 926 154 960 119 926 z m 231 926 b 154 1003 189 926 154 960 b 231 1081 154 1046 189 1081 b 308 1003 274 1081 308 1046 b 231 926 308 960 274 926 z m 386 926 b 308 1003 343 926 308 960 b 386 1081 308 1046 343 1081 b 463 1003 428 1081 463 1046 b 386 926 463 960 428 926 z "},"^":{"ha":926,"x_min":0,"x_max":0,"o":"m 77 617 b 0 694 35 617 0 652 b 77 772 0 737 35 772 b 154 694 120 772 154 737 b 77 617 154 652 119 617 z m 694 617 b 617 694 652 617 617 652 b 694 772 617 737 652 772 b 772 694 737 772 772 737 b 694 617 772 652 737 617 z m 231 772 b 154 849 189 772 154 806 b 231 926 154 892 189 926 b 308 849 274 926 308 892 b 231 772 308 806 274 772 z m 540 772 b 463 849 497 772 463 806 b 540 926 463 892 497 926 b 617 849 583 926 617 892 b 540 772 617 806 583 772 z m 386 926 b 308 1003 343 926 308 960 b 386 1081 308 1046 343 1081 b 463 1003 428 1081 463 1046 b 386 926 463 960 428 926 z "},"_":{"ha":926,"x_min":0,"x_max":0,"o":"m 77 0 b 0 77 35 0 0 35 b 77 154 0 120 35 154 b 154 77 120 154 154 119 b 77 0 154 35 119 0 z m 231 0 b 154 77 189 0 154 35 b 231 154 154 120 189 154 b 308 77 274 154 308 119 b 231 0 308 35 274 0 z m 386 0 b 308 77 343 0 308 35 b 386 154 308 120 343 154 b 463 77 428 154 463 119 b 386 0 463 35 428 0 z m 540 0 b 463 77 497 0 463 35 b 540 154 463 120 497 154 b 617 77 583 154 617 119 b 540 0 617 35 583 0 z m 694 0 b 617 77 652 0 617 35 b 694 154 617 120 652 154 b 772 77 737 154 772 119 b 694 0 772 35 737 0 z "},"`":{"ha":385,"x_min":0,"x_max":0,"o":"m 154 926 b 77 1003 112 926 77 960 b 154 1081 77 1046 112 1081 b 231 1003 197 1081 231 1046 b 154 926 231 960 197 926 z m 77 1081 b 0 1158 35 1081 0 1115 b 77 1235 0 1200 35 1235 b 154 1158 120 1235 154 1200 b 77 1081 154 1115 119 1081 z "},"a":{"ha":772,"x_min":0,"x_max":0,"o":"m 231 0 b 154 77 189 0 154 35 b 231 154 154 120 189 154 b 308 77 274 154 308 119 b 231 0 308 35 274 0 z m 386 0 b 308 77 343 0 308 35 b 386 154 308 120 343 154 b 463 77 428 154 463 119 b 386 0 463 35 428 0 z m 540 0 b 463 77 497 0 463 35 b 540 154 463 120 497 154 b 617 77 583 154 617 119 b 540 0 617 35 583 0 z m 77 154 b 0 231 35 154 0 189 b 77 308 0 274 35 308 b 154 231 120 308 154 274 b 77 154 154 189 119 154 z m 540 154 b 463 231 497 154 463 189 b 540 308 463 274 497 308 b 617 231 583 308 617 274 b 540 154 617 189 583 154 z m 231 308 b 154 386 189 308 154 343 b 231 463 154 428 189 463 b 308 386 274 463 308 428 b 231 308 308 343 274 308 z m 386 308 b 308 386 343 308 308 343 b 386 463 308 428 343 463 b 463 386 428 463 463 428 b 386 308 463 343 428 308 z m 540 308 b 463 386 497 308 463 343 b 540 463 463 428 497 463 b 617 386 583 463 617 428 b 540 308 617 343 583 308 z m 540 463 b 463 540 497 463 463 497 b 540 617 463 583 497 617 b 617 540 583 617 617 583 b 540 463 617 497 583 463 z m 77 617 b 0 694 35 617 0 652 b 77 772 0 737 35 772 b 154 694 120 772 154 737 b 77 617 154 652 119 617 z m 231 617 b 154 694 189 617 154 652 b 231 772 154 737 189 772 b 308 694 274 772 308 737 b 231 617 308 652 274 617 z m 386 617 b 308 694 343 617 308 652 b 386 772 308 737 343 772 b 463 694 428 772 463 737 b 386 617 463 652 428 617 z "},"b":{"ha":772,"x_min":0,"x_max":0,"o":"m 77 0 b 0 77 35 0 0 35 b 77 154 0 120 35 154 b 154 77 120 154 154 119 b 77 0 154 35 119 0 z m 231 0 b 154 77 189 0 154 35 b 231 154 154 120 189 154 b 308 77 274 154 308 119 b 231 0 308 35 274 0 z m 386 0 b 308 77 343 0 308 35 b 386 154 308 120 343 154 b 463 77 428 154 463 119 b 386 0 463 35 428 0 z m 77 154 b 0 231 35 154 0 189 b 77 308 0 274 35 308 b 154 231 120 308 154 274 b 77 154 154 189 119 154 z m 540 154 b 463 231 497 154 463 189 b 540 308 463 274 497 308 b 617 231 583 308 617 274 b 540 154 617 189 583 154 z m 77 308 b 0 386 35 308 0 343 b 77 463 0 428 35 463 b 154 386 120 463 154 428 b 77 308 154 343 119 308 z m 540 308 b 463 386 497 308 463 343 b 540 463 463 428 497 463 b 617 386 583 463 617 428 b 540 308 617 343 583 308 z m 77 463 b 0 540 35 463 0 497 b 77 617 0 583 35 617 b 154 540 120 617 154 583 b 77 463 154 497 119 463 z m 540 463 b 463 540 497 463 463 497 b 540 617 463 583 497 617 b 617 540 583 617 617 583 b 540 463 617 497 583 463 z m 77 617 b 0 694 35 617 0 652 b 77 772 0 737 35 772 b 154 694 120 772 154 737 b 77 617 154 652 119 617 z m 231 617 b 154 694 189 617 154 652 b 231 772 154 737 189 772 b 308 694 274 772 308 737 b 231 617 308 652 274 617 z m 386 617 b 308 694 343 617 308 652 b 386 772 308 737 343 772 b 463 694 428 772 463 737 b 386 617 463 652 428 617 z m 77 772 b 0 849 35 772 0 806 b 77 926 0 892 35 926 b 154 849 120 926 154 892 b 77 772 154 806 119 772 z m 77 926 b 0 1003 35 926 0 960 b 77 1081 0 1046 35 1081 b 154 1003 120 1081 154 1046 b 77 926 154 960 119 926 z "},"c":{"ha":772,"x_min":0,"x_max":0,"o":"m 231 0 b 154 77 189 0 154 35 b 231 154 154 120 189 154 b 308 77 274 154 308 119 b 231 0 308 35 274 0 z m 386 0 b 308 77 343 0 308 35 b 386 154 308 120 343 154 b 463 77 428 154 463 119 b 386 0 463 35 428 0 z m 540 0 b 463 77 497 0 463 35 b 540 154 463 120 497 154 b 617 77 583 154 617 119 b 540 0 617 35 583 0 z m 77 154 b 0 231 35 154 0 189 b 77 308 0 274 35 308 b 154 231 120 308 154 274 b 77 154 154 189 119 154 z m 77 308 b 0 386 35 308 0 343 b 77 463 0 428 35 463 b 154 386 120 463 154 428 b 77 308 154 343 119 308 z m 77 463 b 0 540 35 463 0 497 b 77 617 0 583 35 617 b 154 540 120 617 154 583 b 77 463 154 497 119 463 z m 231 617 b 154 694 189 617 154 652 b 231 772 154 737 189 772 b 308 694 274 772 308 737 b 231 617 308 652 274 617 z m 386 617 b 308 694 343 617 308 652 b 386 772 308 737 343 772 b 463 694 428 772 463 737 b 386 617 463 652 428 617 z m 540 617 b 463 694 497 617 463 652 b 540 772 463 737 497 772 b 617 694 583 772 617 737 b 540 617 617 652 583 617 z "},"d":{"ha":772,"x_min":0,"x_max":0,"o":"m 231 0 b 154 77 189 0 154 35 b 231 154 154 120 189 154 b 308 77 274 154 308 119 b 231 0 308 35 274 0 z m 386 0 b 308 77 343 0 308 35 b 386 154 308 120 343 154 b 463 77 428 154 463 119 b 386 0 463 35 428 0 z m 77 154 b 0 231 35 154 0 189 b 77 308 0 274 35 308 b 154 231 120 308 154 274 b 77 154 154 189 119 154 z m 540 154 b 463 231 497 154 463 189 b 540 308 463 274 497 308 b 617 231 583 308 617 274 b 540 154 617 189 583 154 z m 77 308 b 0 386 35 308 0 343 b 77 463 0 428 35 463 b 154 386 120 463 154 428 b 77 308 154 343 119 308 z m 540 308 b 463 386 497 308 463 343 b 540 463 463 428 497 463 b 617 386 583 463 617 428 b 540 308 617 343 583 308 z m 77 463 b 0 540 35 463 0 497 b 77 617 0 583 35 617 b 154 540 120 617 154 583 b 77 463 154 497 119 463 z m 540 463 b 463 540 497 463 463 497 b 540 617 463 583 497 617 b 617 540 583 617 617 583 b 540 463 617 497 583 463 z m 231 617 b 154 694 189 617 154 652 b 231 772 154 737 189 772 b 308 694 274 772 308 737 b 231 617 308 652 274 617 z m 386 617 b 308 694 343 617 308 652 b 386 772 308 737 343 772 b 463 694 428 772 463 737 b 386 617 463 652 428 617 z m 540 617 b 463 694 497 617 463 652 b 540 772 463 737 497 772 b 617 694 583 772 617 737 b 540 617 617 652 583 617 z m 540 772 b 463 849 497 772 463 806 b 540 926 463 892 497 926 b 617 849 583 926 617 892 b 540 772 617 806 583 772 z m 540 926 b 463 1003 497 926 463 960 b 540 1081 463 1046 497 1081 b 617 1003 583 1081 617 1046 b 540 926 617 960 583 926 z "},"e":{"ha":772,"x_min":0,"x_max":0,"o":"m 231 0 b 154 77 189 0 154 35 b 231 154 154 120 189 154 b 308 77 274 154 308 119 b 231 0 308 35 274 0 z m 386 0 b 308 77 343 0 308 35 b 386 154 308 120 343 154 b 463 77 428 154 463 119 b 386 0 463 35 428 0 z m 540 0 b 463 77 497 0 463 35 b 540 154 463 120 497 154 b 617 77 583 154 617 119 b 540 0 617 35 583 0 z m 77 154 b 0 231 35 154 0 189 b 77 308 0 274 35 308 b 154 231 120 308 154 274 b 77 154 154 189 119 154 z m 77 308 b 0 386 35 308 0 343 b 77 463 0 428 35 463 b 154 386 120 463 154 428 b 77 308 154 343 119 308 z m 231 308 b 154 386 189 308 154 343 b 231 463 154 428 189 463 b 308 386 274 463 308 428 b 231 308 308 343 274 308 z m 386 308 b 308 386 343 308 308 343 b 386 463 308 428 343 463 b 463 386 428 463 463 428 b 386 308 463 343 428 308 z m 540 308 b 463 386 497 308 463 343 b 540 463 463 428 497 463 b 617 386 583 463 617 428 b 540 308 617 343 583 308 z m 77 463 b 0 540 35 463 0 497 b 77 617 0 583 35 617 b 154 540 120 617 154 583 b 77 463 154 497 119 463 z m 540 463 b 463 540 497 463 463 497 b 540 617 463 583 497 617 b 617 540 583 617 617 583 b 540 463 617 497 583 463 z m 231 617 b 154 694 189 617 154 652 b 231 772 154 737 189 772 b 308 694 274 772 308 737 b 231 617 308 652 274 617 z m 386 617 b 308 694 343 617 308 652 b 386 772 308 737 343 772 b 463 694 428 772 463 737 b 386 617 463 652 428 617 z "},"f":{"ha":772,"x_min":0,"x_max":0,"o":"m 231 0 b 154 77 189 0 154 35 b 231 154 154 120 189 154 b 308 77 274 154 308 119 b 231 0 308 35 274 0 z m 231 154 b 154 231 189 154 154 189 b 231 308 154 274 189 308 b 308 231 274 308 308 274 b 231 154 308 189 274 154 z m 231 308 b 154 386 189 308 154 343 b 231 463 154 428 189 463 b 308 386 274 463 308 428 b 231 308 308 343 274 308 z m 231 463 b 154 540 189 463 154 497 b 231 617 154 583 189 617 b 308 540 274 617 308 583 b 231 463 308 497 274 463 z m 77 617 b 0 694 35 617 0 652 b 77 772 0 737 35 772 b 154 694 120 772 154 737 b 77 617 154 652 119 617 z m 231 617 b 154 694 189 617 154 652 b 231 772 154 737 189 772 b 308 694 274 772 308 737 b 231 617 308 652 274 617 z m 386 617 b 308 694 343 617 308 652 b 386 772 308 737 343 772 b 463 694 428 772 463 737 b 386 617 463 652 428 617 z m 540 617 b 463 694 497 617 463 652 b 540 772 463 737 497 772 b 617 694 583 772 617 737 b 540 617 617 652 583 617 z m 231 772 b 154 849 189 772 154 806 b 231 926 154 892 189 926 b 308 849 274 926 308 892 b 231 772 308 806 274 772 z m 386 926 b 308 1003 343 926 308 960 b 386 1081 308 1046 343 1081 b 463 1003 428 1081 463 1046 b 386 926 463 960 428 926 z m 540 926 b 463 1003 497 926 463 960 b 540 1081 463 1046 497 1081 b 617 1003 583 1081 617 1046 b 540 926 617 960 583 926 z "},"g":{"ha":772,"x_min":0,"x_max":0,"o":"m 77 -308 b 0 -231 35 -308 0 -274 b 77 -154 0 -189 35 -154 b 154 -231 120 -154 154 -189 b 77 -308 154 -274 119 -308 z m 231 -308 b 154 -231 189 -308 154 -274 b 231 -154 154 -189 189 -154 b 308 -231 274 -154 308 -189 b 231 -308 308 -274 274 -308 z m 386 -308 b 308 -231 343 -308 308 -274 b 386 -154 308 -189 343 -154 b 463 -231 428 -154 463 -189 b 386 -308 463 -274 428 -308 z m 540 -154 b 463 -77 497 -154 463 -119 b 540 0 463 -35 497 0 b 617 -77 583 0 617 -35 b 540 -154 617 -120 583 -154 z m 231 0 b 154 77 189 0 154 35 b 231 154 154 120 189 154 b 308 77 274 154 308 119 b 231 0 308 35 274 0 z m 386 0 b 308 77 343 0 308 35 b 386 154 308 120 343 154 b 463 77 428 154 463 119 b 386 0 463 35 428 0 z m 540 0 b 463 77 497 0 463 35 b 540 154 463 120 497 154 b 617 77 583 154 617 119 b 540 0 617 35 583 0 z m 77 154 b 0 231 35 154 0 189 b 77 308 0 274 35 308 b 154 231 120 308 154 274 b 77 154 154 189 119 154 z m 540 154 b 463 231 497 154 463 189 b 540 308 463 274 497 308 b 617 231 583 308 617 274 b 540 154 617 189 583 154 z m 77 308 b 0 386 35 308 0 343 b 77 463 0 428 35 463 b 154 386 120 463 154 428 b 77 308 154 343 119 308 z m 540 308 b 463 386 497 308 463 343 b 540 463 463 428 497 463 b 617 386 583 463 617 428 b 540 308 617 343 583 308 z m 77 463 b 0 540 35 463 0 497 b 77 617 0 583 35 617 b 154 540 120 617 154 583 b 77 463 154 497 119 463 z m 540 463 b 463 540 497 463 463 497 b 540 617 463 583 497 617 b 617 540 583 617 617 583 b 540 463 617 497 583 463 z m 231 617 b 154 694 189 617 154 652 b 231 772 154 737 189 772 b 308 694 274 772 308 737 b 231 617 308 652 274 617 z m 386 617 b 308 694 343 617 308 652 b 386 772 308 737 343 772 b 463 694 428 772 463 737 b 386 617 463 652 428 617 z m 540 617 b 463 694 497 617 463 652 b 540 772 463 737 497 772 b 617 694 583 772 617 737 b 540 617 617 652 583 617 z "},"h":{"ha":772,"x_min":0,"x_max":0,"o":"m 77 0 b 0 77 35 0 0 35 b 77 154 0 120 35 154 b 154 77 120 154 154 119 b 77 0 154 35 119 0 z m 540 0 b 463 77 497 0 463 35 b 540 154 463 120 497 154 b 617 77 583 154 617 119 b 540 0 617 35 583 0 z m 77 154 b 0 231 35 154 0 189 b 77 308 0 274 35 308 b 154 231 120 308 154 274 b 77 154 154 189 119 154 z m 540 154 b 463 231 497 154 463 189 b 540 308 463 274 497 308 b 617 231 583 308 617 274 b 540 154 617 189 583 154 z m 77 308 b 0 386 35 308 0 343 b 77 463 0 428 35 463 b 154 386 120 463 154 428 b 77 308 154 343 119 308 z m 540 308 b 463 386 497 308 463 343 b 540 463 463 428 497 463 b 617 386 583 463 617 428 b 540 308 617 343 583 308 z m 77 463 b 0 540 35 463 0 497 b 77 617 0 583 35 617 b 154 540 120 617 154 583 b 77 463 154 497 119 463 z m 231 463 b 154 540 189 463 154 497 b 231 617 154 583 189 617 b 308 540 274 617 308 583 b 231 463 308 497 274 463 z m 540 463 b 463 540 497 463 463 497 b 540 617 463 583 497 617 b 617 540 583 617 617 583 b 540 463 617 497 583 463 z m 77 617 b 0 694 35 617 0 652 b 77 772 0 737 35 772 b 154 694 120 772 154 737 b 77 617 154 652 119 617 z m 386 617 b 308 694 343 617 308 652 b 386 772 308 737 343 772 b 463 694 428 772 463 737 b 386 617 463 652 428 617 z m 77 772 b 0 849 35 772 0 806 b 77 926 0 892 35 926 b 154 849 120 926 154 892 b 77 772 154 806 119 772 z m 77 926 b 0 1003 35 926 0 960 b 77 1081 0 1046 35 1081 b 154 1003 120 1081 154 1046 b 77 926 154 960 119 926 z "},"i":{"ha":617,"x_min":0,"x_max":0,"o":"m 231 0 b 154 77 189 0 154 35 b 231 154 154 120 189 154 b 308 77 274 154 308 119 b 231 0 308 35 274 0 z m 386 0 b 308 77 343 0 308 35 b 386 154 308 120 343 154 b 463 77 428 154 463 119 b 386 0 463 35 428 0 z m 231 154 b 154 231 189 154 154 189 b 231 308 154 274 189 308 b 308 231 274 308 308 274 b 231 154 308 189 274 154 z m 231 308 b 154 386 189 308 154 343 b 231 463 154 428 189 463 b 308 386 274 463 308 428 b 231 308 308 343 274 308 z m 231 463 b 154 540 189 463 154 497 b 231 617 154 583 189 617 b 308 540 274 617 308 583 b 231 463 308 497 274 463 z m 77 617 b 0 694 35 617 0 652 b 77 772 0 737 35 772 b 154 694 120 772 154 737 b 77 617 154 652 119 617 z m 231 617 b 154 694 189 617 154 652 b 231 772 154 737 189 772 b 308 694 274 772 308 737 b 231 617 308 652 274 617 z m 231 926 b 154 1003 189 926 154 960 b 231 1081 154 1046 189 1081 b 308 1003 274 1081 308 1046 b 231 926 308 960 274 926 z "},"j":{"ha":463,"x_min":0,"x_max":0,"o":"m 77 -308 b 0 -231 35 -308 0 -274 b 77 -154 0 -189 35 -154 b 154 -231 120 -154 154 -189 b 77 -308 154 -274 119 -308 z m 231 -154 b 154 -77 189 -154 154 -119 b 231 0 154 -35 189 0 b 308 -77 274 0 308 -35 b 231 -154 308 -120 274 -154 z m 231 0 b 154 77 189 0 154 35 b 231 154 154 120 189 154 b 308 77 274 154 308 119 b 231 0 308 35 274 0 z m 231 154 b 154 231 189 154 154 189 b 231 308 154 274 189 308 b 308 231 274 308 308 274 b 231 154 308 189 274 154 z m 231 308 b 154 386 189 308 154 343 b 231 463 154 428 189 463 b 308 386 274 463 308 428 b 231 308 308 343 274 308 z m 231 463 b 154 540 189 463 154 497 b 231 617 154 583 189 617 b 308 540 274 617 308 583 b 231 463 308 497 274 463 z m 77 617 b 0 694 35 617 0 652 b 77 772 0 737 35 772 b 154 694 120 772 154 737 b 77 617 154 652 119 617 z m 231 617 b 154 694 189 617 154 652 b 231 772 154 737 189 772 b 308 694 274 772 308 737 b 231 617 308 652 274 617 z m 231 926 b 154 1003 189 926 154 960 b 231 1081 154 1046 189 1081 b 308 1003 274 1081 308 1046 b 231 926 308 960 274 926 z "},"k":{"ha":772,"x_min":0,"x_max":0,"o":"m 77 0 b 0 77 35 0 0 35 b 77 154 0 120 35 154 b 154 77 120 154 154 119 b 77 0 154 35 119 0 z m 540 0 b 463 77 497 0 463 35 b 540 154 463 120 497 154 b 617 77 583 154 617 119 b 540 0 617 35 583 0 z m 77 154 b 0 231 35 154 0 189 b 77 308 0 274 35 308 b 154 231 120 308 154 274 b 77 154 154 189 119 154 z m 386 154 b 308 231 343 154 308 189 b 386 308 308 274 343 308 b 463 231 428 308 463 274 b 386 154 463 189 428 154 z m 77 308 b 0 386 35 308 0 343 b 77 463 0 428 35 463 b 154 386 120 463 154 428 b 77 308 154 343 119 308 z m 231 308 b 154 386 189 308 154 343 b 231 463 154 428 189 463 b 308 386 274 463 308 428 b 231 308 308 343 274 308 z m 77 463 b 0 540 35 463 0 497 b 77 617 0 583 35 617 b 154 540 120 617 154 583 b 77 463 154 497 119 463 z m 386 463 b 308 540 343 463 308 497 b 386 617 308 583 343 617 b 463 540 428 617 463 583 b 386 463 463 497 428 463 z m 77 617 b 0 694 35 617 0 652 b 77 772 0 737 35 772 b 154 694 120 772 154 737 b 77 617 154 652 119 617 z m 540 617 b 463 694 497 617 463 652 b 540 772 463 737 497 772 b 617 694 583 772 617 737 b 540 617 617 652 583 617 z m 77 772 b 0 849 35 772 0 806 b 77 926 0 892 35 926 b 154 849 120 926 154 892 b 77 772 154 806 119 772 z m 77 926 b 0 1003 35 926 0 960 b 77 1081 0 1046 35 1081 b 154 1003 120 1081 154 1046 b 77 926 154 960 119 926 z "},"l":{"ha":308,"x_min":0,"x_max":0,"o":"m 77 0 b 0 77 35 0 0 35 b 77 154 0 120 35 154 b 154 77 120 154 154 119 b 77 0 154 35 119 0 z m 77 154 b 0 231 35 154 0 189 b 77 308 0 274 35 308 b 154 231 120 308 154 274 b 77 154 154 189 119 154 z m 77 308 b 0 386 35 308 0 343 b 77 463 0 428 35 463 b 154 386 120 463 154 428 b 77 308 154 343 119 308 z m 77 463 b 0 540 35 463 0 497 b 77 617 0 583 35 617 b 154 540 120 617 154 583 b 77 463 154 497 119 463 z m 77 617 b 0 694 35 617 0 652 b 77 772 0 737 35 772 b 154 694 120 772 154 737 b 77 617 154 652 119 617 z m 77 772 b 0 849 35 772 0 806 b 77 926 0 892 35 926 b 154 849 120 926 154 892 b 77 772 154 806 119 772 z m 77 926 b 0 1003 35 926 0 960 b 77 1081 0 1046 35 1081 b 154 1003 120 1081 154 1046 b 77 926 154 960 119 926 z "},"m":{"ha":1234,"x_min":0,"x_max":0,"o":"m 77 0 b 0 77 35 0 0 35 b 77 154 0 120 35 154 b 154 77 120 154 154 119 b 77 0 154 35 119 0 z m 540 0 b 463 77 497 0 463 35 b 540 154 463 120 497 154 b 617 77 583 154 617 119 b 540 0 617 35 583 0 z m 1003 0 b 926 77 960 0 926 35 b 1003 154 926 120 960 154 b 1081 77 1046 154 1081 119 b 1003 0 1081 35 1046 0 z m 77 154 b 0 231 35 154 0 189 b 77 308 0 274 35 308 b 154 231 120 308 154 274 b 77 154 154 189 119 154 z m 540 154 b 463 231 497 154 463 189 b 540 308 463 274 497 308 b 617 231 583 308 617 274 b 540 154 617 189 583 154 z m 1003 154 b 926 231 960 154 926 189 b 1003 308 926 274 960 308 b 1081 231 1046 308 1081 274 b 1003 154 1081 189 1046 154 z m 77 308 b 0 386 35 308 0 343 b 77 463 0 428 35 463 b 154 386 120 463 154 428 b 77 308 154 343 119 308 z m 540 308 b 463 386 497 308 463 343 b 540 463 463 428 497 463 b 617 386 583 463 617 428 b 540 308 617 343 583 308 z m 1003 308 b 926 386 960 308 926 343 b 1003 463 926 428 960 463 b 1081 386 1046 463 1081 428 b 1003 308 1081 343 1046 308 z m 77 463 b 0 540 35 463 0 497 b 77 617 0 583 35 617 b 154 540 120 617 154 583 b 77 463 154 497 119 463 z m 231 463 b 154 540 189 463 154 497 b 231 617 154 583 189 617 b 308 540 274 617 308 583 b 231 463 308 497 274 463 z m 540 463 b 463 540 497 463 463 497 b 540 617 463 583 497 617 b 617 540 583 617 617 583 b 540 463 617 497 583 463 z m 694 463 b 617 540 652 463 617 497 b 694 617 617 583 652 617 b 772 540 737 617 772 583 b 694 463 772 497 737 463 z m 1003 463 b 926 540 960 463 926 497 b 1003 617 926 583 960 617 b 1081 540 1046 617 1081 583 b 1003 463 1081 497 1046 463 z m 77 617 b 0 694 35 617 0 652 b 77 772 0 737 35 772 b 154 694 120 772 154 737 b 77 617 154 652 119 617 z m 386 617 b 308 694 343 617 308 652 b 386 772 308 737 343 772 b 463 694 428 772 463 737 b 386 617 463 652 428 617 z m 849 617 b 772 694 806 617 772 652 b 849 772 772 737 806 772 b 926 694 892 772 926 737 b 849 617 926 652 892 617 z "},"n":{"ha":772,"x_min":0,"x_max":0,"o":"m 77 0 b 0 77 35 0 0 35 b 77 154 0 120 35 154 b 154 77 120 154 154 119 b 77 0 154 35 119 0 z m 540 0 b 463 77 497 0 463 35 b 540 154 463 120 497 154 b 617 77 583 154 617 119 b 540 0 617 35 583 0 z m 77 154 b 0 231 35 154 0 189 b 77 308 0 274 35 308 b 154 231 120 308 154 274 b 77 154 154 189 119 154 z m 540 154 b 463 231 497 154 463 189 b 540 308 463 274 497 308 b 617 231 583 308 617 274 b 540 154 617 189 583 154 z m 77 308 b 0 386 35 308 0 343 b 77 463 0 428 35 463 b 154 386 120 463 154 428 b 77 308 154 343 119 308 z m 540 308 b 463 386 497 308 463 343 b 540 463 463 428 497 463 b 617 386 583 463 617 428 b 540 308 617 343 583 308 z m 77 463 b 0 540 35 463 0 497 b 77 617 0 583 35 617 b 154 540 120 617 154 583 b 77 463 154 497 119 463 z m 231 463 b 154 540 189 463 154 497 b 231 617 154 583 189 617 b 308 540 274 617 308 583 b 231 463 308 497 274 463 z m 540 463 b 463 540 497 463 463 497 b 540 617 463 583 497 617 b 617 540 583 617 617 583 b 540 463 617 497 583 463 z m 77 617 b 0 694 35 617 0 652 b 77 772 0 737 35 772 b 154 694 120 772 154 737 b 77 617 154 652 119 617 z m 386 617 b 308 694 343 617 308 652 b 386 772 308 737 343 772 b 463 694 428 772 463 737 b 386 617 463 652 428 617 z "},"o":{"ha":772,"x_min":0,"x_max":0,"o":"m 231 0 b 154 77 189 0 154 35 b 231 154 154 120 189 154 b 308 77 274 154 308 119 b 231 0 308 35 274 0 z m 386 0 b 308 77 343 0 308 35 b 386 154 308 120 343 154 b 463 77 428 154 463 119 b 386 0 463 35 428 0 z m 77 154 b 0 231 35 154 0 189 b 77 308 0 274 35 308 b 154 231 120 308 154 274 b 77 154 154 189 119 154 z m 540 154 b 463 231 497 154 463 189 b 540 308 463 274 497 308 b 617 231 583 308 617 274 b 540 154 617 189 583 154 z m 77 308 b 0 386 35 308 0 343 b 77 463 0 428 35 463 b 154 386 120 463 154 428 b 77 308 154 343 119 308 z m 540 308 b 463 386 497 308 463 343 b 540 463 463 428 497 463 b 617 386 583 463 617 428 b 540 308 617 343 583 308 z m 77 463 b 0 540 35 463 0 497 b 77 617 0 583 35 617 b 154 540 120 617 154 583 b 77 463 154 497 119 463 z m 540 463 b 463 540 497 463 463 497 b 540 617 463 583 497 617 b 617 540 583 617 617 583 b 540 463 617 497 583 463 z m 231 617 b 154 694 189 617 154 652 b 231 772 154 737 189 772 b 308 694 274 772 308 737 b 231 617 308 652 274 617 z m 386 617 b 308 694 343 617 308 652 b 386 772 308 737 343 772 b 463 694 428 772 463 737 b 386 617 463 652 428 617 z "},"p":{"ha":772,"x_min":0,"x_max":0,"o":"m 77 -308 b 0 -231 35 -308 0 -274 b 77 -154 0 -189 35 -154 b 154 -231 120 -154 154 -189 b 77 -308 154 -274 119 -308 z m 77 -154 b 0 -77 35 -154 0 -119 b 77 0 0 -35 35 0 b 154 -77 120 0 154 -35 b 77 -154 154 -120 119 -154 z m 77 0 b 0 77 35 0 0 35 b 77 154 0 120 35 154 b 154 77 120 154 154 119 b 77 0 154 35 119 0 z m 231 0 b 154 77 189 0 154 35 b 231 154 154 120 189 154 b 308 77 274 154 308 119 b 231 0 308 35 274 0 z m 386 0 b 308 77 343 0 308 35 b 386 154 308 120 343 154 b 463 77 428 154 463 119 b 386 0 463 35 428 0 z m 77 154 b 0 231 35 154 0 189 b 77 308 0 274 35 308 b 154 231 120 308 154 274 b 77 154 154 189 119 154 z m 540 154 b 463 231 497 154 463 189 b 540 308 463 274 497 308 b 617 231 583 308 617 274 b 540 154 617 189 583 154 z m 77 308 b 0 386 35 308 0 343 b 77 463 0 428 35 463 b 154 386 120 463 154 428 b 77 308 154 343 119 308 z m 540 308 b 463 386 497 308 463 343 b 540 463 463 428 497 463 b 617 386 583 463 617 428 b 540 308 617 343 583 308 z m 77 463 b 0 540 35 463 0 497 b 77 617 0 583 35 617 b 154 540 120 617 154 583 b 77 463 154 497 119 463 z m 540 463 b 463 540 497 463 463 497 b 540 617 463 583 497 617 b 617 540 583 617 617 583 b 540 463 617 497 583 463 z m 77 617 b 0 694 35 617 0 652 b 77 772 0 737 35 772 b 154 694 120 772 154 737 b 77 617 154 652 119 617 z m 231 617 b 154 694 189 617 154 652 b 231 772 154 737 189 772 b 308 694 274 772 308 737 b 231 617 308 652 274 617 z m 386 617 b 308 694 343 617 308 652 b 386 772 308 737 343 772 b 463 694 428 772 463 737 b 386 617 463 652 428 617 z "},"q":{"ha":772,"x_min":0,"x_max":0,"o":"m 540 -308 b 463 -231 497 -308 463 -274 b 540 -154 463 -189 497 -154 b 617 -231 583 -154 617 -189 b 540 -308 617 -274 583 -308 z m 540 -154 b 463 -77 497 -154 463 -119 b 540 0 463 -35 497 0 b 617 -77 583 0 617 -35 b 540 -154 617 -120 583 -154 z m 231 0 b 154 77 189 0 154 35 b 231 154 154 120 189 154 b 308 77 274 154 308 119 b 231 0 308 35 274 0 z m 386 0 b 308 77 343 0 308 35 b 386 154 308 120 343 154 b 463 77 428 154 463 119 b 386 0 463 35 428 0 z m 540 0 b 463 77 497 0 463 35 b 540 154 463 120 497 154 b 617 77 583 154 617 119 b 540 0 617 35 583 0 z m 77 154 b 0 231 35 154 0 189 b 77 308 0 274 35 308 b 154 231 120 308 154 274 b 77 154 154 189 119 154 z m 540 154 b 463 231 497 154 463 189 b 540 308 463 274 497 308 b 617 231 583 308 617 274 b 540 154 617 189 583 154 z m 77 308 b 0 386 35 308 0 343 b 77 463 0 428 35 463 b 154 386 120 463 154 428 b 77 308 154 343 119 308 z m 540 308 b 463 386 497 308 463 343 b 540 463 463 428 497 463 b 617 386 583 463 617 428 b 540 308 617 343 583 308 z m 77 463 b 0 540 35 463 0 497 b 77 617 0 583 35 617 b 154 540 120 617 154 583 b 77 463 154 497 119 463 z m 540 463 b 463 540 497 463 463 497 b 540 617 463 583 497 617 b 617 540 583 617 617 583 b 540 463 617 497 583 463 z m 231 617 b 154 694 189 617 154 652 b 231 772 154 737 189 772 b 308 694 274 772 308 737 b 231 617 308 652 274 617 z m 386 617 b 308 694 343 617 308 652 b 386 772 308 737 343 772 b 463 694 428 772 463 737 b 386 617 463 652 428 617 z "},"r":{"ha":772,"x_min":0,"x_max":0,"o":"m 77 0 b 0 77 35 0 0 35 b 77 154 0 120 35 154 b 154 77 120 154 154 119 b 77 0 154 35 119 0 z m 77 154 b 0 231 35 154 0 189 b 77 308 0 274 35 308 b 154 231 120 308 154 274 b 77 154 154 189 119 154 z m 77 308 b 0 386 35 308 0 343 b 77 463 0 428 35 463 b 154 386 120 463 154 428 b 77 308 154 343 119 308 z m 77 463 b 0 540 35 463 0 497 b 77 617 0 583 35 617 b 154 540 120 617 154 583 b 77 463 154 497 119 463 z m 231 463 b 154 540 189 463 154 497 b 231 617 154 583 189 617 b 308 540 274 617 308 583 b 231 463 308 497 274 463 z m 77 617 b 0 694 35 617 0 652 b 77 772 0 737 35 772 b 154 694 120 772 154 737 b 77 617 154 652 119 617 z m 386 617 b 308 694 343 617 308 652 b 386 772 308 737 343 772 b 463 694 428 772 463 737 b 386 617 463 652 428 617 z m 540 617 b 463 694 497 617 463 652 b 540 772 463 737 497 772 b 617 694 583 772 617 737 b 540 617 617 652 583 617 z "},"s":{"ha":772,"x_min":0,"x_max":0,"o":"m 77 0 b 0 77 35 0 0 35 b 77 154 0 120 35 154 b 154 77 120 154 154 119 b 77 0 154 35 119 0 z m 231 0 b 154 77 189 0 154 35 b 231 154 154 120 189 154 b 308 77 274 154 308 119 b 231 0 308 35 274 0 z m 386 0 b 308 77 343 0 308 35 b 386 154 308 120 343 154 b 463 77 428 154 463 119 b 386 0 463 35 428 0 z m 540 154 b 463 231 497 154 463 189 b 540 308 463 274 497 308 b 617 231 583 308 617 274 b 540 154 617 189 583 154 z m 231 308 b 154 386 189 308 154 343 b 231 463 154 428 189 463 b 308 386 274 463 308 428 b 231 308 308 343 274 308 z m 386 308 b 308 386 343 308 308 343 b 386 463 308 428 343 463 b 463 386 428 463 463 428 b 386 308 463 343 428 308 z m 77 463 b 0 540 35 463 0 497 b 77 617 0 583 35 617 b 154 540 120 617 154 583 b 77 463 154 497 119 463 z m 231 617 b 154 694 189 617 154 652 b 231 772 154 737 189 772 b 308 694 274 772 308 737 b 231 617 308 652 274 617 z m 386 617 b 308 694 343 617 308 652 b 386 772 308 737 343 772 b 463 694 428 772 463 737 b 386 617 463 652 428 617 z m 540 617 b 463 694 497 617 463 652 b 540 772 463 737 497 772 b 617 694 583 772 617 737 b 540 617 617 652 583 617 z "},"t":{"ha":772,"x_min":0,"x_max":0,"o":"m 386 0 b 308 77 343 0 308 35 b 386 154 308 120 343 154 b 463 77 428 154 463 119 b 386 0 463 35 428 0 z m 540 0 b 463 77 497 0 463 35 b 540 154 463 120 497 154 b 617 77 583 154 617 119 b 540 0 617 35 583 0 z m 231 154 b 154 231 189 154 154 189 b 231 308 154 274 189 308 b 308 231 274 308 308 274 b 231 154 308 189 274 154 z m 231 308 b 154 386 189 308 154 343 b 231 463 154 428 189 463 b 308 386 274 463 308 428 b 231 308 308 343 274 308 z m 231 463 b 154 540 189 463 154 497 b 231 617 154 583 189 617 b 308 540 274 617 308 583 b 231 463 308 497 274 463 z m 77 617 b 0 694 35 617 0 652 b 77 772 0 737 35 772 b 154 694 120 772 154 737 b 77 617 154 652 119 617 z m 231 617 b 154 694 189 617 154 652 b 231 772 154 737 189 772 b 308 694 274 772 308 737 b 231 617 308 652 274 617 z m 386 617 b 308 694 343 617 308 652 b 386 772 308 737 343 772 b 463 694 428 772 463 737 b 386 617 463 652 428 617 z m 540 617 b 463 694 497 617 463 652 b 540 772 463 737 497 772 b 617 694 583 772 617 737 b 540 617 617 652 583 617 z m 231 772 b 154 849 189 772 154 806 b 231 926 154 892 189 926 b 308 849 274 926 308 892 b 231 772 308 806 274 772 z "},"u":{"ha":772,"x_min":0,"x_max":0,"o":"m 231 0 b 154 77 189 0 154 35 b 231 154 154 120 189 154 b 308 77 274 154 308 119 b 231 0 308 35 274 0 z m 386 0 b 308 77 343 0 308 35 b 386 154 308 120 343 154 b 463 77 428 154 463 119 b 386 0 463 35 428 0 z m 540 0 b 463 77 497 0 463 35 b 540 154 463 120 497 154 b 617 77 583 154 617 119 b 540 0 617 35 583 0 z m 77 154 b 0 231 35 154 0 189 b 77 308 0 274 35 308 b 154 231 120 308 154 274 b 77 154 154 189 119 154 z m 540 154 b 463 231 497 154 463 189 b 540 308 463 274 497 308 b 617 231 583 308 617 274 b 540 154 617 189 583 154 z m 77 308 b 0 386 35 308 0 343 b 77 463 0 428 35 463 b 154 386 120 463 154 428 b 77 308 154 343 119 308 z m 540 308 b 463 386 497 308 463 343 b 540 463 463 428 497 463 b 617 386 583 463 617 428 b 540 308 617 343 583 308 z m 77 463 b 0 540 35 463 0 497 b 77 617 0 583 35 617 b 154 540 120 617 154 583 b 77 463 154 497 119 463 z m 540 463 b 463 540 497 463 463 497 b 540 617 463 583 497 617 b 617 540 583 617 617 583 b 540 463 617 497 583 463 z m 77 617 b 0 694 35 617 0 652 b 77 772 0 737 35 772 b 154 694 120 772 154 737 b 77 617 154 652 119 617 z m 540 617 b 463 694 497 617 463 652 b 540 772 463 737 497 772 b 617 694 583 772 617 737 b 540 617 617 652 583 617 z "},"v":{"ha":772,"x_min":0,"x_max":0,"o":"m 77 0 b 0 77 35 0 0 35 b 77 154 0 120 35 154 b 154 77 120 154 154 119 b 77 0 154 35 119 0 z m 231 0 b 154 77 189 0 154 35 b 231 154 154 120 189 154 b 308 77 274 154 308 119 b 231 0 308 35 274 0 z m 77 154 b 0 231 35 154 0 189 b 77 308 0 274 35 308 b 154 231 120 308 154 274 b 77 154 154 189 119 154 z m 386 154 b 308 231 343 154 308 189 b 386 308 308 274 343 308 b 463 231 428 308 463 274 b 386 154 463 189 428 154 z m 77 308 b 0 386 35 308 0 343 b 77 463 0 428 35 463 b 154 386 120 463 154 428 b 77 308 154 343 119 308 z m 386 308 b 308 386 343 308 308 343 b 386 463 308 428 343 463 b 463 386 428 463 463 428 b 386 308 463 343 428 308 z m 77 463 b 0 540 35 463 0 497 b 77 617 0 583 35 617 b 154 540 120 617 154 583 b 77 463 154 497 119 463 z m 540 463 b 463 540 497 463 463 497 b 540 617 463 583 497 617 b 617 540 583 617 617 583 b 540 463 617 497 583 463 z m 77 617 b 0 694 35 617 0 652 b 77 772 0 737 35 772 b 154 694 120 772 154 737 b 77 617 154 652 119 617 z m 540 617 b 463 694 497 617 463 652 b 540 772 463 737 497 772 b 617 694 583 772 617 737 b 540 617 617 652 583 617 z "},"w":{"ha":926,"x_min":0,"x_max":0,"o":"m 77 0 b 0 77 35 0 0 35 b 77 154 0 120 35 154 b 154 77 120 154 154 119 b 77 0 154 35 119 0 z m 231 0 b 154 77 189 0 154 35 b 231 154 154 120 189 154 b 308 77 274 154 308 119 b 231 0 308 35 274 0 z m 540 0 b 463 77 497 0 463 35 b 540 154 463 120 497 154 b 617 77 583 154 617 119 b 540 0 617 35 583 0 z m 77 154 b 0 231 35 154 0 189 b 77 308 0 274 35 308 b 154 231 120 308 154 274 b 77 154 154 189 119 154 z m 386 154 b 308 231 343 154 308 189 b 386 308 308 274 343 308 b 463 231 428 308 463 274 b 386 154 463 189 428 154 z m 694 154 b 617 231 652 154 617 189 b 694 308 617 274 652 308 b 772 231 737 308 772 274 b 694 154 772 189 737 154 z m 77 308 b 0 386 35 308 0 343 b 77 463 0 428 35 463 b 154 386 120 463 154 428 b 77 308 154 343 119 308 z m 386 308 b 308 386 343 308 308 343 b 386 463 308 428 343 463 b 463 386 428 463 463 428 b 386 308 463 343 428 308 z m 694 308 b 617 386 652 308 617 343 b 694 463 617 428 652 463 b 772 386 737 463 772 428 b 694 308 772 343 737 308 z m 77 463 b 0 540 35 463 0 497 b 77 617 0 583 35 617 b 154 540 120 617 154 583 b 77 463 154 497 119 463 z m 386 463 b 308 540 343 463 308 497 b 386 617 308 583 343 617 b 463 540 428 617 463 583 b 386 463 463 497 428 463 z m 694 463 b 617 540 652 463 617 497 b 694 617 617 583 652 617 b 772 540 737 617 772 583 b 694 463 772 497 737 463 z m 77 617 b 0 694 35 617 0 652 b 77 772 0 737 35 772 b 154 694 120 772 154 737 b 77 617 154 652 119 617 z m 386 617 b 308 694 343 617 308 652 b 386 772 308 737 343 772 b 463 694 428 772 463 737 b 386 617 463 652 428 617 z m 694 617 b 617 694 652 617 617 652 b 694 772 617 737 652 772 b 772 694 737 772 772 737 b 694 617 772 652 737 617 z "},"x":{"ha":926,"x_min":0,"x_max":0,"o":"m 77 0 b 0 77 35 0 0 35 b 77 154 0 120 35 154 b 154 77 120 154 154 119 b 77 0 154 35 119 0 z m 694 0 b 617 77 652 0 617 35 b 694 154 617 120 652 154 b 772 77 737 154 772 119 b 694 0 772 35 737 0 z m 231 154 b 154 231 189 154 154 189 b 231 308 154 274 189 308 b 308 231 274 308 308 274 b 231 154 308 189 274 154 z m 540 154 b 463 231 497 154 463 189 b 540 308 463 274 497 308 b 617 231 583 308 617 274 b 540 154 617 189 583 154 z m 386 308 b 308 386 343 308 308 343 b 386 463 308 428 343 463 b 463 386 428 463 463 428 b 386 308 463 343 428 308 z m 231 463 b 154 540 189 463 154 497 b 231 617 154 583 189 617 b 308 540 274 617 308 583 b 231 463 308 497 274 463 z m 540 463 b 463 540 497 463 463 497 b 540 617 463 583 497 617 b 617 540 583 617 617 583 b 540 463 617 497 583 463 z m 77 617 b 0 694 35 617 0 652 b 77 772 0 737 35 772 b 154 694 120 772 154 737 b 77 617 154 652 119 617 z m 694 617 b 617 694 652 617 617 652 b 694 772 617 737 652 772 b 772 694 737 772 772 737 b 694 617 772 652 737 617 z "},"y":{"ha":772,"x_min":0,"x_max":0,"o":"m 231 -308 b 154 -231 189 -308 154 -274 b 231 -154 154 -189 189 -154 b 308 -231 274 -154 308 -189 b 231 -308 308 -274 274 -308 z m 386 -308 b 308 -231 343 -308 308 -274 b 386 -154 308 -189 343 -154 b 463 -231 428 -154 463 -189 b 386 -308 463 -274 428 -308 z m 540 -154 b 463 -77 497 -154 463 -119 b 540 0 463 -35 497 0 b 617 -77 583 0 617 -35 b 540 -154 617 -120 583 -154 z m 231 0 b 154 77 189 0 154 35 b 231 154 154 120 189 154 b 308 77 274 154 308 119 b 231 0 308 35 274 0 z m 386 0 b 308 77 343 0 308 35 b 386 154 308 120 343 154 b 463 77 428 154 463 119 b 386 0 463 35 428 0 z m 540 0 b 463 77 497 0 463 35 b 540 154 463 120 497 154 b 617 77 583 154 617 119 b 540 0 617 35 583 0 z m 77 154 b 0 231 35 154 0 189 b 77 308 0 274 35 308 b 154 231 120 308 154 274 b 77 154 154 189 119 154 z m 540 154 b 463 231 497 154 463 189 b 540 308 463 274 497 308 b 617 231 583 308 617 274 b 540 154 617 189 583 154 z m 77 308 b 0 386 35 308 0 343 b 77 463 0 428 35 463 b 154 386 120 463 154 428 b 77 308 154 343 119 308 z m 540 308 b 463 386 497 308 463 343 b 540 463 463 428 497 463 b 617 386 583 463 617 428 b 540 308 617 343 583 308 z m 77 463 b 0 540 35 463 0 497 b 77 617 0 583 35 617 b 154 540 120 617 154 583 b 77 463 154 497 119 463 z m 540 463 b 463 540 497 463 463 497 b 540 617 463 583 497 617 b 617 540 583 617 617 583 b 540 463 617 497 583 463 z m 77 617 b 0 694 35 617 0 652 b 77 772 0 737 35 772 b 154 694 120 772 154 737 b 77 617 154 652 119 617 z m 540 617 b 463 694 497 617 463 652 b 540 772 463 737 497 772 b 617 694 583 772 617 737 b 540 617 617 652 583 617 z "},"z":{"ha":772,"x_min":0,"x_max":0,"o":"m 77 0 b 0 77 35 0 0 35 b 77 154 0 120 35 154 b 154 77 120 154 154 119 b 77 0 154 35 119 0 z m 231 0 b 154 77 189 0 154 35 b 231 154 154 120 189 154 b 308 77 274 154 308 119 b 231 0 308 35 274 0 z m 386 0 b 308 77 343 0 308 35 b 386 154 308 120 343 154 b 463 77 428 154 463 119 b 386 0 463 35 428 0 z m 540 0 b 463 77 497 0 463 35 b 540 154 463 120 497 154 b 617 77 583 154 617 119 b 540 0 617 35 583 0 z m 77 154 b 0 231 35 154 0 189 b 77 308 0 274 35 308 b 154 231 120 308 154 274 b 77 154 154 189 119 154 z m 231 308 b 154 386 189 308 154 343 b 231 463 154 428 189 463 b 308 386 274 463 308 428 b 231 308 308 343 274 308 z m 386 308 b 308 386 343 308 308 343 b 386 463 308 428 343 463 b 463 386 428 463 463 428 b 386 308 463 343 428 308 z m 540 463 b 463 540 497 463 463 497 b 540 617 463 583 497 617 b 617 540 583 617 617 583 b 540 463 617 497 583 463 z m 77 617 b 0 694 35 617 0 652 b 77 772 0 737 35 772 b 154 694 120 772 154 737 b 77 617 154 652 119 617 z m 231 617 b 154 694 189 617 154 652 b 231 772 154 737 189 772 b 308 694 274 772 308 737 b 231 617 308 652 274 617 z m 386 617 b 308 694 343 617 308 652 b 386 772 308 737 343 772 b 463 694 428 772 463 737 b 386 617 463 652 428 617 z m 540 617 b 463 694 497 617 463 652 b 540 772 463 737 497 772 b 617 694 583 772 617 737 b 540 617 617 652 583 617 z "},"{":{"ha":772,"x_min":0,"x_max":0,"o":"m 386 0 b 308 77 343 0 308 35 b 386 154 308 120 343 154 b 463 77 428 154 463 119 b 386 0 463 35 428 0 z m 540 0 b 463 77 497 0 463 35 b 540 154 463 120 497 154 b 617 77 583 154 617 119 b 540 0 617 35 583 0 z m 231 154 b 154 231 189 154 154 189 b 231 308 154 274 189 308 b 308 231 274 308 308 274 b 231 154 308 189 274 154 z m 231 308 b 154 386 189 308 154 343 b 231 463 154 428 189 463 b 308 386 274 463 308 428 b 231 308 308 343 274 308 z m 77 463 b 0 540 35 463 0 497 b 77 617 0 583 35 617 b 154 540 120 617 154 583 b 77 463 154 497 119 463 z m 231 617 b 154 694 189 617 154 652 b 231 772 154 737 189 772 b 308 694 274 772 308 737 b 231 617 308 652 274 617 z m 231 772 b 154 849 189 772 154 806 b 231 926 154 892 189 926 b 308 849 274 926 308 892 b 231 772 308 806 274 772 z m 386 926 b 308 1003 343 926 308 960 b 386 1081 308 1046 343 1081 b 463 1003 428 1081 463 1046 b 386 926 463 960 428 926 z m 540 926 b 463 1003 497 926 463 960 b 540 1081 463 1046 497 1081 b 617 1003 583 1081 617 1046 b 540 926 617 960 583 926 z "},"|":{"ha":308,"x_min":0,"x_max":0,"o":"m 77 0 b 0 77 35 0 0 35 b 77 154 0 120 35 154 b 154 77 120 154 154 119 b 77 0 154 35 119 0 z m 77 154 b 0 231 35 154 0 189 b 77 308 0 274 35 308 b 154 231 120 308 154 274 b 77 154 154 189 119 154 z m 77 308 b 0 386 35 308 0 343 b 77 463 0 428 35 463 b 154 386 120 463 154 428 b 77 308 154 343 119 308 z m 77 463 b 0 540 35 463 0 497 b 77 617 0 583 35 617 b 154 540 120 617 154 583 b 77 463 154 497 119 463 z m 77 617 b 0 694 35 617 0 652 b 77 772 0 737 35 772 b 154 694 120 772 154 737 b 77 617 154 652 119 617 z m 77 772 b 0 849 35 772 0 806 b 77 926 0 892 35 926 b 154 849 120 926 154 892 b 77 772 154 806 119 772 z m 77 926 b 0 1003 35 926 0 960 b 77 1081 0 1046 35 1081 b 154 1003 120 1081 154 1046 b 77 926 154 960 119 926 z "},"}":{"ha":772,"x_min":0,"x_max":0,"o":"m 77 0 b 0 77 35 0 0 35 b 77 154 0 120 35 154 b 154 77 120 154 154 119 b 77 0 154 35 119 0 z m 231 0 b 154 77 189 0 154 35 b 231 154 154 120 189 154 b 308 77 274 154 308 119 b 231 0 308 35 274 0 z m 386 154 b 308 231 343 154 308 189 b 386 308 308 274 343 308 b 463 231 428 308 463 274 b 386 154 463 189 428 154 z m 386 308 b 308 386 343 308 308 343 b 386 463 308 428 343 463 b 463 386 428 463 463 428 b 386 308 463 343 428 308 z m 540 463 b 463 540 497 463 463 497 b 540 617 463 583 497 617 b 617 540 583 617 617 583 b 540 463 617 497 583 463 z m 386 617 b 308 694 343 617 308 652 b 386 772 308 737 343 772 b 463 694 428 772 463 737 b 386 617 463 652 428 617 z m 386 772 b 308 849 343 772 308 806 b 386 926 308 892 343 926 b 463 849 428 926 463 892 b 386 772 463 806 428 772 z m 77 926 b 0 1003 35 926 0 960 b 77 1081 0 1046 35 1081 b 154 1003 120 1081 154 1046 b 77 926 154 960 119 926 z m 231 926 b 154 1003 189 926 154 960 b 231 1081 154 1046 189 1081 b 308 1003 274 1081 308 1046 b 231 926 308 960 274 926 z "},"~":{"ha":926,"x_min":0,"x_max":0,"o":"m 540 308 b 463 386 497 308 463 343 b 540 463 463 428 497 463 b 617 386 583 463 617 428 b 540 308 617 343 583 308 z m 77 463 b 0 540 35 463 0 497 b 77 617 0 583 35 617 b 154 540 120 617 154 583 b 77 463 154 497 119 463 z m 386 463 b 308 540 343 463 308 497 b 386 617 308 583 343 617 b 463 540 428 617 463 583 b 386 463 463 497 428 463 z m 694 463 b 617 540 652 463 617 497 b 694 617 617 583 652 617 b 772 540 737 617 772 583 b 694 463 772 497 737 463 z m 231 617 b 154 694 189 617 154 652 b 231 772 154 737 189 772 b 308 694 274 772 308 737 b 231 617 308 652 274 617 z "},"":{"ha":154,"x_min":0,"x_max":0,"o":""},"":{"ha":617,"x_min":0,"x_max":0,"o":"m 231 772 b 154 849 189 772 154 806 b 231 926 154 892 189 926 b 308 849 274 926 308 892 b 231 772 308 806 274 772 z m 77 926 b 0 1003 35 926 0 960 b 77 1081 0 1046 35 1081 b 154 1003 120 1081 154 1046 b 77 926 154 960 119 926 z m 386 926 b 308 1003 343 926 308 960 b 386 1081 308 1046 343 1081 b 463 1003 428 1081 463 1046 b 386 926 463 960 428 926 z m 231 1081 b 154 1158 189 1081 154 1115 b 231 1235 154 1200 189 1235 b 308 1158 274 1235 308 1200 b 231 1081 308 1115 274 1081 z "},"":{"ha":772,"x_min":0,"x_max":0,"o":"m 77 154 b 0 231 35 154 0 189 b 77 308 0 274 35 308 b 154 231 120 308 154 274 b 77 154 154 189 119 154 z m 231 154 b 154 231 189 154 154 189 b 231 308 154 274 189 308 b 308 231 274 308 308 274 b 231 154 308 189 274 154 z m 386 154 b 308 231 343 154 308 189 b 386 308 308 274 343 308 b 463 231 428 308 463 274 b 386 154 463 189 428 154 z m 540 154 b 463 231 497 154 463 189 b 540 308 463 274 497 308 b 617 231 583 308 617 274 b 540 154 617 189 583 154 z m 308 386 b 231 463 266 386 231 420 b 308 540 231 506 266 540 b 386 463 351 540 386 506 b 308 386 386 420 351 386 z m 308 540 b 231 617 266 540 231 575 l 386 617 b 308 540 386 574 351 540 z m 77 617 b 0 694 35 617 0 652 b 77 772 0 737 35 772 b 154 694 120 772 154 737 b 77 617 154 652 119 617 z m 231 617 b 154 694 189 617 154 652 b 231 772 154 737 189 772 b 308 694 274 772 308 737 b 231 617 308 652 274 617 z m 386 617 b 308 694 343 617 308 652 b 386 772 308 737 343 772 b 463 694 428 772 463 737 b 386 617 463 652 428 617 z m 540 617 b 463 694 497 617 463 652 b 540 772 463 737 497 772 b 617 694 583 772 617 737 b 540 617 617 652 583 617 z m 231 772 b 308 849 231 815 266 849 b 386 772 351 849 386 814 z m 308 849 b 231 926 266 849 231 883 b 308 1003 231 969 266 1003 b 386 926 351 1003 386 969 b 308 849 386 883 351 849 z "},"":{"ha":772,"x_min":0,"x_max":0,"o":"m 77 463 b 0 540 35 463 0 497 b 77 617 0 583 35 617 b 154 540 120 617 154 583 b 77 463 154 497 119 463 z m 231 463 b 154 540 189 463 154 497 b 231 617 154 583 189 617 b 308 540 274 617 308 583 b 231 463 308 497 274 463 z m 386 463 b 308 540 343 463 308 497 b 386 617 308 583 343 617 b 463 540 428 617 463 583 b 386 463 463 497 428 463 z m 540 463 b 463 540 497 463 463 497 b 540 617 463 583 497 617 b 617 540 583 617 617 583 b 540 463 617 497 583 463 z m 231 617 b 154 694 189 617 154 652 b 231 772 154 737 189 772 b 308 694 274 772 308 737 b 231 617 308 652 274 617 z m 386 772 b 308 849 343 772 308 806 b 386 926 308 892 343 926 b 463 849 428 926 463 892 b 386 772 463 806 428 772 z m 77 926 b 0 1003 35 926 0 960 b 77 1081 0 1046 35 1081 b 154 1003 120 1081 154 1046 b 77 926 154 960 119 926 z m 540 926 b 463 1003 497 926 463 960 b 540 1081 463 1046 497 1081 b 617 1003 583 1081 617 1046 b 540 926 617 960 583 926 z m 231 1081 b 154 1158 189 1081 154 1115 b 231 1235 154 1200 189 1235 b 308 1158 274 1235 308 1200 b 231 1081 308 1115 274 1081 z m 386 1081 b 308 1158 343 1081 308 1115 b 386 1235 308 1200 343 1235 b 463 1158 428 1235 463 1200 b 386 1081 463 1115 428 1081 z "},"":{"ha":772,"x_min":0,"x_max":0,"o":"m 231 463 b 154 540 189 463 154 497 b 231 617 154 583 189 617 b 308 540 274 617 308 583 b 231 463 308 497 274 463 z m 386 463 b 308 540 343 463 308 497 b 386 617 308 583 343 617 b 463 540 428 617 463 583 b 386 463 463 497 428 463 z m 77 617 b 0 694 35 617 0 652 b 77 772 0 737 35 772 b 154 694 120 772 154 737 b 77 617 154 652 119 617 z m 540 617 b 463 694 497 617 463 652 b 540 772 463 737 497 772 b 617 694 583 772 617 737 b 540 617 617 652 583 617 z m 386 772 b 308 849 343 772 308 806 b 386 926 308 892 343 926 b 463 849 428 926 463 892 b 386 772 463 806 428 772 z m 463 926 b 386 1003 420 926 386 960 b 463 1081 386 1046 420 1081 b 540 1003 506 1081 540 1046 b 463 926 540 960 506 926 z m 77 1081 b 0 1158 35 1081 0 1115 b 77 1235 0 1200 35 1235 b 154 1158 120 1235 154 1200 b 77 1081 154 1115 119 1081 z m 231 1081 b 154 1158 189 1081 154 1115 b 231 1235 154 1200 189 1235 b 308 1158 274 1235 308 1200 b 231 1081 308 1115 274 1081 z m 386 1081 b 308 1158 343 1081 308 1115 b 386 1235 308 1200 343 1235 b 463 1158 428 1235 463 1200 b 386 1081 463 1115 428 1081 z m 540 1081 b 463 1158 497 1081 463 1115 b 540 1235 463 1200 497 1235 b 617 1158 583 1235 617 1200 b 540 1081 617 1115 583 1081 z "},"":{"ha":308,"x_min":0,"x_max":0,"o":"m 77 463 b 0 540 35 463 0 497 b 77 617 0 583 35 617 b 154 540 120 617 154 583 b 77 463 154 497 119 463 z "},"":{"ha":617,"x_min":0,"x_max":0,"o":"m 77 463 b 0 540 35 463 0 497 b 77 617 0 583 35 617 b 154 540 120 617 154 583 b 77 463 154 497 119 463 z m 231 463 b 154 540 189 463 154 497 b 231 617 154 583 189 617 b 308 540 274 617 308 583 b 231 463 308 497 274 463 z m 386 463 b 308 540 343 463 308 497 b 386 617 308 583 343 617 b 463 540 428 617 463 583 b 386 463 463 497 428 463 z m 231 617 b 154 694 189 617 154 652 b 231 772 154 737 189 772 b 308 694 274 772 308 737 b 231 617 308 652 274 617 z m 231 772 b 154 849 189 772 154 806 b 231 926 154 892 189 926 b 308 849 274 926 308 892 b 231 772 308 806 274 772 z m 231 926 b 154 1003 189 926 154 960 b 231 1081 154 1046 189 1081 b 308 1003 274 1081 308 1046 b 231 926 308 960 274 926 z m 77 1003 b 0 1081 35 1003 0 1038 b 77 1158 0 1123 35 1158 b 154 1081 120 1158 154 1123 b 77 1003 154 1038 119 1003 z m 231 1081 b 154 1158 189 1081 154 1115 b 231 1235 154 1200 189 1235 b 308 1158 274 1235 308 1200 b 231 1081 308 1115 274 1081 z "},"":{"ha":926,"x_min":0,"x_max":0,"o":"m 77 0 b 0 77 35 0 0 35 b 77 154 0 120 35 154 b 154 77 120 154 154 119 b 77 0 154 35 119 0 z m 694 0 b 617 77 652 0 617 35 b 694 154 617 120 652 154 b 772 77 737 154 772 119 b 694 0 772 35 737 0 z m 77 154 b 0 231 35 154 0 189 b 77 308 0 274 35 308 b 154 231 120 308 154 274 b 77 154 154 189 119 154 z m 694 154 b 617 231 652 154 617 189 b 694 308 617 274 652 308 b 772 231 737 308 772 274 b 694 154 772 189 737 154 z m 77 308 b 0 386 35 308 0 343 b 77 463 0 428 35 463 b 154 386 120 463 154 428 b 77 308 154 343 119 308 z m 231 308 b 154 386 189 308 154 343 b 231 463 154 428 189 463 b 308 386 274 463 308 428 b 231 308 308 343 274 308 z m 386 308 b 308 386 343 308 308 343 b 386 463 308 428 343 463 b 463 386 428 463 463 428 b 386 308 463 343 428 308 z m 540 308 b 463 386 497 308 463 343 b 540 463 463 428 497 463 b 617 386 583 463 617 428 b 540 308 617 343 583 308 z m 694 308 b 617 386 652 308 617 343 b 694 463 617 428 652 463 b 772 386 737 463 772 428 b 694 308 772 343 737 308 z m 77 463 b 0 540 35 463 0 497 b 77 617 0 583 35 617 b 154 540 120 617 154 583 b 77 463 154 497 119 463 z m 694 463 b 617 540 652 463 617 497 b 694 617 617 583 652 617 b 772 540 737 617 772 583 b 694 463 772 497 737 463 z m 77 617 b 0 694 35 617 0 652 b 77 772 0 737 35 772 b 154 694 120 772 154 737 b 77 617 154 652 119 617 z m 694 617 b 617 694 652 617 617 652 b 694 772 617 737 652 772 b 772 694 737 772 772 737 b 694 617 772 652 737 617 z m 231 772 b 154 849 189 772 154 806 b 231 926 154 892 189 926 b 308 849 274 926 308 892 b 231 772 308 806 274 772 z m 540 772 b 463 849 497 772 463 806 b 540 926 463 892 497 926 b 617 849 583 926 617 892 b 540 772 617 806 583 772 z m 386 926 b 308 1003 343 926 308 960 b 386 1081 308 1046 343 1081 b 463 1003 428 1081 463 1046 b 386 926 463 960 428 926 z m 386 1235 b 308 1312 343 1235 308 1269 b 386 1389 308 1354 343 1389 b 463 1312 428 1389 463 1354 b 386 1235 463 1269 428 1235 z m 231 1389 b 154 1466 189 1389 154 1424 b 231 1543 154 1509 189 1543 b 308 1466 274 1543 308 1508 b 231 1389 308 1424 274 1389 z "},"":{"ha":926,"x_min":0,"x_max":0,"o":"m 77 0 b 0 77 35 0 0 35 b 77 154 0 120 35 154 b 154 77 120 154 154 119 b 77 0 154 35 119 0 z m 694 0 b 617 77 652 0 617 35 b 694 154 617 120 652 154 b 772 77 737 154 772 119 b 694 0 772 35 737 0 z m 77 154 b 0 231 35 154 0 189 b 77 308 0 274 35 308 b 154 231 120 308 154 274 b 77 154 154 189 119 154 z m 694 154 b 617 231 652 154 617 189 b 694 308 617 274 652 308 b 772 231 737 308 772 274 b 694 154 772 189 737 154 z m 77 308 b 0 386 35 308 0 343 b 77 463 0 428 35 463 b 154 386 120 463 154 428 b 77 308 154 343 119 308 z m 231 308 b 154 386 189 308 154 343 b 231 463 154 428 189 463 b 308 386 274 463 308 428 b 231 308 308 343 274 308 z m 386 308 b 308 386 343 308 308 343 b 386 463 308 428 343 463 b 463 386 428 463 463 428 b 386 308 463 343 428 308 z m 540 308 b 463 386 497 308 463 343 b 540 463 463 428 497 463 b 617 386 583 463 617 428 b 540 308 617 343 583 308 z m 694 308 b 617 386 652 308 617 343 b 694 463 617 428 652 463 b 772 386 737 463 772 428 b 694 308 772 343 737 308 z m 77 463 b 0 540 35 463 0 497 b 77 617 0 583 35 617 b 154 540 120 617 154 583 b 77 463 154 497 119 463 z m 694 463 b 617 540 652 463 617 497 b 694 617 617 583 652 617 b 772 540 737 617 772 583 b 694 463 772 497 737 463 z m 77 617 b 0 694 35 617 0 652 b 77 772 0 737 35 772 b 154 694 120 772 154 737 b 77 617 154 652 119 617 z m 694 617 b 617 694 652 617 617 652 b 694 772 617 737 652 772 b 772 694 737 772 772 737 b 694 617 772 652 737 617 z m 231 772 b 154 849 189 772 154 806 b 231 926 154 892 189 926 b 308 849 274 926 308 892 b 231 772 308 806 274 772 z m 540 772 b 463 849 497 772 463 806 b 540 926 463 892 497 926 b 617 849 583 926 617 892 b 540 772 617 806 583 772 z m 386 926 b 308 1003 343 926 308 960 b 386 1081 308 1046 343 1081 b 463 1003 428 1081 463 1046 b 386 926 463 960 428 926 z m 386 1235 b 308 1312 343 1235 308 1269 b 386 1389 308 1354 343 1389 b 463 1312 428 1389 463 1354 b 386 1235 463 1269 428 1235 z m 540 1389 b 463 1466 497 1389 463 1424 b 540 1543 463 1509 497 1543 b 617 1466 583 1543 617 1508 b 540 1389 617 1424 583 1389 z "},"":{"ha":926,"x_min":0,"x_max":0,"o":"m 77 0 b 0 77 35 0 0 35 b 77 154 0 120 35 154 b 154 77 120 154 154 119 b 77 0 154 35 119 0 z m 231 0 b 154 77 189 0 154 35 b 231 154 154 120 189 154 b 308 77 274 154 308 119 b 231 0 308 35 274 0 z m 386 0 b 308 77 343 0 308 35 b 386 154 308 120 343 154 b 463 77 428 154 463 119 b 386 0 463 35 428 0 z m 540 0 b 463 77 497 0 463 35 b 540 154 463 120 497 154 b 617 77 583 154 617 119 b 540 0 617 35 583 0 z m 694 0 b 617 77 652 0 617 35 b 694 154 617 120 652 154 b 772 77 737 154 772 119 b 694 0 772 35 737 0 z m 77 154 b 0 231 35 154 0 189 b 77 308 0 274 35 308 b 154 231 120 308 154 274 b 77 154 154 189 119 154 z m 77 308 b 0 386 35 308 0 343 b 77 463 0 428 35 463 b 154 386 120 463 154 428 b 77 308 154 343 119 308 z m 77 463 b 0 540 35 463 0 497 b 77 617 0 583 35 617 b 154 540 120 617 154 583 b 77 463 154 497 119 463 z m 231 463 b 154 540 189 463 154 497 b 231 617 154 583 189 617 b 308 540 274 617 308 583 b 231 463 308 497 274 463 z m 386 463 b 308 540 343 463 308 497 b 386 617 308 583 343 617 b 463 540 428 617 463 583 b 386 463 463 497 428 463 z m 540 463 b 463 540 497 463 463 497 b 540 617 463 583 497 617 b 617 540 583 617 617 583 b 540 463 617 497 583 463 z m 77 617 b 0 694 35 617 0 652 b 77 772 0 737 35 772 b 154 694 120 772 154 737 b 77 617 154 652 119 617 z m 77 772 b 0 849 35 772 0 806 b 77 926 0 892 35 926 b 154 849 120 926 154 892 b 77 772 154 806 119 772 z m 77 926 b 0 1003 35 926 0 960 b 77 1081 0 1046 35 1081 b 154 1003 120 1081 154 1046 b 77 926 154 960 119 926 z m 231 926 b 154 1003 189 926 154 960 b 231 1081 154 1046 189 1081 b 308 1003 274 1081 308 1046 b 231 926 308 960 274 926 z m 386 926 b 308 1003 343 926 308 960 b 386 1081 308 1046 343 1081 b 463 1003 428 1081 463 1046 b 386 926 463 960 428 926 z m 540 926 b 463 1003 497 926 463 960 b 540 1081 463 1046 497 1081 b 617 1003 583 1081 617 1046 b 540 926 617 960 583 926 z m 694 926 b 617 1003 652 926 617 960 b 694 1081 617 1046 652 1081 b 772 1003 737 1081 772 1046 b 694 926 772 960 737 926 z m 386 1235 b 308 1312 343 1235 308 1269 b 386 1389 308 1354 343 1389 b 463 1312 428 1389 463 1354 b 386 1235 463 1269 428 1235 z m 231 1389 b 154 1466 189 1389 154 1424 b 231 1543 154 1509 189 1543 b 308 1466 274 1543 308 1508 b 231 1389 308 1424 274 1389 z "},"":{"ha":926,"x_min":0,"x_max":0,"o":"m 77 0 b 0 77 35 0 0 35 b 77 154 0 120 35 154 b 154 77 120 154 154 119 b 77 0 154 35 119 0 z m 231 0 b 154 77 189 0 154 35 b 231 154 154 120 189 154 b 308 77 274 154 308 119 b 231 0 308 35 274 0 z m 386 0 b 308 77 343 0 308 35 b 386 154 308 120 343 154 b 463 77 428 154 463 119 b 386 0 463 35 428 0 z m 540 0 b 463 77 497 0 463 35 b 540 154 463 120 497 154 b 617 77 583 154 617 119 b 540 0 617 35 583 0 z m 694 0 b 617 77 652 0 617 35 b 694 154 617 120 652 154 b 772 77 737 154 772 119 b 694 0 772 35 737 0 z m 77 154 b 0 231 35 154 0 189 b 77 308 0 274 35 308 b 154 231 120 308 154 274 b 77 154 154 189 119 154 z m 77 308 b 0 386 35 308 0 343 b 77 463 0 428 35 463 b 154 386 120 463 154 428 b 77 308 154 343 119 308 z m 77 463 b 0 540 35 463 0 497 b 77 617 0 583 35 617 b 154 540 120 617 154 583 b 77 463 154 497 119 463 z m 231 463 b 154 540 189 463 154 497 b 231 617 154 583 189 617 b 308 540 274 617 308 583 b 231 463 308 497 274 463 z m 386 463 b 308 540 343 463 308 497 b 386 617 308 583 343 617 b 463 540 428 617 463 583 b 386 463 463 497 428 463 z m 540 463 b 463 540 497 463 463 497 b 540 617 463 583 497 617 b 617 540 583 617 617 583 b 540 463 617 497 583 463 z m 77 617 b 0 694 35 617 0 652 b 77 772 0 737 35 772 b 154 694 120 772 154 737 b 77 617 154 652 119 617 z m 77 772 b 0 849 35 772 0 806 b 77 926 0 892 35 926 b 154 849 120 926 154 892 b 77 772 154 806 119 772 z m 77 926 b 0 1003 35 926 0 960 b 77 1081 0 1046 35 1081 b 154 1003 120 1081 154 1046 b 77 926 154 960 119 926 z m 231 926 b 154 1003 189 926 154 960 b 231 1081 154 1046 189 1081 b 308 1003 274 1081 308 1046 b 231 926 308 960 274 926 z m 386 926 b 308 1003 343 926 308 960 b 386 1081 308 1046 343 1081 b 463 1003 428 1081 463 1046 b 386 926 463 960 428 926 z m 540 926 b 463 1003 497 926 463 960 b 540 1081 463 1046 497 1081 b 617 1003 583 1081 617 1046 b 540 926 617 960 583 926 z m 694 926 b 617 1003 652 926 617 960 b 694 1081 617 1046 652 1081 b 772 1003 737 1081 772 1046 b 694 926 772 960 737 926 z m 386 1235 b 308 1312 343 1235 308 1269 b 386 1389 308 1354 343 1389 b 463 1312 428 1389 463 1354 b 386 1235 463 1269 428 1235 z m 540 1389 b 463 1466 497 1389 463 1424 b 540 1543 463 1509 497 1543 b 617 1466 583 1543 617 1508 b 540 1389 617 1424 583 1389 z "},"":{"ha":617,"x_min":0,"x_max":0,"o":"m 77 0 b 0 77 35 0 0 35 b 77 154 0 120 35 154 b 154 77 120 154 154 119 b 77 0 154 35 119 0 z m 231 0 b 154 77 189 0 154 35 b 231 154 154 120 189 154 b 308 77 274 154 308 119 b 231 0 308 35 274 0 z m 386 0 b 308 77 343 0 308 35 b 386 154 308 120 343 154 b 463 77 428 154 463 119 b 386 0 463 35 428 0 z m 231 154 b 154 231 189 154 154 189 b 231 308 154 274 189 308 b 308 231 274 308 308 274 b 231 154 308 189 274 154 z m 231 308 b 154 386 189 308 154 343 b 231 463 154 428 189 463 b 308 386 274 463 308 428 b 231 308 308 343 274 308 z m 231 463 b 154 540 189 463 154 497 b 231 617 154 583 189 617 b 308 540 274 617 308 583 b 231 463 308 497 274 463 z m 231 617 b 154 694 189 617 154 652 b 231 772 154 737 189 772 b 308 694 274 772 308 737 b 231 617 308 652 274 617 z m 231 772 b 154 849 189 772 154 806 b 231 926 154 892 189 926 b 308 849 274 926 308 892 b 231 772 308 806 274 772 z m 77 926 b 0 1003 35 926 0 960 b 77 1081 0 1046 35 1081 b 154 1003 120 1081 154 1046 b 77 926 154 960 119 926 z m 231 926 b 154 1003 189 926 154 960 b 231 1081 154 1046 189 1081 b 308 1003 274 1081 308 1046 b 231 926 308 960 274 926 z m 386 926 b 308 1003 343 926 308 960 b 386 1081 308 1046 343 1081 b 463 1003 428 1081 463 1046 b 386 926 463 960 428 926 z m 231 1235 b 154 1312 189 1235 154 1269 b 231 1389 154 1354 189 1389 b 308 1312 274 1389 308 1354 b 231 1235 308 1269 274 1235 z m 77 1389 b 0 1466 35 1389 0 1424 b 77 1543 0 1509 35 1543 b 154 1466 120 1543 154 1508 b 77 1389 154 1424 119 1389 z "},"":{"ha":617,"x_min":0,"x_max":0,"o":"m 77 0 b 0 77 35 0 0 35 b 77 154 0 120 35 154 b 154 77 120 154 154 119 b 77 0 154 35 119 0 z m 231 0 b 154 77 189 0 154 35 b 231 154 154 120 189 154 b 308 77 274 154 308 119 b 231 0 308 35 274 0 z m 386 0 b 308 77 343 0 308 35 b 386 154 308 120 343 154 b 463 77 428 154 463 119 b 386 0 463 35 428 0 z m 231 154 b 154 231 189 154 154 189 b 231 308 154 274 189 308 b 308 231 274 308 308 274 b 231 154 308 189 274 154 z m 231 308 b 154 386 189 308 154 343 b 231 463 154 428 189 463 b 308 386 274 463 308 428 b 231 308 308 343 274 308 z m 231 463 b 154 540 189 463 154 497 b 231 617 154 583 189 617 b 308 540 274 617 308 583 b 231 463 308 497 274 463 z m 231 617 b 154 694 189 617 154 652 b 231 772 154 737 189 772 b 308 694 274 772 308 737 b 231 617 308 652 274 617 z m 231 772 b 154 849 189 772 154 806 b 231 926 154 892 189 926 b 308 849 274 926 308 892 b 231 772 308 806 274 772 z m 77 926 b 0 1003 35 926 0 960 b 77 1081 0 1046 35 1081 b 154 1003 120 1081 154 1046 b 77 926 154 960 119 926 z m 231 926 b 154 1003 189 926 154 960 b 231 1081 154 1046 189 1081 b 308 1003 274 1081 308 1046 b 231 926 308 960 274 926 z m 386 926 b 308 1003 343 926 308 960 b 386 1081 308 1046 343 1081 b 463 1003 428 1081 463 1046 b 386 926 463 960 428 926 z m 231 1235 b 154 1312 189 1235 154 1269 b 231 1389 154 1354 189 1389 b 308 1312 274 1389 308 1354 b 231 1235 308 1269 274 1235 z m 386 1389 b 308 1466 343 1389 308 1424 b 386 1543 308 1509 343 1543 b 463 1466 428 1543 463 1508 b 386 1389 463 1424 428 1389 z "},"":{"ha":926,"x_min":0,"x_max":0,"o":"m 231 0 b 154 77 189 0 154 35 b 231 154 154 120 189 154 b 308 77 274 154 308 119 b 231 0 308 35 274 0 z m 386 0 b 308 77 343 0 308 35 b 386 154 308 120 343 154 b 463 77 428 154 463 119 b 386 0 463 35 428 0 z m 540 0 b 463 77 497 0 463 35 b 540 154 463 120 497 154 b 617 77 583 154 617 119 b 540 0 617 35 583 0 z m 77 154 b 0 231 35 154 0 189 b 77 308 0 274 35 308 b 154 231 120 308 154 274 b 77 154 154 189 119 154 z m 694 154 b 617 231 652 154 617 189 b 694 308 617 274 652 308 b 772 231 737 308 772 274 b 694 154 772 189 737 154 z m 77 308 b 0 386 35 308 0 343 b 77 463 0 428 35 463 b 154 386 120 463 154 428 b 77 308 154 343 119 308 z m 694 308 b 617 386 652 308 617 343 b 694 463 617 428 652 463 b 772 386 737 463 772 428 b 694 308 772 343 737 308 z m 77 463 b 0 540 35 463 0 497 b 77 617 0 583 35 617 b 154 540 120 617 154 583 b 77 463 154 497 119 463 z m 694 463 b 617 540 652 463 617 497 b 694 617 617 583 652 617 b 772 540 737 617 772 583 b 694 463 772 497 737 463 z m 77 617 b 0 694 35 617 0 652 b 77 772 0 737 35 772 b 154 694 120 772 154 737 b 77 617 154 652 119 617 z m 694 617 b 617 694 652 617 617 652 b 694 772 617 737 652 772 b 772 694 737 772 772 737 b 694 617 772 652 737 617 z m 77 772 b 0 849 35 772 0 806 b 77 926 0 892 35 926 b 154 849 120 926 154 892 b 77 772 154 806 119 772 z m 694 772 b 617 849 652 772 617 806 b 694 926 617 892 652 926 b 772 849 737 926 772 892 b 694 772 772 806 737 772 z m 231 926 b 154 1003 189 926 154 960 b 231 1081 154 1046 189 1081 b 308 1003 274 1081 308 1046 b 231 926 308 960 274 926 z m 386 926 b 308 1003 343 926 308 960 b 386 1081 308 1046 343 1081 b 463 1003 428 1081 463 1046 b 386 926 463 960 428 926 z m 540 926 b 463 1003 497 926 463 960 b 540 1081 463 1046 497 1081 b 617 1003 583 1081 617 1046 b 540 926 617 960 583 926 z m 386 1235 b 308 1312 343 1235 308 1269 b 386 1389 308 1354 343 1389 b 463 1312 428 1389 463 1354 b 386 1235 463 1269 428 1235 z m 540 1389 b 463 1466 497 1389 463 1424 b 540 1543 463 1509 497 1543 b 617 1466 583 1543 617 1508 b 540 1389 617 1424 583 1389 z "},"":{"ha":926,"x_min":0,"x_max":0,"o":"m 231 0 b 154 77 189 0 154 35 b 231 154 154 120 189 154 b 308 77 274 154 308 119 b 231 0 308 35 274 0 z m 386 0 b 308 77 343 0 308 35 b 386 154 308 120 343 154 b 463 77 428 154 463 119 b 386 0 463 35 428 0 z m 540 0 b 463 77 497 0 463 35 b 540 154 463 120 497 154 b 617 77 583 154 617 119 b 540 0 617 35 583 0 z m 77 154 b 0 231 35 154 0 189 b 77 308 0 274 35 308 b 154 231 120 308 154 274 b 77 154 154 189 119 154 z m 694 154 b 617 231 652 154 617 189 b 694 308 617 274 652 308 b 772 231 737 308 772 274 b 694 154 772 189 737 154 z m 77 308 b 0 386 35 308 0 343 b 77 463 0 428 35 463 b 154 386 120 463 154 428 b 77 308 154 343 119 308 z m 694 308 b 617 386 652 308 617 343 b 694 463 617 428 652 463 b 772 386 737 463 772 428 b 694 308 772 343 737 308 z m 77 463 b 0 540 35 463 0 497 b 77 617 0 583 35 617 b 154 540 120 617 154 583 b 77 463 154 497 119 463 z m 694 463 b 617 540 652 463 617 497 b 694 617 617 583 652 617 b 772 540 737 617 772 583 b 694 463 772 497 737 463 z m 77 617 b 0 694 35 617 0 652 b 77 772 0 737 35 772 b 154 694 120 772 154 737 b 77 617 154 652 119 617 z m 694 617 b 617 694 652 617 617 652 b 694 772 617 737 652 772 b 772 694 737 772 772 737 b 694 617 772 652 737 617 z m 77 772 b 0 849 35 772 0 806 b 77 926 0 892 35 926 b 154 849 120 926 154 892 b 77 772 154 806 119 772 z m 694 772 b 617 849 652 772 617 806 b 694 926 617 892 652 926 b 772 849 737 926 772 892 b 694 772 772 806 737 772 z m 231 926 b 154 1003 189 926 154 960 b 231 1081 154 1046 189 1081 b 308 1003 274 1081 308 1046 b 231 926 308 960 274 926 z m 386 926 b 308 1003 343 926 308 960 b 386 1081 308 1046 343 1081 b 463 1003 428 1081 463 1046 b 386 926 463 960 428 926 z m 540 926 b 463 1003 497 926 463 960 b 540 1081 463 1046 497 1081 b 617 1003 583 1081 617 1046 b 540 926 617 960 583 926 z m 231 1235 b 154 1312 189 1235 154 1269 b 231 1389 154 1354 189 1389 b 308 1312 274 1389 308 1354 b 231 1235 308 1269 274 1235 z m 540 1235 b 463 1312 497 1235 463 1269 b 540 1389 463 1354 497 1389 b 617 1312 583 1389 617 1354 b 540 1235 617 1269 583 1235 z "},"":{"ha":926,"x_min":0,"x_max":0,"o":"m 77 154 b 0 231 35 154 0 189 b 77 308 0 274 35 308 b 154 231 120 308 154 274 b 77 154 154 189 119 154 z m 694 154 b 617 231 652 154 617 189 b 694 308 617 274 652 308 b 772 231 737 308 772 274 b 694 154 772 189 737 154 z m 231 308 b 154 386 189 308 154 343 b 231 463 154 428 189 463 b 308 386 274 463 308 428 b 231 308 308 343 274 308 z m 540 308 b 463 386 497 308 463 343 b 540 463 463 428 497 463 b 617 386 583 463 617 428 b 540 308 617 343 583 308 z m 386 463 b 308 540 343 463 308 497 b 386 617 308 583 343 617 b 463 540 428 617 463 583 b 386 463 463 497 428 463 z m 231 617 b 154 694 189 617 154 652 b 231 772 154 737 189 772 b 308 694 274 772 308 737 b 231 617 308 652 274 617 z m 540 617 b 463 694 497 617 463 652 b 540 772 463 737 497 772 b 617 694 583 772 617 737 b 540 617 617 652 583 617 z m 77 772 b 0 849 35 772 0 806 b 77 926 0 892 35 926 b 154 849 120 926 154 892 b 77 772 154 806 119 772 z m 694 772 b 617 849 652 772 617 806 b 694 926 617 892 652 926 b 772 849 737 926 772 892 b 694 772 772 806 737 772 z "},"":{"ha":926,"x_min":0,"x_max":0,"o":"m 231 0 b 154 77 189 0 154 35 b 231 154 154 120 189 154 b 308 77 274 154 308 119 b 231 0 308 35 274 0 z m 386 0 b 308 77 343 0 308 35 b 386 154 308 120 343 154 b 463 77 428 154 463 119 b 386 0 463 35 428 0 z m 540 0 b 463 77 497 0 463 35 b 540 154 463 120 497 154 b 617 77 583 154 617 119 b 540 0 617 35 583 0 z m 77 154 b 0 231 35 154 0 189 b 77 308 0 274 35 308 b 154 231 120 308 154 274 b 77 154 154 189 119 154 z m 694 154 b 617 231 652 154 617 189 b 694 308 617 274 652 308 b 772 231 737 308 772 274 b 694 154 772 189 737 154 z m 77 308 b 0 386 35 308 0 343 b 77 463 0 428 35 463 b 154 386 120 463 154 428 b 77 308 154 343 119 308 z m 694 308 b 617 386 652 308 617 343 b 694 463 617 428 652 463 b 772 386 737 463 772 428 b 694 308 772 343 737 308 z m 77 463 b 0 540 35 463 0 497 b 77 617 0 583 35 617 b 154 540 120 617 154 583 b 77 463 154 497 119 463 z m 694 463 b 617 540 652 463 617 497 b 694 617 617 583 652 617 b 772 540 737 617 772 583 b 694 463 772 497 737 463 z m 77 617 b 0 694 35 617 0 652 b 77 772 0 737 35 772 b 154 694 120 772 154 737 b 77 617 154 652 119 617 z m 694 617 b 617 694 652 617 617 652 b 694 772 617 737 652 772 b 772 694 737 772 772 737 b 694 617 772 652 737 617 z m 77 772 b 0 849 35 772 0 806 b 77 926 0 892 35 926 b 154 849 120 926 154 892 b 77 772 154 806 119 772 z m 694 772 b 617 849 652 772 617 806 b 694 926 617 892 652 926 b 772 849 737 926 772 892 b 694 772 772 806 737 772 z m 77 926 b 0 1003 35 926 0 960 b 77 1081 0 1046 35 1081 b 154 1003 120 1081 154 1046 b 77 926 154 960 119 926 z m 694 926 b 617 1003 652 926 617 960 b 694 1081 617 1046 652 1081 b 772 1003 737 1081 772 1046 b 694 926 772 960 737 926 z m 386 1235 b 308 1312 343 1235 308 1269 b 386 1389 308 1354 343 1389 b 463 1312 428 1389 463 1354 b 386 1235 463 1269 428 1235 z m 231 1389 b 154 1466 189 1389 154 1424 b 231 1543 154 1509 189 1543 b 308 1466 274 1543 308 1508 b 231 1389 308 1424 274 1389 z "},"":{"ha":926,"x_min":0,"x_max":0,"o":"m 231 0 b 154 77 189 0 154 35 b 231 154 154 120 189 154 b 308 77 274 154 308 119 b 231 0 308 35 274 0 z m 386 0 b 308 77 343 0 308 35 b 386 154 308 120 343 154 b 463 77 428 154 463 119 b 386 0 463 35 428 0 z m 540 0 b 463 77 497 0 463 35 b 540 154 463 120 497 154 b 617 77 583 154 617 119 b 540 0 617 35 583 0 z m 77 154 b 0 231 35 154 0 189 b 77 308 0 274 35 308 b 154 231 120 308 154 274 b 77 154 154 189 119 154 z m 694 154 b 617 231 652 154 617 189 b 694 308 617 274 652 308 b 772 231 737 308 772 274 b 694 154 772 189 737 154 z m 77 308 b 0 386 35 308 0 343 b 77 463 0 428 35 463 b 154 386 120 463 154 428 b 77 308 154 343 119 308 z m 694 308 b 617 386 652 308 617 343 b 694 463 617 428 652 463 b 772 386 737 463 772 428 b 694 308 772 343 737 308 z m 77 463 b 0 540 35 463 0 497 b 77 617 0 583 35 617 b 154 540 120 617 154 583 b 77 463 154 497 119 463 z m 694 463 b 617 540 652 463 617 497 b 694 617 617 583 652 617 b 772 540 737 617 772 583 b 694 463 772 497 737 463 z m 77 617 b 0 694 35 617 0 652 b 77 772 0 737 35 772 b 154 694 120 772 154 737 b 77 617 154 652 119 617 z m 694 617 b 617 694 652 617 617 652 b 694 772 617 737 652 772 b 772 694 737 772 772 737 b 694 617 772 652 737 617 z m 77 772 b 0 849 35 772 0 806 b 77 926 0 892 35 926 b 154 849 120 926 154 892 b 77 772 154 806 119 772 z m 694 772 b 617 849 652 772 617 806 b 694 926 617 892 652 926 b 772 849 737 926 772 892 b 694 772 772 806 737 772 z m 77 926 b 0 1003 35 926 0 960 b 77 1081 0 1046 35 1081 b 154 1003 120 1081 154 1046 b 77 926 154 960 119 926 z m 694 926 b 617 1003 652 926 617 960 b 694 1081 617 1046 652 1081 b 772 1003 737 1081 772 1046 b 694 926 772 960 737 926 z m 386 1235 b 308 1312 343 1235 308 1269 b 386 1389 308 1354 343 1389 b 463 1312 428 1389 463 1354 b 386 1235 463 1269 428 1235 z m 540 1389 b 463 1466 497 1389 463 1424 b 540 1543 463 1509 497 1543 b 617 1466 583 1543 617 1508 b 540 1389 617 1424 583 1389 z "},"":{"ha":926,"x_min":0,"x_max":0,"o":"m 231 0 b 154 77 189 0 154 35 b 231 154 154 120 189 154 b 308 77 274 154 308 119 b 231 0 308 35 274 0 z m 386 0 b 308 77 343 0 308 35 b 386 154 308 120 343 154 b 463 77 428 154 463 119 b 386 0 463 35 428 0 z m 540 0 b 463 77 497 0 463 35 b 540 154 463 120 497 154 b 617 77 583 154 617 119 b 540 0 617 35 583 0 z m 77 154 b 0 231 35 154 0 189 b 77 308 0 274 35 308 b 154 231 120 308 154 274 b 77 154 154 189 119 154 z m 694 154 b 617 231 652 154 617 189 b 694 308 617 274 652 308 b 772 231 737 308 772 274 b 694 154 772 189 737 154 z m 77 308 b 0 386 35 308 0 343 b 77 463 0 428 35 463 b 154 386 120 463 154 428 b 77 308 154 343 119 308 z m 694 308 b 617 386 652 308 617 343 b 694 463 617 428 652 463 b 772 386 737 463 772 428 b 694 308 772 343 737 308 z m 77 463 b 0 540 35 463 0 497 b 77 617 0 583 35 617 b 154 540 120 617 154 583 b 77 463 154 497 119 463 z m 694 463 b 617 540 652 463 617 497 b 694 617 617 583 652 617 b 772 540 737 617 772 583 b 694 463 772 497 737 463 z m 77 617 b 0 694 35 617 0 652 b 77 772 0 737 35 772 b 154 694 120 772 154 737 b 77 617 154 652 119 617 z m 694 617 b 617 694 652 617 617 652 b 694 772 617 737 652 772 b 772 694 737 772 772 737 b 694 617 772 652 737 617 z m 77 772 b 0 849 35 772 0 806 b 77 926 0 892 35 926 b 154 849 120 926 154 892 b 77 772 154 806 119 772 z m 694 772 b 617 849 652 772 617 806 b 694 926 617 892 652 926 b 772 849 737 926 772 892 b 694 772 772 806 737 772 z m 77 926 b 0 1003 35 926 0 960 b 77 1081 0 1046 35 1081 b 154 1003 120 1081 154 1046 b 77 926 154 960 119 926 z m 694 926 b 617 1003 652 926 617 960 b 694 1081 617 1046 652 1081 b 772 1003 737 1081 772 1046 b 694 926 772 960 737 926 z m 231 1235 b 154 1312 189 1235 154 1269 b 231 1389 154 1354 189 1389 b 308 1312 274 1389 308 1354 b 231 1235 308 1269 274 1235 z m 540 1235 b 463 1312 497 1235 463 1269 b 540 1389 463 1354 497 1389 b 617 1312 583 1389 617 1354 b 540 1235 617 1269 583 1235 z "},"":{"ha":772,"x_min":0,"x_max":0,"o":"m 231 0 b 154 77 189 0 154 35 b 231 154 154 120 189 154 b 308 77 274 154 308 119 b 231 0 308 35 274 0 z m 386 0 b 308 77 343 0 308 35 b 386 154 308 120 343 154 b 463 77 428 154 463 119 b 386 0 463 35 428 0 z m 540 0 b 463 77 497 0 463 35 b 540 154 463 120 497 154 b 617 77 583 154 617 119 b 540 0 617 35 583 0 z m 77 154 b 0 231 35 154 0 189 b 77 308 0 274 35 308 b 154 231 120 308 154 274 b 77 154 154 189 119 154 z m 540 154 b 463 231 497 154 463 189 b 540 308 463 274 497 308 b 617 231 583 308 617 274 b 540 154 617 189 583 154 z m 231 308 b 154 386 189 308 154 343 b 231 463 154 428 189 463 b 308 386 274 463 308 428 b 231 308 308 343 274 308 z m 386 308 b 308 386 343 308 308 343 b 386 463 308 428 343 463 b 463 386 428 463 463 428 b 386 308 463 343 428 308 z m 540 308 b 463 386 497 308 463 343 b 540 463 463 428 497 463 b 617 386 583 463 617 428 b 540 308 617 343 583 308 z m 540 463 b 463 540 497 463 463 497 b 540 617 463 583 497 617 b 617 540 583 617 617 583 b 540 463 617 497 583 463 z m 77 617 b 0 694 35 617 0 652 b 77 772 0 737 35 772 b 154 694 120 772 154 737 b 77 617 154 652 119 617 z m 231 617 b 154 694 189 617 154 652 b 231 772 154 737 189 772 b 308 694 274 772 308 737 b 231 617 308 652 274 617 z m 386 617 b 308 694 343 617 308 652 b 386 772 308 737 343 772 b 463 694 428 772 463 737 b 386 617 463 652 428 617 z m 386 849 b 308 926 343 849 308 883 b 386 1003 308 969 343 1003 b 463 926 428 1003 463 969 b 386 849 463 883 428 849 z m 231 1003 b 154 1081 189 1003 154 1038 b 231 1158 154 1123 189 1158 b 308 1081 274 1158 308 1123 b 231 1003 308 1038 274 1003 z "},"":{"ha":772,"x_min":0,"x_max":0,"o":"m 231 0 b 154 77 189 0 154 35 b 231 154 154 120 189 154 b 308 77 274 154 308 119 b 231 0 308 35 274 0 z m 386 0 b 308 77 343 0 308 35 b 386 154 308 120 343 154 b 463 77 428 154 463 119 b 386 0 463 35 428 0 z m 540 0 b 463 77 497 0 463 35 b 540 154 463 120 497 154 b 617 77 583 154 617 119 b 540 0 617 35 583 0 z m 77 154 b 0 231 35 154 0 189 b 77 308 0 274 35 308 b 154 231 120 308 154 274 b 77 154 154 189 119 154 z m 540 154 b 463 231 497 154 463 189 b 540 308 463 274 497 308 b 617 231 583 308 617 274 b 540 154 617 189 583 154 z m 231 308 b 154 386 189 308 154 343 b 231 463 154 428 189 463 b 308 386 274 463 308 428 b 231 308 308 343 274 308 z m 386 308 b 308 386 343 308 308 343 b 386 463 308 428 343 463 b 463 386 428 463 463 428 b 386 308 463 343 428 308 z m 540 308 b 463 386 497 308 463 343 b 540 463 463 428 497 463 b 617 386 583 463 617 428 b 540 308 617 343 583 308 z m 540 463 b 463 540 497 463 463 497 b 540 617 463 583 497 617 b 617 540 583 617 617 583 b 540 463 617 497 583 463 z m 77 617 b 0 694 35 617 0 652 b 77 772 0 737 35 772 b 154 694 120 772 154 737 b 77 617 154 652 119 617 z m 231 617 b 154 694 189 617 154 652 b 231 772 154 737 189 772 b 308 694 274 772 308 737 b 231 617 308 652 274 617 z m 386 617 b 308 694 343 617 308 652 b 386 772 308 737 343 772 b 463 694 428 772 463 737 b 386 617 463 652 428 617 z m 231 849 b 154 926 189 849 154 883 b 231 1003 154 969 189 1003 b 308 926 274 1003 308 969 b 231 849 308 883 274 849 z m 386 1003 b 308 1081 343 1003 308 1038 b 386 1158 308 1123 343 1158 b 463 1081 428 1158 463 1123 b 386 1003 463 1038 428 1003 z "},"":{"ha":772,"x_min":0,"x_max":0,"o":"m 231 0 b 154 77 189 0 154 35 b 231 154 154 120 189 154 b 308 77 274 154 308 119 b 231 0 308 35 274 0 z m 386 0 b 308 77 343 0 308 35 b 386 154 308 120 343 154 b 463 77 428 154 463 119 b 386 0 463 35 428 0 z m 540 0 b 463 77 497 0 463 35 b 540 154 463 120 497 154 b 617 77 583 154 617 119 b 540 0 617 35 583 0 z m 77 154 b 0 231 35 154 0 189 b 77 308 0 274 35 308 b 154 231 120 308 154 274 b 77 154 154 189 119 154 z m 77 308 b 0 386 35 308 0 343 b 77 463 0 428 35 463 b 154 386 120 463 154 428 b 77 308 154 343 119 308 z m 231 308 b 154 386 189 308 154 343 b 231 463 154 428 189 463 b 308 386 274 463 308 428 b 231 308 308 343 274 308 z m 386 308 b 308 386 343 308 308 343 b 386 463 308 428 343 463 b 463 386 428 463 463 428 b 386 308 463 343 428 308 z m 540 308 b 463 386 497 308 463 343 b 540 463 463 428 497 463 b 617 386 583 463 617 428 b 540 308 617 343 583 308 z m 77 463 b 0 540 35 463 0 497 b 77 617 0 583 35 617 b 154 540 120 617 154 583 b 77 463 154 497 119 463 z m 540 463 b 463 540 497 463 463 497 b 540 617 463 583 497 617 b 617 540 583 617 617 583 b 540 463 617 497 583 463 z m 231 617 b 154 694 189 617 154 652 b 231 772 154 737 189 772 b 308 694 274 772 308 737 b 231 617 308 652 274 617 z m 386 617 b 308 694 343 617 308 652 b 386 772 308 737 343 772 b 463 694 428 772 463 737 b 386 617 463 652 428 617 z m 386 849 b 308 926 343 849 308 883 b 386 1003 308 969 343 1003 b 463 926 428 1003 463 969 b 386 849 463 883 428 849 z m 231 1003 b 154 1081 189 1003 154 1038 b 231 1158 154 1123 189 1158 b 308 1081 274 1158 308 1123 b 231 1003 308 1038 274 1003 z "},"":{"ha":772,"x_min":0,"x_max":0,"o":"m 231 0 b 154 77 189 0 154 35 b 231 154 154 120 189 154 b 308 77 274 154 308 119 b 231 0 308 35 274 0 z m 386 0 b 308 77 343 0 308 35 b 386 154 308 120 343 154 b 463 77 428 154 463 119 b 386 0 463 35 428 0 z m 540 0 b 463 77 497 0 463 35 b 540 154 463 120 497 154 b 617 77 583 154 617 119 b 540 0 617 35 583 0 z m 77 154 b 0 231 35 154 0 189 b 77 308 0 274 35 308 b 154 231 120 308 154 274 b 77 154 154 189 119 154 z m 77 308 b 0 386 35 308 0 343 b 77 463 0 428 35 463 b 154 386 120 463 154 428 b 77 308 154 343 119 308 z m 231 308 b 154 386 189 308 154 343 b 231 463 154 428 189 463 b 308 386 274 463 308 428 b 231 308 308 343 274 308 z m 386 308 b 308 386 343 308 308 343 b 386 463 308 428 343 463 b 463 386 428 463 463 428 b 386 308 463 343 428 308 z m 540 308 b 463 386 497 308 463 343 b 540 463 463 428 497 463 b 617 386 583 463 617 428 b 540 308 617 343 583 308 z m 77 463 b 0 540 35 463 0 497 b 77 617 0 583 35 617 b 154 540 120 617 154 583 b 77 463 154 497 119 463 z m 540 463 b 463 540 497 463 463 497 b 540 617 463 583 497 617 b 617 540 583 617 617 583 b 540 463 617 497 583 463 z m 231 617 b 154 694 189 617 154 652 b 231 772 154 737 189 772 b 308 694 274 772 308 737 b 231 617 308 652 274 617 z m 386 617 b 308 694 343 617 308 652 b 386 772 308 737 343 772 b 463 694 428 772 463 737 b 386 617 463 652 428 617 z m 386 926 b 308 1003 343 926 308 960 b 386 1081 308 1046 343 1081 b 463 1003 428 1081 463 1046 b 386 926 463 960 428 926 z m 540 1081 b 463 1158 497 1081 463 1115 b 540 1235 463 1200 497 1235 b 617 1158 583 1235 617 1200 b 540 1081 617 1115 583 1081 z "},"":{"ha":617,"x_min":0,"x_max":0,"o":"m 231 0 b 154 77 189 0 154 35 b 231 154 154 120 189 154 b 308 77 274 154 308 119 b 231 0 308 35 274 0 z m 386 0 b 308 77 343 0 308 35 b 386 154 308 120 343 154 b 463 77 428 154 463 119 b 386 0 463 35 428 0 z m 231 154 b 154 231 189 154 154 189 b 231 308 154 274 189 308 b 308 231 274 308 308 274 b 231 154 308 189 274 154 z m 231 308 b 154 386 189 308 154 343 b 231 463 154 428 189 463 b 308 386 274 463 308 428 b 231 308 308 343 274 308 z m 231 463 b 154 540 189 463 154 497 b 231 617 154 583 189 617 b 308 540 274 617 308 583 b 231 463 308 497 274 463 z m 77 617 b 0 694 35 617 0 652 b 77 772 0 737 35 772 b 154 694 120 772 154 737 b 77 617 154 652 119 617 z m 231 617 b 154 694 189 617 154 652 b 231 772 154 737 189 772 b 308 694 274 772 308 737 b 231 617 308 652 274 617 z m 231 926 b 154 1003 189 926 154 960 b 231 1081 154 1046 189 1081 b 308 1003 274 1081 308 1046 b 231 926 308 960 274 926 z m 77 1081 b 0 1158 35 1081 0 1115 b 77 1235 0 1200 35 1235 b 154 1158 120 1235 154 1200 b 77 1081 154 1115 119 1081 z "},"":{"ha":617,"x_min":0,"x_max":0,"o":"m 231 0 b 154 77 189 0 154 35 b 231 154 154 120 189 154 b 308 77 274 154 308 119 b 231 0 308 35 274 0 z m 386 0 b 308 77 343 0 308 35 b 386 154 308 120 343 154 b 463 77 428 154 463 119 b 386 0 463 35 428 0 z m 231 154 b 154 231 189 154 154 189 b 231 308 154 274 189 308 b 308 231 274 308 308 274 b 231 154 308 189 274 154 z m 231 308 b 154 386 189 308 154 343 b 231 463 154 428 189 463 b 308 386 274 463 308 428 b 231 308 308 343 274 308 z m 231 463 b 154 540 189 463 154 497 b 231 617 154 583 189 617 b 308 540 274 617 308 583 b 231 463 308 497 274 463 z m 77 617 b 0 694 35 617 0 652 b 77 772 0 737 35 772 b 154 694 120 772 154 737 b 77 617 154 652 119 617 z m 231 617 b 154 694 189 617 154 652 b 231 772 154 737 189 772 b 308 694 274 772 308 737 b 231 617 308 652 274 617 z m 231 926 b 154 1003 189 926 154 960 b 231 1081 154 1046 189 1081 b 308 1003 274 1081 308 1046 b 231 926 308 960 274 926 z m 386 1081 b 308 1158 343 1081 308 1115 b 386 1235 308 1200 343 1235 b 463 1158 428 1235 463 1200 b 386 1081 463 1115 428 1081 z "},"":{"ha":772,"x_min":0,"x_max":0,"o":"m 231 0 b 154 77 189 0 154 35 b 231 154 154 120 189 154 b 308 77 274 154 308 119 b 231 0 308 35 274 0 z m 386 0 b 308 77 343 0 308 35 b 386 154 308 120 343 154 b 463 77 428 154 463 119 b 386 0 463 35 428 0 z m 77 154 b 0 231 35 154 0 189 b 77 308 0 274 35 308 b 154 231 120 308 154 274 b 77 154 154 189 119 154 z m 540 154 b 463 231 497 154 463 189 b 540 308 463 274 497 308 b 617 231 583 308 617 274 b 540 154 617 189 583 154 z m 77 308 b 0 386 35 308 0 343 b 77 463 0 428 35 463 b 154 386 120 463 154 428 b 77 308 154 343 119 308 z m 540 308 b 463 386 497 308 463 343 b 540 463 463 428 497 463 b 617 386 583 463 617 428 b 540 308 617 343 583 308 z m 77 463 b 0 540 35 463 0 497 b 77 617 0 583 35 617 b 154 540 120 617 154 583 b 77 463 154 497 119 463 z m 540 463 b 463 540 497 463 463 497 b 540 617 463 583 497 617 b 617 540 583 617 617 583 b 540 463 617 497 583 463 z m 231 617 b 154 694 189 617 154 652 b 231 772 154 737 189 772 b 308 694 274 772 308 737 b 231 617 308 652 274 617 z m 386 617 b 308 694 343 617 308 652 b 386 772 308 737 343 772 b 463 694 428 772 463 737 b 386 617 463 652 428 617 z m 231 926 b 154 1003 189 926 154 960 b 231 1081 154 1046 189 1081 b 308 1003 274 1081 308 1046 b 231 926 308 960 274 926 z m 386 1081 b 308 1158 343 1081 308 1115 b 386 1235 308 1200 343 1235 b 463 1158 428 1235 463 1200 b 386 1081 463 1115 428 1081 z "},"":{"ha":772,"x_min":0,"x_max":0,"o":"m 231 0 b 154 77 189 0 154 35 b 231 154 154 120 189 154 b 308 77 274 154 308 119 b 231 0 308 35 274 0 z m 386 0 b 308 77 343 0 308 35 b 386 154 308 120 343 154 b 463 77 428 154 463 119 b 386 0 463 35 428 0 z m 77 154 b 0 231 35 154 0 189 b 77 308 0 274 35 308 b 154 231 120 308 154 274 b 77 154 154 189 119 154 z m 540 154 b 463 231 497 154 463 189 b 540 308 463 274 497 308 b 617 231 583 308 617 274 b 540 154 617 189 583 154 z m 77 308 b 0 386 35 308 0 343 b 77 463 0 428 35 463 b 154 386 120 463 154 428 b 77 308 154 343 119 308 z m 540 308 b 463 386 497 308 463 343 b 540 463 463 428 497 463 b 617 386 583 463 617 428 b 540 308 617 343 583 308 z m 77 463 b 0 540 35 463 0 497 b 77 617 0 583 35 617 b 154 540 120 617 154 583 b 77 463 154 497 119 463 z m 540 463 b 463 540 497 463 463 497 b 540 617 463 583 497 617 b 617 540 583 617 617 583 b 540 463 617 497 583 463 z m 231 617 b 154 694 189 617 154 652 b 231 772 154 737 189 772 b 308 694 274 772 308 737 b 231 617 308 652 274 617 z m 386 617 b 308 694 343 617 308 652 b 386 772 308 737 343 772 b 463 694 428 772 463 737 b 386 617 463 652 428 617 z m 77 926 b 0 1003 35 926 0 960 b 77 1081 0 1046 35 1081 b 154 1003 120 1081 154 1046 b 77 926 154 960 119 926 z m 540 926 b 463 1003 497 926 463 960 b 540 1081 463 1046 497 1081 b 617 1003 583 1081 617 1046 b 540 926 617 960 583 926 z "},"":{"ha":926,"x_min":0,"x_max":0,"o":"m 386 154 b 308 231 343 154 308 189 b 386 308 308 274 343 308 b 463 231 428 308 463 274 b 386 154 463 189 428 154 z m 77 463 b 0 540 35 463 0 497 b 77 617 0 583 35 617 b 154 540 120 617 154 583 b 77 463 154 497 119 463 z m 231 463 b 154 540 189 463 154 497 b 231 617 154 583 189 617 b 308 540 274 617 308 583 b 231 463 308 497 274 463 z m 386 463 b 308 540 343 463 308 497 b 386 617 308 583 343 617 b 463 540 428 617 463 583 b 386 463 463 497 428 463 z m 540 463 b 463 540 497 463 463 497 b 540 617 463 583 497 617 b 617 540 583 617 617 583 b 540 463 617 497 583 463 z m 694 463 b 617 540 652 463 617 497 b 694 617 617 583 652 617 b 772 540 737 617 772 583 b 694 463 772 497 737 463 z m 386 772 b 308 849 343 772 308 806 b 386 926 308 892 343 926 b 463 849 428 926 463 892 b 386 772 463 806 428 772 z "},"":{"ha":772,"x_min":0,"x_max":0,"o":"m 231 0 b 154 77 189 0 154 35 b 231 154 154 120 189 154 b 308 77 274 154 308 119 b 231 0 308 35 274 0 z m 386 0 b 308 77 343 0 308 35 b 386 154 308 120 343 154 b 463 77 428 154 463 119 b 386 0 463 35 428 0 z m 540 0 b 463 77 497 0 463 35 b 540 154 463 120 497 154 b 617 77 583 154 617 119 b 540 0 617 35 583 0 z m 77 154 b 0 231 35 154 0 189 b 77 308 0 274 35 308 b 154 231 120 308 154 274 b 77 154 154 189 119 154 z m 540 154 b 463 231 497 154 463 189 b 540 308 463 274 497 308 b 617 231 583 308 617 274 b 540 154 617 189 583 154 z m 77 308 b 0 386 35 308 0 343 b 77 463 0 428 35 463 b 154 386 120 463 154 428 b 77 308 154 343 119 308 z m 540 308 b 463 386 497 308 463 343 b 540 463 463 428 497 463 b 617 386 583 463 617 428 b 540 308 617 343 583 308 z m 77 463 b 0 540 35 463 0 497 b 77 617 0 583 35 617 b 154 540 120 617 154 583 b 77 463 154 497 119 463 z m 540 463 b 463 540 497 463 463 497 b 540 617 463 583 497 617 b 617 540 583 617 617 583 b 540 463 617 497 583 463 z m 77 617 b 0 694 35 617 0 652 b 77 772 0 737 35 772 b 154 694 120 772 154 737 b 77 617 154 652 119 617 z m 540 617 b 463 694 497 617 463 652 b 540 772 463 737 497 772 b 617 694 583 772 617 737 b 540 617 617 652 583 617 z m 386 926 b 308 1003 343 926 308 960 b 386 1081 308 1046 343 1081 b 463 1003 428 1081 463 1046 b 386 926 463 960 428 926 z m 231 1081 b 154 1158 189 1081 154 1115 b 231 1235 154 1200 189 1235 b 308 1158 274 1235 308 1200 b 231 1081 308 1115 274 1081 z "},"":{"ha":772,"x_min":0,"x_max":0,"o":"m 231 0 b 154 77 189 0 154 35 b 231 154 154 120 189 154 b 308 77 274 154 308 119 b 231 0 308 35 274 0 z m 386 0 b 308 77 343 0 308 35 b 386 154 308 120 343 154 b 463 77 428 154 463 119 b 386 0 463 35 428 0 z m 540 0 b 463 77 497 0 463 35 b 540 154 463 120 497 154 b 617 77 583 154 617 119 b 540 0 617 35 583 0 z m 77 154 b 0 231 35 154 0 189 b 77 308 0 274 35 308 b 154 231 120 308 154 274 b 77 154 154 189 119 154 z m 540 154 b 463 231 497 154 463 189 b 540 308 463 274 497 308 b 617 231 583 308 617 274 b 540 154 617 189 583 154 z m 77 308 b 0 386 35 308 0 343 b 77 463 0 428 35 463 b 154 386 120 463 154 428 b 77 308 154 343 119 308 z m 540 308 b 463 386 497 308 463 343 b 540 463 463 428 497 463 b 617 386 583 463 617 428 b 540 308 617 343 583 308 z m 77 463 b 0 540 35 463 0 497 b 77 617 0 583 35 617 b 154 540 120 617 154 583 b 77 463 154 497 119 463 z m 540 463 b 463 540 497 463 463 497 b 540 617 463 583 497 617 b 617 540 583 617 617 583 b 540 463 617 497 583 463 z m 77 617 b 0 694 35 617 0 652 b 77 772 0 737 35 772 b 154 694 120 772 154 737 b 77 617 154 652 119 617 z m 540 617 b 463 694 497 617 463 652 b 540 772 463 737 497 772 b 617 694 583 772 617 737 b 540 617 617 652 583 617 z m 231 926 b 154 1003 189 926 154 960 b 231 1081 154 1046 189 1081 b 308 1003 274 1081 308 1046 b 231 926 308 960 274 926 z m 386 1081 b 308 1158 343 1081 308 1115 b 386 1235 308 1200 343 1235 b 463 1158 428 1235 463 1200 b 386 1081 463 1115 428 1081 z "},"":{"ha":772,"x_min":0,"x_max":0,"o":"m 231 0 b 154 77 189 0 154 35 b 231 154 154 120 189 154 b 308 77 274 154 308 119 b 231 0 308 35 274 0 z m 386 0 b 308 77 343 0 308 35 b 386 154 308 120 343 154 b 463 77 428 154 463 119 b 386 0 463 35 428 0 z m 540 0 b 463 77 497 0 463 35 b 540 154 463 120 497 154 b 617 77 583 154 617 119 b 540 0 617 35 583 0 z m 77 154 b 0 231 35 154 0 189 b 77 308 0 274 35 308 b 154 231 120 308 154 274 b 77 154 154 189 119 154 z m 540 154 b 463 231 497 154 463 189 b 540 308 463 274 497 308 b 617 231 583 308 617 274 b 540 154 617 189 583 154 z m 77 308 b 0 386 35 308 0 343 b 77 463 0 428 35 463 b 154 386 120 463 154 428 b 77 308 154 343 119 308 z m 540 308 b 463 386 497 308 463 343 b 540 463 463 428 497 463 b 617 386 583 463 617 428 b 540 308 617 343 583 308 z m 77 463 b 0 540 35 463 0 497 b 77 617 0 583 35 617 b 154 540 120 617 154 583 b 77 463 154 497 119 463 z m 540 463 b 463 540 497 463 463 497 b 540 617 463 583 497 617 b 617 540 583 617 617 583 b 540 463 617 497 583 463 z m 77 617 b 0 694 35 617 0 652 b 77 772 0 737 35 772 b 154 694 120 772 154 737 b 77 617 154 652 119 617 z m 540 617 b 463 694 497 617 463 652 b 540 772 463 737 497 772 b 617 694 583 772 617 737 b 540 617 617 652 583 617 z m 154 926 b 77 1003 112 926 77 960 b 154 1081 77 1046 112 1081 b 231 1003 197 1081 231 1046 b 154 926 231 960 197 926 z m 463 926 b 386 1003 420 926 386 960 b 463 1081 386 1046 420 1081 b 540 1003 506 1081 540 1046 b 463 926 540 960 506 926 z "},"":{"ha":926,"x_min":0,"x_max":0,"o":"m 231 0 b 154 77 189 0 154 35 b 231 154 154 120 189 154 b 308 77 274 154 308 119 b 231 0 308 35 274 0 z m 386 0 b 308 77 343 0 308 35 b 386 154 308 120 343 154 b 463 77 428 154 463 119 b 386 0 463 35 428 0 z m 540 0 b 463 77 497 0 463 35 b 540 154 463 120 497 154 b 617 77 583 154 617 119 b 540 0 617 35 583 0 z m 77 154 b 0 231 35 154 0 189 b 77 308 0 274 35 308 b 154 231 120 308 154 274 b 77 154 154 189 119 154 z m 694 154 b 617 231 652 154 617 189 b 694 308 617 274 652 308 b 772 231 737 308 772 274 b 694 154 772 189 737 154 z m 77 308 b 0 386 35 308 0 343 b 77 463 0 428 35 463 b 154 386 120 463 154 428 b 77 308 154 343 119 308 z m 694 308 b 617 386 652 308 617 343 b 694 463 617 428 652 463 b 772 386 737 463 772 428 b 694 308 772 343 737 308 z m 77 463 b 0 540 35 463 0 497 b 77 617 0 583 35 617 b 154 540 120 617 154 583 b 77 463 154 497 119 463 z m 694 463 b 617 540 652 463 617 497 b 694 617 617 583 652 617 b 772 540 737 617 772 583 b 694 463 772 497 737 463 z m 77 617 b 0 694 35 617 0 652 b 77 772 0 737 35 772 b 154 694 120 772 154 737 b 77 617 154 652 119 617 z m 694 617 b 617 694 652 617 617 652 b 694 772 617 737 652 772 b 772 694 737 772 772 737 b 694 617 772 652 737 617 z m 77 772 b 0 849 35 772 0 806 b 77 926 0 892 35 926 b 154 849 120 926 154 892 b 77 772 154 806 119 772 z m 694 772 b 617 849 652 772 617 806 b 694 926 617 892 652 926 b 772 849 737 926 772 892 b 694 772 772 806 737 772 z m 231 926 b 154 1003 189 926 154 960 b 231 1081 154 1046 189 1081 b 308 1003 274 1081 308 1046 b 231 926 308 960 274 926 z m 386 926 b 308 1003 343 926 308 960 b 386 1081 308 1046 343 1081 b 463 1003 428 1081 463 1046 b 386 926 463 960 428 926 z m 540 926 b 463 1003 497 926 463 960 b 540 1081 463 1046 497 1081 b 617 1003 583 1081 617 1046 b 540 926 617 960 583 926 z m 231 1235 b 154 1312 189 1235 154 1269 b 231 1389 154 1354 189 1389 b 308 1312 274 1389 308 1354 b 231 1235 308 1269 274 1235 z m 540 1235 b 463 1312 497 1235 463 1269 b 540 1389 463 1354 497 1389 b 617 1312 583 1389 617 1354 b 540 1235 617 1269 583 1235 z m 231 1389 b 154 1466 189 1389 154 1424 b 231 1543 154 1509 189 1543 b 308 1466 274 1543 308 1508 b 231 1389 308 1424 274 1389 z m 540 1389 b 463 1466 497 1389 463 1424 b 540 1543 463 1509 497 1543 b 617 1466 583 1543 617 1508 b 540 1389 617 1424 583 1389 z "},"":{"ha":772,"x_min":0,"x_max":0,"o":"m 231 0 b 154 77 189 0 154 35 b 231 154 154 120 189 154 b 308 77 274 154 308 119 b 231 0 308 35 274 0 z m 386 0 b 308 77 343 0 308 35 b 386 154 308 120 343 154 b 463 77 428 154 463 119 b 386 0 463 35 428 0 z m 77 154 b 0 231 35 154 0 189 b 77 308 0 274 35 308 b 154 231 120 308 154 274 b 77 154 154 189 119 154 z m 540 154 b 463 231 497 154 463 189 b 540 308 463 274 497 308 b 617 231 583 308 617 274 b 540 154 617 189 583 154 z m 77 308 b 0 386 35 308 0 343 b 77 463 0 428 35 463 b 154 386 120 463 154 428 b 77 308 154 343 119 308 z m 540 308 b 463 386 497 308 463 343 b 540 463 463 428 497 463 b 617 386 583 463 617 428 b 540 308 617 343 583 308 z m 77 463 b 0 540 35 463 0 497 b 77 617 0 583 35 617 b 154 540 120 617 154 583 b 77 463 154 497 119 463 z m 540 463 b 463 540 497 463 463 497 b 540 617 463 583 497 617 b 617 540 583 617 617 583 b 540 463 617 497 583 463 z m 231 617 b 154 694 189 617 154 652 b 231 772 154 737 189 772 b 308 694 274 772 308 737 b 231 617 308 652 274 617 z m 386 617 b 308 694 343 617 308 652 b 386 772 308 737 343 772 b 463 694 428 772 463 737 b 386 617 463 652 428 617 z m 154 926 b 77 1003 112 926 77 960 b 154 1081 77 1046 112 1081 b 231 1003 197 1081 231 1046 b 154 926 231 960 197 926 z m 463 926 b 386 1003 420 926 386 960 b 463 1081 386 1046 420 1081 b 540 1003 506 1081 540 1046 b 463 926 540 960 506 926 z m 154 1081 b 77 1158 112 1081 77 1115 b 154 1235 77 1200 112 1235 b 231 1158 197 1235 231 1200 b 154 1081 231 1115 197 1081 z m 463 1081 b 386 1158 420 1081 386 1115 b 463 1235 386 1200 420 1235 b 540 1158 506 1235 540 1200 b 463 1081 540 1115 506 1081 z "},"":{"ha":926,"x_min":0,"x_max":0,"o":"m 231 0 b 154 77 189 0 154 35 b 231 154 154 120 189 154 b 308 77 274 154 308 119 b 231 0 308 35 274 0 z m 386 0 b 308 77 343 0 308 35 b 386 154 308 120 343 154 b 463 77 428 154 463 119 b 386 0 463 35 428 0 z m 540 0 b 463 77 497 0 463 35 b 540 154 463 120 497 154 b 617 77 583 154 617 119 b 540 0 617 35 583 0 z m 77 154 b 0 231 35 154 0 189 b 77 308 0 274 35 308 b 154 231 120 308 154 274 b 77 154 154 189 119 154 z m 694 154 b 617 231 652 154 617 189 b 694 308 617 274 652 308 b 772 231 737 308 772 274 b 694 154 772 189 737 154 z m 77 308 b 0 386 35 308 0 343 b 77 463 0 428 35 463 b 154 386 120 463 154 428 b 77 308 154 343 119 308 z m 694 308 b 617 386 652 308 617 343 b 694 463 617 428 652 463 b 772 386 737 463 772 428 b 694 308 772 343 737 308 z m 77 463 b 0 540 35 463 0 497 b 77 617 0 583 35 617 b 154 540 120 617 154 583 b 77 463 154 497 119 463 z m 694 463 b 617 540 652 463 617 497 b 694 617 617 583 652 617 b 772 540 737 617 772 583 b 694 463 772 497 737 463 z m 77 617 b 0 694 35 617 0 652 b 77 772 0 737 35 772 b 154 694 120 772 154 737 b 77 617 154 652 119 617 z m 694 617 b 617 694 652 617 617 652 b 694 772 617 737 652 772 b 772 694 737 772 772 737 b 694 617 772 652 737 617 z m 77 772 b 0 849 35 772 0 806 b 77 926 0 892 35 926 b 154 849 120 926 154 892 b 77 772 154 806 119 772 z m 694 772 b 617 849 652 772 617 806 b 694 926 617 892 652 926 b 772 849 737 926 772 892 b 694 772 772 806 737 772 z m 77 926 b 0 1003 35 926 0 960 b 77 1081 0 1046 35 1081 b 154 1003 120 1081 154 1046 b 77 926 154 960 119 926 z m 694 926 b 617 1003 652 926 617 960 b 694 1081 617 1046 652 1081 b 772 1003 737 1081 772 1046 b 694 926 772 960 737 926 z m 231 1235 b 154 1312 189 1235 154 1269 b 231 1389 154 1354 189 1389 b 308 1312 274 1389 308 1354 b 231 1235 308 1269 274 1235 z m 540 1235 b 463 1312 497 1235 463 1269 b 540 1389 463 1354 497 1389 b 617 1312 583 1389 617 1354 b 540 1235 617 1269 583 1235 z m 231 1389 b 154 1466 189 1389 154 1424 b 231 1543 154 1509 189 1543 b 308 1466 274 1543 308 1508 b 231 1389 308 1424 274 1389 z m 540 1389 b 463 1466 497 1389 463 1424 b 540 1543 463 1509 497 1543 b 617 1466 583 1543 617 1508 b 540 1389 617 1424 583 1389 z "},"":{"ha":772,"x_min":0,"x_max":0,"o":"m 231 0 b 154 77 189 0 154 35 b 231 154 154 120 189 154 b 308 77 274 154 308 119 b 231 0 308 35 274 0 z m 386 0 b 308 77 343 0 308 35 b 386 154 308 120 343 154 b 463 77 428 154 463 119 b 386 0 463 35 428 0 z m 540 0 b 463 77 497 0 463 35 b 540 154 463 120 497 154 b 617 77 583 154 617 119 b 540 0 617 35 583 0 z m 77 154 b 0 231 35 154 0 189 b 77 308 0 274 35 308 b 154 231 120 308 154 274 b 77 154 154 189 119 154 z m 540 154 b 463 231 497 154 463 189 b 540 308 463 274 497 308 b 617 231 583 308 617 274 b 540 154 617 189 583 154 z m 77 308 b 0 386 35 308 0 343 b 77 463 0 428 35 463 b 154 386 120 463 154 428 b 77 308 154 343 119 308 z m 540 308 b 463 386 497 308 463 343 b 540 463 463 428 497 463 b 617 386 583 463 617 428 b 540 308 617 343 583 308 z m 77 463 b 0 540 35 463 0 497 b 77 617 0 583 35 617 b 154 540 120 617 154 583 b 77 463 154 497 119 463 z m 540 463 b 463 540 497 463 463 497 b 540 617 463 583 497 617 b 617 540 583 617 617 583 b 540 463 617 497 583 463 z m 77 617 b 0 694 35 617 0 652 b 77 772 0 737 35 772 b 154 694 120 772 154 737 b 77 617 154 652 119 617 z m 540 617 b 463 694 497 617 463 652 b 540 772 463 737 497 772 b 617 694 583 772 617 737 b 540 617 617 652 583 617 z m 154 926 b 77 1003 112 926 77 960 b 154 1081 77 1046 112 1081 b 231 1003 197 1081 231 1046 b 154 926 231 960 197 926 z m 463 926 b 386 1003 420 926 386 960 b 463 1081 386 1046 420 1081 b 540 1003 506 1081 540 1046 b 463 926 540 960 506 926 z m 154 1081 b 77 1158 112 1081 77 1115 b 154 1235 77 1200 112 1235 b 231 1158 197 1235 231 1200 b 154 1081 231 1115 197 1081 z m 463 1081 b 386 1158 420 1081 386 1115 b 463 1235 386 1200 420 1235 b 540 1158 506 1235 540 1200 b 463 1081 540 1115 506 1081 z "},"":{"ha":772,"x_min":0,"x_max":0,"o":"m 77 463 b 0 540 35 463 0 497 b 77 617 0 583 35 617 b 154 540 120 617 154 583 b 77 463 154 497 119 463 z m 231 463 b 154 540 189 463 154 497 b 231 617 154 583 189 617 b 308 540 274 617 308 583 b 231 463 308 497 274 463 z m 386 463 b 308 540 343 463 308 497 b 386 617 308 583 343 617 b 463 540 428 617 463 583 b 386 463 463 497 428 463 z m 540 463 b 463 540 497 463 463 497 b 540 617 463 583 497 617 b 617 540 583 617 617 583 b 540 463 617 497 583 463 z "},"":{"ha":926,"x_min":0,"x_max":0,"o":"m 77 463 b 0 540 35 463 0 497 b 77 617 0 583 35 617 b 154 540 120 617 154 583 b 77 463 154 497 119 463 z m 231 463 b 154 540 189 463 154 497 b 231 617 154 583 189 617 b 308 540 274 617 308 583 b 231 463 308 497 274 463 z m 386 463 b 308 540 343 463 308 497 b 386 617 308 583 343 617 b 463 540 428 617 463 583 b 386 463 463 497 428 463 z m 540 463 b 463 540 497 463 463 497 b 540 617 463 583 497 617 b 617 540 583 617 617 583 b 540 463 617 497 583 463 z m 694 463 b 617 540 652 463 617 497 b 694 617 617 583 652 617 b 772 540 737 617 772 583 b 694 463 772 497 737 463 z "},"":{"ha":463,"x_min":0,"x_max":0,"o":"m 77 772 b 0 849 35 772 0 806 b 77 926 0 892 35 926 b 154 849 120 926 154 892 b 77 772 154 806 119 772 z m 77 926 b 0 1003 35 926 0 960 b 77 1081 0 1046 35 1081 b 154 1003 120 1081 154 1046 b 77 926 154 960 119 926 z m 231 1081 b 154 1158 189 1081 154 1115 b 231 1235 154 1200 189 1235 b 308 1158 274 1235 308 1200 b 231 1081 308 1115 274 1081 z "},"":{"ha":463,"x_min":0,"x_max":0,"o":"m 77 772 b 0 849 35 772 0 806 b 77 926 0 892 35 926 b 154 849 120 926 154 892 b 77 772 154 806 119 772 z m 231 926 b 154 1003 189 926 154 960 b 231 1081 154 1046 189 1081 b 308 1003 274 1081 308 1046 b 231 926 308 960 274 926 z m 231 1081 b 154 1158 189 1081 154 1115 b 231 1235 154 1200 189 1235 b 308 1158 274 1235 308 1200 b 231 1081 308 1115 274 1081 z "},"":{"ha":463,"x_min":0,"x_max":0,"o":"m 77 -154 b 0 -77 35 -154 0 -119 b 77 0 0 -35 35 0 b 154 -77 120 0 154 -35 b 77 -154 154 -120 119 -154 z m 77 0 b 0 77 35 0 0 35 b 77 154 0 120 35 154 b 154 77 120 154 154 119 b 77 0 154 35 119 0 z m 231 154 b 154 231 189 154 154 189 b 231 308 154 274 189 308 b 308 231 274 308 308 274 b 231 154 308 189 274 154 z "},"":{"ha":694,"x_min":0,"x_max":0,"o":"m 77 772 b 0 849 35 772 0 806 b 77 926 0 892 35 926 b 154 849 120 926 154 892 b 77 772 154 806 119 772 z m 308 772 b 231 849 266 772 231 806 b 308 926 231 892 266 926 b 386 849 351 926 386 892 b 308 772 386 806 351 772 z m 77 926 b 0 1003 35 926 0 960 b 77 1081 0 1046 35 1081 b 154 1003 120 1081 154 1046 b 77 926 154 960 119 926 z m 308 926 b 231 1003 266 926 231 960 b 308 1081 231 1046 266 1081 b 386 1003 351 1081 386 1046 b 308 926 386 960 351 926 z m 231 1081 b 154 1158 189 1081 154 1115 b 231 1235 154 1200 189 1235 b 308 1158 274 1235 308 1200 b 231 1081 308 1115 274 1081 z m 463 1081 b 386 1158 420 1081 386 1115 b 463 1235 386 1200 420 1235 b 540 1158 506 1235 540 1200 b 463 1081 540 1115 506 1081 z "},"":{"ha":617,"x_min":0,"x_max":0,"o":"m 77 772 b 0 849 35 772 0 806 b 77 926 0 892 35 926 b 154 849 120 926 154 892 b 77 772 154 806 119 772 z m 308 772 b 231 849 266 772 231 806 b 308 926 231 892 266 926 b 386 849 351 926 386 892 b 308 772 386 806 351 772 z m 154 926 b 77 1003 112 926 77 960 b 154 1081 77 1046 112 1081 b 231 1003 197 1081 231 1046 b 154 926 231 960 197 926 z m 386 926 b 308 1003 343 926 308 960 b 386 1081 308 1046 343 1081 b 463 1003 428 1081 463 1046 b 386 926 463 960 428 926 z m 154 1081 b 77 1158 112 1081 77 1115 b 154 1235 77 1200 112 1235 b 231 1158 197 1235 231 1200 b 154 1081 231 1115 197 1081 z m 386 1081 b 308 1158 343 1081 308 1115 b 386 1235 308 1200 343 1235 b 463 1158 428 1235 463 1200 b 386 1081 463 1115 428 1081 z "},"":{"ha":617,"x_min":0,"x_max":0,"o":"m 77 -154 b 0 -77 35 -154 0 -119 b 77 0 0 -35 35 0 b 154 -77 120 0 154 -35 b 77 -154 154 -120 119 -154 z m 308 -154 b 231 -77 266 -154 231 -119 b 308 0 231 -35 266 0 b 386 -77 351 0 386 -35 b 308 -154 386 -120 351 -154 z m 77 0 b 0 77 35 0 0 35 b 77 154 0 120 35 154 b 154 77 120 154 154 119 b 77 0 154 35 119 0 z m 308 0 b 231 77 266 0 231 35 b 308 154 231 120 266 154 b 386 77 351 154 386 119 b 308 0 386 35 351 0 z m 154 154 b 77 231 112 154 77 189 b 154 308 77 274 112 308 b 231 231 197 308 231 274 b 154 154 231 189 197 154 z m 386 154 b 308 231 343 154 308 189 b 386 308 308 274 343 308 b 463 231 428 308 463 274 b 386 154 463 189 428 154 z "},"":{"ha":463,"x_min":0,"x_max":0,"o":"m 77 386 b 0 463 35 386 0 420 b 77 540 0 506 35 540 b 154 463 120 540 154 506 b 77 386 154 420 119 386 z m 231 386 b 154 463 189 386 154 420 b 231 540 154 506 189 540 b 308 463 274 540 308 506 b 231 386 308 420 274 386 z m 77 540 b 0 617 35 540 0 575 b 77 694 0 660 35 694 b 154 617 120 694 154 660 b 77 540 154 574 119 540 z m 231 540 b 154 617 189 540 154 575 b 231 694 154 660 189 694 b 308 617 274 694 308 660 b 231 540 308 574 274 540 z "},"":{"ha":772,"x_min":0,"x_max":0,"o":"m 77 0 b 0 77 35 0 0 35 b 77 154 0 120 35 154 b 154 77 120 154 154 119 b 77 0 154 35 119 0 z m 308 0 b 231 77 266 0 231 35 b 308 154 231 120 266 154 b 386 77 351 154 386 119 b 308 0 386 35 351 0 z m 540 0 b 463 77 497 0 463 35 b 540 154 463 120 497 154 b 617 77 583 154 617 119 b 540 0 617 35 583 0 z "},"":{"ha":772,"x_min":0,"x_max":0,"o":"m 386 463 b 308 540 343 463 308 497 b 386 617 308 583 343 617 b 463 540 428 617 463 583 b 386 463 463 497 428 463 z m 77 617 b 0 694 35 617 0 652 b 77 772 0 737 35 772 b 154 694 120 772 154 737 b 77 617 154 652 119 617 z m 231 617 b 154 694 189 617 154 652 b 231 772 154 737 189 772 b 308 694 274 772 308 737 b 231 617 308 652 274 617 z m 386 617 b 308 694 343 617 308 652 b 386 772 308 737 343 772 b 463 694 428 772 463 737 b 386 617 463 652 428 617 z m 540 617 b 463 694 497 617 463 652 b 540 772 463 737 497 772 b 617 694 583 772 617 737 b 540 617 617 652 583 617 z m 154 772 b 77 849 112 772 77 806 b 154 926 77 892 112 926 b 231 849 197 926 231 892 b 154 772 231 806 197 772 z m 386 772 b 308 849 343 772 308 806 b 386 926 308 892 343 926 b 463 849 428 926 463 892 b 386 772 463 806 428 772 z m 231 926 b 154 1003 189 926 154 960 b 231 1081 154 1046 189 1081 b 308 1003 274 1081 308 1046 b 231 926 308 960 274 926 z m 308 1081 b 231 1158 266 1081 231 1115 b 308 1235 231 1200 266 1235 b 386 1158 351 1235 386 1200 b 308 1081 386 1115 351 1081 z "},"":{"ha":1466,"x_min":0,"x_max":0,"o":"m 308 617 b 231 694 266 617 231 652 b 308 772 231 737 266 772 b 386 694 351 772 386 737 b 308 617 386 652 351 617 z m 772 617 b 694 694 729 617 694 652 b 772 772 694 737 729 772 b 849 694 815 772 849 737 b 772 617 849 652 814 617 z m 1235 617 b 1158 694 1192 617 1158 652 b 1235 772 1158 737 1192 772 b 1312 694 1277 772 1312 737 b 1235 617 1312 652 1277 617 z m 308 772 b 231 849 266 772 231 806 b 308 926 231 892 266 926 b 386 849 351 926 386 892 b 308 772 386 806 351 772 z m 772 772 b 694 849 729 772 694 806 b 772 926 694 892 729 926 b 849 849 815 926 849 892 b 772 772 849 806 814 772 z m 1235 772 b 1158 849 1192 772 1158 806 b 1235 926 1158 892 1192 926 b 1312 849 1277 926 1312 892 b 1235 772 1312 806 1277 772 z m 308 926 b 231 1003 266 926 231 960 b 308 1081 231 1046 266 1081 b 386 1003 351 1081 386 1046 b 308 926 386 960 351 926 z m 772 926 b 694 1003 729 926 694 960 b 772 1081 694 1046 729 1081 b 849 1003 815 1081 849 1046 b 772 926 849 960 814 926 z m 1003 926 b 926 1003 960 926 926 960 b 1003 1081 926 1046 960 1081 b 1081 1003 1046 1081 1081 1046 b 1003 926 1081 960 1046 926 z m 1235 926 b 1158 1003 1192 926 1158 960 b 1235 1081 1158 1046 1192 1081 b 1312 1003 1277 1081 1312 1046 b 1235 926 1312 960 1277 926 z m 926 1003 b 849 1081 883 1003 849 1038 b 926 1158 849 1123 883 1158 l 926 1003 z m 1081 1003 l 1081 1158 b 1158 1081 1123 1158 1158 1123 b 1081 1003 1158 1038 1123 1003 z m 77 1081 b 0 1158 35 1081 0 1115 b 77 1235 0 1200 35 1235 b 154 1158 120 1235 154 1200 b 77 1081 154 1115 119 1081 z m 231 1081 b 154 1158 189 1081 154 1115 b 231 1235 154 1200 189 1235 b 308 1158 274 1235 308 1200 b 231 1081 308 1115 274 1081 z m 386 1081 b 308 1158 343 1081 308 1115 b 386 1235 308 1200 343 1235 b 463 1158 428 1235 463 1200 b 386 1081 463 1115 428 1081 z m 540 1081 b 463 1158 497 1081 463 1115 b 540 1235 463 1200 497 1235 b 617 1158 583 1235 617 1200 b 540 1081 617 1115 583 1081 z m 772 1081 b 694 1158 729 1081 694 1115 b 772 1235 694 1200 729 1235 b 849 1158 815 1235 849 1200 b 772 1081 849 1115 814 1081 z m 1235 1081 b 1158 1158 1192 1081 1158 1115 b 1235 1235 1158 1200 1192 1235 b 1312 1158 1277 1235 1312 1200 b 1235 1081 1312 1115 1277 1081 z "},"":{"ha":926,"x_min":0,"x_max":0,"o":"m 77 154 b 0 231 35 154 0 189 b 77 308 0 274 35 308 b 154 231 120 308 154 274 b 77 154 154 189 119 154 z m 231 308 b 154 386 189 308 154 343 b 231 463 154 428 189 463 b 308 386 274 463 308 428 b 231 308 308 343 274 308 z m 386 463 b 308 540 343 463 308 497 b 386 617 308 583 343 617 b 463 540 428 617 463 583 b 386 463 463 497 428 463 z m 540 617 b 463 694 497 617 463 652 b 540 772 463 737 497 772 b 617 694 583 772 617 737 b 540 617 617 652 583 617 z m 694 772 b 617 849 652 772 617 806 b 694 926 617 892 652 926 b 772 849 737 926 772 892 b 694 772 772 806 737 772 z "}}}
